  0
SECTION
  2
HEADER
  9
$ACADVER
  1
AC1009
  9
$EXTMIN
 10
0.0
 20
0.0
 30
0.0
  9
$EXTMAX
 10
1000.0
 20
1000.0
 30
0.0
  9
$FILLMODE
 70
 0
  9
$SPLFRAME
 70
 1
  0
ENDSEC
  0
SECTION
  2
TABLES
  0
TABLE
  2
LAYER
 70
1
  0
LAYER
  2
0
 70
     0
 62
     7
  6
CONTINUOUS
  0
ENDTAB
  0
ENDSEC
  0
SECTION
  2
ENTITIES
  0
POLYLINE
  8
0
 62
     1
 66
     1
 10
0
 20
0
 30
0.0
 40
0
 41
0
  0
VERTEX
  8
0
 10
4.81803
 20
7.87463
 30
0.0
 40
0
 41
0
  0
VERTEX
  8
0
 10
0.0936415
 20
7.87463
 30
0.0
 40
0
 41
0
  0
SEQEND
 8
0
  0
POLYLINE
  8
0
 62
     1
 66
     1
 10
0
 20
0
 30
0.0
 40
0
 41
0
  0
VERTEX
  8
0
 10
5.76292
 20
7.48318
 30
0.0
 40
0
 41
0
  0
VERTEX
  8
0
 10
11.6685
 20
1.57764
 30
0.0
 40
0
 41
0
  0
SEQEND
 8
0
  0
POLYLINE
  8
0
 62
     1
 66
     1
 10
0
 20
0
 30
0.0
 40
0
 41
0
  0
VERTEX
  8
0
 10
4.81803
 20
7.87451
 30
0.0
 40
0
 41
0
  0
VERTEX
  8
0
 10
5.07992
 20
7.84864
 30
0.0
 40
0
 41
0
  0
VERTEX
  8
0
 10
5.32937
 20
7.77285
 30
0.0
 40
0
 41
0
  0
VERTEX
  8
0
 10
5.55935
 20
7.65007
 30
0.0
 40
0
 41
0
  0
VERTEX
  8
0
 10
5.76292
 20
7.48312
 30
0.0
 40
0
 41
0
  0
SEQEND
 8
0
  0
POLYLINE
  8
0
 62
     1
 66
     1
 10
0
 20
0
 30
0.0
 40
0
 41
0
  0
VERTEX
  8
0
 10
15.1907
 20
0.118652
 30
0.0
 40
0
 41
0
  0
VERTEX
  8
0
 10
14.6983
 20
0.143067
 30
0.0
 40
0
 41
0
  0
VERTEX
  8
0
 10
14.2143
 20
0.215278
 30
0.0
 40
0
 41
0
  0
VERTEX
  8
0
 10
13.742
 20
0.333985
 30
0.0
 40
0
 41
0
  0
VERTEX
  8
0
 10
13.2844
 20
0.497885
 30
0.0
 40
0
 41
0
  0
VERTEX
  8
0
 10
12.8451
 20
0.705513
 30
0.0
 40
0
 41
0
  0
VERTEX
  8
0
 10
12.4271
 20
0.955621
 30
0.0
 40
0
 41
0
  0
VERTEX
  8
0
 10
12.0338
 20
1.2468
 30
0.0
 40
0
 41
0
  0
VERTEX
  8
0
 10
11.6685
 20
1.57764
 30
0.0
 40
0
 41
0
  0
SEQEND
 8
0
  0
POLYLINE
  8
0
 62
     1
 66
     1
 10
0
 20
0
 30
0.0
 40
0
 41
0
  0
VERTEX
  8
0
 10
15.1907
 20
0.118652
 30
0.0
 40
0
 41
0
  0
VERTEX
  8
0
 10
15.2367
 20
0.109429
 30
0.0
 40
0
 41
0
  0
VERTEX
  8
0
 10
15.2742
 20
0.0840929
 30
0.0
 40
0
 41
0
  0
VERTEX
  8
0
 10
15.2996
 20
0.0465494
 30
0.0
 40
0
 41
0
  0
VERTEX
  8
0
 10
15.3087
 20
0.000542535
 30
0.0
 40
0
 41
0
  0
SEQEND
 8
0
  0
POLYLINE
  8
0
 62
     1
 66
     1
 10
0
 20
0
 30
0.0
 70
     1
 40
0
 41
0
  0
VERTEX
  8
0
 10
0.989312
 20
7.48085
 30
0.0
 40
0
 41
0
  0
VERTEX
  8
0
 10
0.980794
 20
7.43875
 30
0.0
 40
0
 41
0
  0
VERTEX
  8
0
 10
0.957574
 20
7.40435
 30
0.0
 40
0
 41
0
  0
VERTEX
  8
0
 10
0.923178
 20
7.38112
 30
0.0
 40
0
 41
0
  0
VERTEX
  8
0
 10
0.881022
 20
7.37261
 30
0.0
 40
0
 41
0
  0
VERTEX
  8
0
 10
0.838867
 20
7.38112
 30
0.0
 40
0
 41
0
  0
VERTEX
  8
0
 10
0.804471
 20
7.40435
 30
0.0
 40
0
 41
0
  0
VERTEX
  8
0
 10
0.78125
 20
7.43875
 30
0.0
 40
0
 41
0
  0
VERTEX
  8
0
 10
0.772786
 20
7.48085
 30
0.0
 40
0
 41
0
  0
VERTEX
  8
0
 10
0.78125
 20
7.52306
 30
0.0
 40
0
 41
0
  0
VERTEX
  8
0
 10
0.804471
 20
7.55746
 30
0.0
 40
0
 41
0
  0
VERTEX
  8
0
 10
0.838867
 20
7.58068
 30
0.0
 40
0
 41
0
  0
VERTEX
  8
0
 10
0.881022
 20
7.58914
 30
0.0
 40
0
 41
0
  0
VERTEX
  8
0
 10
0.923178
 20
7.58068
 30
0.0
 40
0
 41
0
  0
VERTEX
  8
0
 10
0.957574
 20
7.55746
 30
0.0
 40
0
 41
0
  0
VERTEX
  8
0
 10
0.980794
 20
7.52306
 30
0.0
 40
0
 41
0
  0
VERTEX
  8
0
 10
0.989312
 20
7.48085
 30
0.0
 40
0
 41
0
  0
SEQEND
 8
0
  0
POLYLINE
  8
0
 62
     1
 66
     1
 10
0
 20
0
 30
0.0
 70
     1
 40
0
 41
0
  0
VERTEX
  8
0
 10
4.13894
 20
7.48085
 30
0.0
 40
0
 41
0
  0
VERTEX
  8
0
 10
4.13043
 20
7.43875
 30
0.0
 40
0
 41
0
  0
VERTEX
  8
0
 10
4.10721
 20
7.40435
 30
0.0
 40
0
 41
0
  0
VERTEX
  8
0
 10
4.07275
 20
7.38112
 30
0.0
 40
0
 41
0
  0
VERTEX
  8
0
 10
4.03065
 20
7.37261
 30
0.0
 40
0
 41
0
  0
VERTEX
  8
0
 10
3.9885
 20
7.38112
 30
0.0
 40
0
 41
0
  0
VERTEX
  8
0
 10
3.95404
 20
7.40435
 30
0.0
 40
0
 41
0
  0
VERTEX
  8
0
 10
3.93083
 20
7.43875
 30
0.0
 40
0
 41
0
  0
VERTEX
  8
0
 10
3.92236
 20
7.48085
 30
0.0
 40
0
 41
0
  0
VERTEX
  8
0
 10
3.93083
 20
7.52306
 30
0.0
 40
0
 41
0
  0
VERTEX
  8
0
 10
3.95404
 20
7.55746
 30
0.0
 40
0
 41
0
  0
VERTEX
  8
0
 10
3.9885
 20
7.58068
 30
0.0
 40
0
 41
0
  0
VERTEX
  8
0
 10
4.03065
 20
7.58914
 30
0.0
 40
0
 41
0
  0
VERTEX
  8
0
 10
4.07275
 20
7.58068
 30
0.0
 40
0
 41
0
  0
VERTEX
  8
0
 10
4.10721
 20
7.55746
 30
0.0
 40
0
 41
0
  0
VERTEX
  8
0
 10
4.13043
 20
7.52306
 30
0.0
 40
0
 41
0
  0
VERTEX
  8
0
 10
4.13894
 20
7.48085
 30
0.0
 40
0
 41
0
  0
SEQEND
 8
0
  0
POLYLINE
  8
0
 62
     1
 66
     1
 10
0
 20
0
 30
0.0
 40
0
 41
0
  0
VERTEX
  8
0
 10
2.69743
 20
0.984864
 30
0.0
 40
0
 41
0
  0
VERTEX
  8
0
 10
2.69119
 20
1.01552
 30
0.0
 40
0
 41
0
  0
VERTEX
  8
0
 10
2.67432
 20
1.04053
 30
0.0
 40
0
 41
0
  0
VERTEX
  8
0
 10
2.64931
 20
1.0574
 30
0.0
 40
0
 41
0
  0
VERTEX
  8
0
 10
2.61871
 20
1.06358
 30
0.0
 40
0
 41
0
  0
VERTEX
  8
0
 10
2.588
 20
1.0574
 30
0.0
 40
0
 41
0
  0
VERTEX
  8
0
 10
2.56299
 20
1.04053
 30
0.0
 40
0
 41
0
  0
VERTEX
  8
0
 10
2.54611
 20
1.01552
 30
0.0
 40
0
 41
0
  0
VERTEX
  8
0
 10
2.53993
 20
0.984864
 30
0.0
 40
0
 41
0
  0
VERTEX
  8
0
 10
2.54611
 20
0.95421
 30
0.0
 40
0
 41
0
  0
VERTEX
  8
0
 10
2.56299
 20
0.929199
 30
0.0
 40
0
 41
0
  0
VERTEX
  8
0
 10
2.588
 20
0.912326
 30
0.0
 40
0
 41
0
  0
VERTEX
  8
0
 10
2.61871
 20
0.906087
 30
0.0
 40
0
 41
0
  0
SEQEND
 8
0
  0
POLYLINE
  8
0
 62
     1
 66
     1
 10
0
 20
0
 30
0.0
 40
0
 41
0
  0
VERTEX
  8
0
 10
2.93365
 20
0.984864
 30
0.0
 40
0
 41
0
  0
VERTEX
  8
0
 10
2.93983
 20
1.01552
 30
0.0
 40
0
 41
0
  0
VERTEX
  8
0
 10
2.95671
 20
1.04053
 30
0.0
 40
0
 41
0
  0
VERTEX
  8
0
 10
2.98172
 20
1.0574
 30
0.0
 40
0
 41
0
  0
VERTEX
  8
0
 10
3.01238
 20
1.06358
 30
0.0
 40
0
 41
0
  0
VERTEX
  8
0
 10
3.04303
 20
1.0574
 30
0.0
 40
0
 41
0
  0
VERTEX
  8
0
 10
3.06803
 20
1.04053
 30
0.0
 40
0
 41
0
  0
VERTEX
  8
0
 10
3.0849
 20
1.01552
 30
0.0
 40
0
 41
0
  0
VERTEX
  8
0
 10
3.09114
 20
0.984864
 30
0.0
 40
0
 41
0
  0
VERTEX
  8
0
 10
3.0849
 20
0.95421
 30
0.0
 40
0
 41
0
  0
VERTEX
  8
0
 10
3.06803
 20
0.929199
 30
0.0
 40
0
 41
0
  0
VERTEX
  8
0
 10
3.04303
 20
0.912326
 30
0.0
 40
0
 41
0
  0
VERTEX
  8
0
 10
3.01238
 20
0.906087
 30
0.0
 40
0
 41
0
  0
SEQEND
 8
0
  0
POLYLINE
  8
0
 62
     1
 66
     1
 10
0
 20
0
 30
0.0
 40
0
 41
0
  0
VERTEX
  8
0
 10
8.66064
 20
0.984864
 30
0.0
 40
0
 41
0
  0
VERTEX
  8
0
 10
8.6544
 20
1.01552
 30
0.0
 40
0
 41
0
  0
VERTEX
  8
0
 10
8.63753
 20
1.04053
 30
0.0
 40
0
 41
0
  0
VERTEX
  8
0
 10
8.61253
 20
1.0574
 30
0.0
 40
0
 41
0
  0
VERTEX
  8
0
 10
8.58188
 20
1.06358
 30
0.0
 40
0
 41
0
  0
VERTEX
  8
0
 10
8.55122
 20
1.0574
 30
0.0
 40
0
 41
0
  0
VERTEX
  8
0
 10
8.52621
 20
1.04053
 30
0.0
 40
0
 41
0
  0
VERTEX
  8
0
 10
8.50933
 20
1.01552
 30
0.0
 40
0
 41
0
  0
VERTEX
  8
0
 10
8.50315
 20
0.984864
 30
0.0
 40
0
 41
0
  0
VERTEX
  8
0
 10
8.50933
 20
0.95421
 30
0.0
 40
0
 41
0
  0
VERTEX
  8
0
 10
8.52621
 20
0.929199
 30
0.0
 40
0
 41
0
  0
VERTEX
  8
0
 10
8.55122
 20
0.912326
 30
0.0
 40
0
 41
0
  0
VERTEX
  8
0
 10
8.58188
 20
0.906087
 30
0.0
 40
0
 41
0
  0
SEQEND
 8
0
  0
POLYLINE
  8
0
 62
     1
 66
     1
 10
0
 20
0
 30
0.0
 40
0
 41
0
  0
VERTEX
  8
0
 10
8.89686
 20
0.984864
 30
0.0
 40
0
 41
0
  0
VERTEX
  8
0
 10
8.90306
 20
1.01552
 30
0.0
 40
0
 41
0
  0
VERTEX
  8
0
 10
8.91992
 20
1.04053
 30
0.0
 40
0
 41
0
  0
VERTEX
  8
0
 10
8.94493
 20
1.0574
 30
0.0
 40
0
 41
0
  0
VERTEX
  8
0
 10
8.97558
 20
1.06358
 30
0.0
 40
0
 41
0
  0
VERTEX
  8
0
 10
9.00624
 20
1.0574
 30
0.0
 40
0
 41
0
  0
VERTEX
  8
0
 10
9.03125
 20
1.04053
 30
0.0
 40
0
 41
0
  0
VERTEX
  8
0
 10
9.04813
 20
1.01552
 30
0.0
 40
0
 41
0
  0
VERTEX
  8
0
 10
9.05431
 20
0.984864
 30
0.0
 40
0
 41
0
  0
VERTEX
  8
0
 10
9.04813
 20
0.95421
 30
0.0
 40
0
 41
0
  0
VERTEX
  8
0
 10
9.03125
 20
0.929199
 30
0.0
 40
0
 41
0
  0
VERTEX
  8
0
 10
9.00624
 20
0.912326
 30
0.0
 40
0
 41
0
  0
VERTEX
  8
0
 10
8.97558
 20
0.906087
 30
0.0
 40
0
 41
0
  0
SEQEND
 8
0
  0
POLYLINE
  8
0
 62
     1
 66
     1
 10
0
 20
0
 30
0.0
 40
0
 41
0
  0
VERTEX
  8
0
 10
4.78674
 20
9.81521
 30
0.0
 40
0
 41
0
  0
VERTEX
  8
0
 10
5.04861
 20
9.78933
 30
0.0
 40
0
 41
0
  0
VERTEX
  8
0
 10
5.29807
 20
9.71354
 30
0.0
 40
0
 41
0
  0
VERTEX
  8
0
 10
5.52806
 20
9.59071
 30
0.0
 40
0
 41
0
  0
VERTEX
  8
0
 10
5.73161
 20
9.42383
 30
0.0
 40
0
 41
0
  0
SEQEND
 8
0
  0
POLYLINE
  8
0
 62
     1
 66
     1
 10
0
 20
0
 30
0.0
 40
0
 41
0
  0
VERTEX
  8
0
 10
15.1594
 20
2.05935
 30
0.0
 40
0
 41
0
  0
VERTEX
  8
0
 10
14.6671
 20
2.08376
 30
0.0
 40
0
 41
0
  0
VERTEX
  8
0
 10
14.1831
 20
2.15597
 30
0.0
 40
0
 41
0
  0
VERTEX
  8
0
 10
13.7107
 20
2.27468
 30
0.0
 40
0
 41
0
  0
VERTEX
  8
0
 10
13.2532
 20
2.43853
 30
0.0
 40
0
 41
0
  0
VERTEX
  8
0
 10
12.8138
 20
2.64621
 30
0.0
 40
0
 41
0
  0
VERTEX
  8
0
 10
12.3958
 20
2.89626
 30
0.0
 40
0
 41
0
  0
VERTEX
  8
0
 10
12.0024
 20
3.18744
 30
0.0
 40
0
 41
0
  0
VERTEX
  8
0
 10
11.6371
 20
3.51828
 30
0.0
 40
0
 41
0
  0
SEQEND
 8
0
  0
POLYLINE
  8
0
 62
     1
 66
     1
 10
0
 20
0
 30
0.0
 40
0
 41
0
  0
VERTEX
  8
0
 10
15.1594
 20
2.05935
 30
0.0
 40
0
 41
0
  0
VERTEX
  8
0
 10
15.2054
 20
2.05007
 30
0.0
 40
0
 41
0
  0
VERTEX
  8
0
 10
15.2429
 20
2.02479
 30
0.0
 40
0
 41
0
  0
VERTEX
  8
0
 10
15.2682
 20
1.98725
 30
0.0
 40
0
 41
0
  0
VERTEX
  8
0
 10
15.2775
 20
1.94125
 30
0.0
 40
0
 41
0
  0
SEQEND
 8
0
  0
POLYLINE
  8
0
 62
     1
 66
     1
 10
0
 20
0
 30
0.0
 70
     1
 40
0
 41
0
  0
VERTEX
  8
0
 10
0.958008
 20
9.42156
 30
0.0
 40
0
 41
0
  0
VERTEX
  8
0
 10
0.94949
 20
9.37944
 30
0.0
 40
0
 41
0
  0
VERTEX
  8
0
 10
0.926269
 20
9.345
 30
0.0
 40
0
 41
0
  0
VERTEX
  8
0
 10
0.891818
 20
9.32178
 30
0.0
 40
0
 41
0
  0
VERTEX
  8
0
 10
0.849718
 20
9.31326
 30
0.0
 40
0
 41
0
  0
VERTEX
  8
0
 10
0.807563
 20
9.32178
 30
0.0
 40
0
 41
0
  0
VERTEX
  8
0
 10
0.773167
 20
9.345
 30
0.0
 40
0
 41
0
  0
VERTEX
  8
0
 10
0.749946
 20
9.37944
 30
0.0
 40
0
 41
0
  0
VERTEX
  8
0
 10
0.741482
 20
9.42156
 30
0.0
 40
0
 41
0
  0
VERTEX
  8
0
 10
0.749946
 20
9.46371
 30
0.0
 40
0
 41
0
  0
VERTEX
  8
0
 10
0.773167
 20
9.4981
 30
0.0
 40
0
 41
0
  0
VERTEX
  8
0
 10
0.807563
 20
9.52132
 30
0.0
 40
0
 41
0
  0
VERTEX
  8
0
 10
0.849718
 20
9.52979
 30
0.0
 40
0
 41
0
  0
VERTEX
  8
0
 10
0.891818
 20
9.52132
 30
0.0
 40
0
 41
0
  0
VERTEX
  8
0
 10
0.926269
 20
9.4981
 30
0.0
 40
0
 41
0
  0
VERTEX
  8
0
 10
0.94949
 20
9.46371
 30
0.0
 40
0
 41
0
  0
VERTEX
  8
0
 10
0.958008
 20
9.42156
 30
0.0
 40
0
 41
0
  0
SEQEND
 8
0
  0
POLYLINE
  8
0
 62
     1
 66
     1
 10
0
 20
0
 30
0.0
 70
     1
 40
0
 41
0
  0
VERTEX
  8
0
 10
4.10758
 20
9.42156
 30
0.0
 40
0
 41
0
  0
VERTEX
  8
0
 10
4.09907
 20
9.37944
 30
0.0
 40
0
 41
0
  0
VERTEX
  8
0
 10
4.07585
 20
9.345
 30
0.0
 40
0
 41
0
  0
VERTEX
  8
0
 10
4.04144
 20
9.32178
 30
0.0
 40
0
 41
0
  0
VERTEX
  8
0
 10
3.99935
 20
9.31326
 30
0.0
 40
0
 41
0
  0
VERTEX
  8
0
 10
3.95714
 20
9.32178
 30
0.0
 40
0
 41
0
  0
VERTEX
  8
0
 10
3.92275
 20
9.345
 30
0.0
 40
0
 41
0
  0
VERTEX
  8
0
 10
3.89953
 20
9.37944
 30
0.0
 40
0
 41
0
  0
VERTEX
  8
0
 10
3.89106
 20
9.42156
 30
0.0
 40
0
 41
0
  0
VERTEX
  8
0
 10
3.89953
 20
9.46371
 30
0.0
 40
0
 41
0
  0
VERTEX
  8
0
 10
3.92275
 20
9.4981
 30
0.0
 40
0
 41
0
  0
VERTEX
  8
0
 10
3.95714
 20
9.52132
 30
0.0
 40
0
 41
0
  0
VERTEX
  8
0
 10
3.99935
 20
9.52979
 30
0.0
 40
0
 41
0
  0
VERTEX
  8
0
 10
4.04144
 20
9.52132
 30
0.0
 40
0
 41
0
  0
VERTEX
  8
0
 10
4.07585
 20
9.4981
 30
0.0
 40
0
 41
0
  0
VERTEX
  8
0
 10
4.09907
 20
9.46371
 30
0.0
 40
0
 41
0
  0
VERTEX
  8
0
 10
4.10758
 20
9.42156
 30
0.0
 40
0
 41
0
  0
SEQEND
 8
0
  0
POLYLINE
  8
0
 62
     1
 66
     1
 10
0
 20
0
 30
0.0
 40
0
 41
0
  0
VERTEX
  8
0
 10
3.41721
 20
11.1562
 30
0.0
 40
0
 41
0
  0
VERTEX
  8
0
 10
3.42339
 20
11.1869
 30
0.0
 40
0
 41
0
  0
VERTEX
  8
0
 10
3.44026
 20
11.2119
 30
0.0
 40
0
 41
0
  0
VERTEX
  8
0
 10
3.46528
 20
11.2288
 30
0.0
 40
0
 41
0
  0
VERTEX
  8
0
 10
3.49599
 20
11.2349
 30
0.0
 40
0
 41
0
  0
VERTEX
  8
0
 10
3.52658
 20
11.2288
 30
0.0
 40
0
 41
0
  0
VERTEX
  8
0
 10
3.5516
 20
11.2119
 30
0.0
 40
0
 41
0
  0
VERTEX
  8
0
 10
3.56847
 20
11.1869
 30
0.0
 40
0
 41
0
  0
VERTEX
  8
0
 10
3.57471
 20
11.1562
 30
0.0
 40
0
 41
0
  0
VERTEX
  8
0
 10
3.56847
 20
11.1256
 30
0.0
 40
0
 41
0
  0
VERTEX
  8
0
 10
3.5516
 20
11.1006
 30
0.0
 40
0
 41
0
  0
VERTEX
  8
0
 10
3.52658
 20
11.0837
 30
0.0
 40
0
 41
0
  0
VERTEX
  8
0
 10
3.49599
 20
11.0775
 30
0.0
 40
0
 41
0
  0
SEQEND
 8
0
  0
POLYLINE
  8
0
 62
     1
 66
     1
 10
0
 20
0
 30
0.0
 40
0
 41
0
  0
VERTEX
  8
0
 10
3.18099
 20
11.1562
 30
0.0
 40
0
 41
0
  0
VERTEX
  8
0
 10
3.17475
 20
11.1869
 30
0.0
 40
0
 41
0
  0
VERTEX
  8
0
 10
3.15788
 20
11.2119
 30
0.0
 40
0
 41
0
  0
VERTEX
  8
0
 10
3.13286
 20
11.2288
 30
0.0
 40
0
 41
0
  0
VERTEX
  8
0
 10
3.10226
 20
11.2349
 30
0.0
 40
0
 41
0
  0
VERTEX
  8
0
 10
3.07156
 20
11.2288
 30
0.0
 40
0
 41
0
  0
VERTEX
  8
0
 10
3.04656
 20
11.2119
 30
0.0
 40
0
 41
0
  0
VERTEX
  8
0
 10
3.02968
 20
11.1869
 30
0.0
 40
0
 41
0
  0
VERTEX
  8
0
 10
3.02354
 20
11.1562
 30
0.0
 40
0
 41
0
  0
VERTEX
  8
0
 10
3.02968
 20
11.1256
 30
0.0
 40
0
 41
0
  0
VERTEX
  8
0
 10
3.04656
 20
11.1006
 30
0.0
 40
0
 41
0
  0
VERTEX
  8
0
 10
3.07156
 20
11.0837
 30
0.0
 40
0
 41
0
  0
VERTEX
  8
0
 10
3.10226
 20
11.0775
 30
0.0
 40
0
 41
0
  0
SEQEND
 8
0
  0
POLYLINE
  8
0
 62
     1
 66
     1
 10
0
 20
0
 30
0.0
 70
     1
 40
0
 41
0
  0
VERTEX
  8
0
 10
4.31267
 20
11.2195
 30
0.0
 40
0
 41
0
  0
VERTEX
  8
0
 10
4.32113
 20
11.2616
 30
0.0
 40
0
 41
0
  0
VERTEX
  8
0
 10
4.34435
 20
11.2961
 30
0.0
 40
0
 41
0
  0
VERTEX
  8
0
 10
4.37875
 20
11.3193
 30
0.0
 40
0
 41
0
  0
VERTEX
  8
0
 10
4.4209
 20
11.3278
 30
0.0
 40
0
 41
0
  0
VERTEX
  8
0
 10
4.463
 20
11.3193
 30
0.0
 40
0
 41
0
  0
VERTEX
  8
0
 10
4.49744
 20
11.2961
 30
0.0
 40
0
 41
0
  0
VERTEX
  8
0
 10
4.52067
 20
11.2616
 30
0.0
 40
0
 41
0
  0
VERTEX
  8
0
 10
4.52919
 20
11.2195
 30
0.0
 40
0
 41
0
  0
VERTEX
  8
0
 10
4.52067
 20
11.1774
 30
0.0
 40
0
 41
0
  0
VERTEX
  8
0
 10
4.49744
 20
11.1429
 30
0.0
 40
0
 41
0
  0
VERTEX
  8
0
 10
4.463
 20
11.1197
 30
0.0
 40
0
 41
0
  0
VERTEX
  8
0
 10
4.4209
 20
11.1112
 30
0.0
 40
0
 41
0
  0
VERTEX
  8
0
 10
4.37875
 20
11.1197
 30
0.0
 40
0
 41
0
  0
VERTEX
  8
0
 10
4.34435
 20
11.1429
 30
0.0
 40
0
 41
0
  0
VERTEX
  8
0
 10
4.32113
 20
11.1774
 30
0.0
 40
0
 41
0
  0
VERTEX
  8
0
 10
4.31267
 20
11.2195
 30
0.0
 40
0
 41
0
  0
SEQEND
 8
0
  0
POLYLINE
  8
0
 62
     1
 66
     1
 10
0
 20
0
 30
0.0
 70
     1
 40
0
 41
0
  0
VERTEX
  8
0
 10
1.95708
 20
11.2861
 30
0.0
 40
0
 41
0
  0
VERTEX
  8
0
 10
1.96556
 20
11.3283
 30
0.0
 40
0
 41
0
  0
VERTEX
  8
0
 10
1.98876
 20
11.3627
 30
0.0
 40
0
 41
0
  0
VERTEX
  8
0
 10
2.02317
 20
11.3859
 30
0.0
 40
0
 41
0
  0
VERTEX
  8
0
 10
2.06538
 20
11.3944
 30
0.0
 40
0
 41
0
  0
VERTEX
  8
0
 10
2.10747
 20
11.3859
 30
0.0
 40
0
 41
0
  0
VERTEX
  8
0
 10
2.14187
 20
11.3627
 30
0.0
 40
0
 41
0
  0
VERTEX
  8
0
 10
2.1651
 20
11.3283
 30
0.0
 40
0
 41
0
  0
VERTEX
  8
0
 10
2.17361
 20
11.2861
 30
0.0
 40
0
 41
0
  0
VERTEX
  8
0
 10
2.1651
 20
11.244
 30
0.0
 40
0
 41
0
  0
VERTEX
  8
0
 10
2.14187
 20
11.2096
 30
0.0
 40
0
 41
0
  0
VERTEX
  8
0
 10
2.10747
 20
11.1864
 30
0.0
 40
0
 41
0
  0
VERTEX
  8
0
 10
2.06538
 20
11.1778
 30
0.0
 40
0
 41
0
  0
VERTEX
  8
0
 10
2.02317
 20
11.1864
 30
0.0
 40
0
 41
0
  0
VERTEX
  8
0
 10
1.98876
 20
11.2096
 30
0.0
 40
0
 41
0
  0
VERTEX
  8
0
 10
1.96556
 20
11.244
 30
0.0
 40
0
 41
0
  0
VERTEX
  8
0
 10
1.95708
 20
11.2861
 30
0.0
 40
0
 41
0
  0
SEQEND
 8
0
  0
POLYLINE
  8
0
 62
     1
 66
     1
 10
0
 20
0
 30
0.0
 40
0
 41
0
  0
VERTEX
  8
0
 10
3.35206
 20
13.956
 30
0.0
 40
0
 41
0
  0
VERTEX
  8
0
 10
3.35824
 20
13.9867
 30
0.0
 40
0
 41
0
  0
VERTEX
  8
0
 10
3.37511
 20
14.0117
 30
0.0
 40
0
 41
0
  0
VERTEX
  8
0
 10
3.40013
 20
14.0285
 30
0.0
 40
0
 41
0
  0
VERTEX
  8
0
 10
3.43078
 20
14.0347
 30
0.0
 40
0
 41
0
  0
VERTEX
  8
0
 10
3.46143
 20
14.0285
 30
0.0
 40
0
 41
0
  0
VERTEX
  8
0
 10
3.48643
 20
14.0117
 30
0.0
 40
0
 41
0
  0
VERTEX
  8
0
 10
3.50331
 20
13.9867
 30
0.0
 40
0
 41
0
  0
VERTEX
  8
0
 10
3.5095
 20
13.956
 30
0.0
 40
0
 41
0
  0
VERTEX
  8
0
 10
3.50331
 20
13.9253
 30
0.0
 40
0
 41
0
  0
VERTEX
  8
0
 10
3.48643
 20
13.9003
 30
0.0
 40
0
 41
0
  0
VERTEX
  8
0
 10
3.46143
 20
13.8834
 30
0.0
 40
0
 41
0
  0
VERTEX
  8
0
 10
3.43078
 20
13.8772
 30
0.0
 40
0
 41
0
  0
SEQEND
 8
0
  0
POLYLINE
  8
0
 62
     1
 66
     1
 10
0
 20
0
 30
0.0
 40
0
 41
0
  0
VERTEX
  8
0
 10
3.11583
 20
13.956
 30
0.0
 40
0
 41
0
  0
VERTEX
  8
0
 10
3.1096
 20
13.9867
 30
0.0
 40
0
 41
0
  0
VERTEX
  8
0
 10
3.09272
 20
14.0117
 30
0.0
 40
0
 41
0
  0
VERTEX
  8
0
 10
3.06771
 20
14.0285
 30
0.0
 40
0
 41
0
  0
VERTEX
  8
0
 10
3.03706
 20
14.0347
 30
0.0
 40
0
 41
0
  0
VERTEX
  8
0
 10
3.0064
 20
14.0285
 30
0.0
 40
0
 41
0
  0
VERTEX
  8
0
 10
2.98139
 20
14.0117
 30
0.0
 40
0
 41
0
  0
VERTEX
  8
0
 10
2.96451
 20
13.9867
 30
0.0
 40
0
 41
0
  0
VERTEX
  8
0
 10
2.95833
 20
13.956
 30
0.0
 40
0
 41
0
  0
VERTEX
  8
0
 10
2.96451
 20
13.9253
 30
0.0
 40
0
 41
0
  0
VERTEX
  8
0
 10
2.98139
 20
13.9003
 30
0.0
 40
0
 41
0
  0
VERTEX
  8
0
 10
3.0064
 20
13.8834
 30
0.0
 40
0
 41
0
  0
VERTEX
  8
0
 10
3.03706
 20
13.8772
 30
0.0
 40
0
 41
0
  0
SEQEND
 8
0
  0
POLYLINE
  8
0
 62
     1
 66
     1
 10
0
 20
0
 30
0.0
 70
     1
 40
0
 41
0
  0
VERTEX
  8
0
 10
4.24744
 20
14.0192
 30
0.0
 40
0
 41
0
  0
VERTEX
  8
0
 10
4.25592
 20
14.0614
 30
0.0
 40
0
 41
0
  0
VERTEX
  8
0
 10
4.27914
 20
14.0957
 30
0.0
 40
0
 41
0
  0
VERTEX
  8
0
 10
4.31358
 20
14.119
 30
0.0
 40
0
 41
0
  0
VERTEX
  8
0
 10
4.35574
 20
14.1275
 30
0.0
 40
0
 41
0
  0
VERTEX
  8
0
 10
4.39785
 20
14.119
 30
0.0
 40
0
 41
0
  0
VERTEX
  8
0
 10
4.43224
 20
14.0957
 30
0.0
 40
0
 41
0
  0
VERTEX
  8
0
 10
4.45546
 20
14.0614
 30
0.0
 40
0
 41
0
  0
VERTEX
  8
0
 10
4.46397
 20
14.0192
 30
0.0
 40
0
 41
0
  0
VERTEX
  8
0
 10
4.45546
 20
13.9771
 30
0.0
 40
0
 41
0
  0
VERTEX
  8
0
 10
4.43224
 20
13.9426
 30
0.0
 40
0
 41
0
  0
VERTEX
  8
0
 10
4.39785
 20
13.9194
 30
0.0
 40
0
 41
0
  0
VERTEX
  8
0
 10
4.35574
 20
13.911
 30
0.0
 40
0
 41
0
  0
VERTEX
  8
0
 10
4.31358
 20
13.9194
 30
0.0
 40
0
 41
0
  0
VERTEX
  8
0
 10
4.27914
 20
13.9426
 30
0.0
 40
0
 41
0
  0
VERTEX
  8
0
 10
4.25592
 20
13.9771
 30
0.0
 40
0
 41
0
  0
VERTEX
  8
0
 10
4.24744
 20
14.0192
 30
0.0
 40
0
 41
0
  0
SEQEND
 8
0
  0
POLYLINE
  8
0
 62
     1
 66
     1
 10
0
 20
0
 30
0.0
 70
     1
 40
0
 41
0
  0
VERTEX
  8
0
 10
1.89187
 20
14.0858
 30
0.0
 40
0
 41
0
  0
VERTEX
  8
0
 10
1.90033
 20
14.1281
 30
0.0
 40
0
 41
0
  0
VERTEX
  8
0
 10
1.92356
 20
14.1625
 30
0.0
 40
0
 41
0
  0
VERTEX
  8
0
 10
1.95801
 20
14.1857
 30
0.0
 40
0
 41
0
  0
VERTEX
  8
0
 10
2.00017
 20
14.1942
 30
0.0
 40
0
 41
0
  0
VERTEX
  8
0
 10
2.04226
 20
14.1857
 30
0.0
 40
0
 41
0
  0
VERTEX
  8
0
 10
2.07671
 20
14.1625
 30
0.0
 40
0
 41
0
  0
VERTEX
  8
0
 10
2.09993
 20
14.1281
 30
0.0
 40
0
 41
0
  0
VERTEX
  8
0
 10
2.10846
 20
14.0858
 30
0.0
 40
0
 41
0
  0
VERTEX
  8
0
 10
2.09993
 20
14.0438
 30
0.0
 40
0
 41
0
  0
VERTEX
  8
0
 10
2.07671
 20
14.0093
 30
0.0
 40
0
 41
0
  0
VERTEX
  8
0
 10
2.04226
 20
13.9861
 30
0.0
 40
0
 41
0
  0
VERTEX
  8
0
 10
2.00017
 20
13.9776
 30
0.0
 40
0
 41
0
  0
VERTEX
  8
0
 10
1.95801
 20
13.9861
 30
0.0
 40
0
 41
0
  0
VERTEX
  8
0
 10
1.92356
 20
14.0093
 30
0.0
 40
0
 41
0
  0
VERTEX
  8
0
 10
1.90033
 20
14.0438
 30
0.0
 40
0
 41
0
  0
VERTEX
  8
0
 10
1.89187
 20
14.0858
 30
0.0
 40
0
 41
0
  0
SEQEND
 8
0
  0
POLYLINE
  8
0
 62
     1
 66
     1
 10
0
 20
0
 30
0.0
 70
     1
 40
0
 41
0
  0
VERTEX
  8
0
 10
0.000705294
 20
11.9878
 30
0.0
 40
0
 41
0
  0
VERTEX
  8
0
 10
0.0223525
 20
12.0952
 30
0.0
 40
0
 41
0
  0
VERTEX
  8
0
 10
0.0814344
 20
12.1828
 30
0.0
 40
0
 41
0
  0
VERTEX
  8
0
 10
0.169
 20
12.2418
 30
0.0
 40
0
 41
0
  0
VERTEX
  8
0
 10
0.276313
 20
12.2635
 30
0.0
 40
0
 41
0
  0
VERTEX
  8
0
 10
0.383572
 20
12.2418
 30
0.0
 40
0
 41
0
  0
VERTEX
  8
0
 10
0.471192
 20
12.1828
 30
0.0
 40
0
 41
0
  0
VERTEX
  8
0
 10
0.530219
 20
12.0952
 30
0.0
 40
0
 41
0
  0
VERTEX
  8
0
 10
0.551921
 20
11.9878
 30
0.0
 40
0
 41
0
  0
VERTEX
  8
0
 10
0.530219
 20
11.8806
 30
0.0
 40
0
 41
0
  0
VERTEX
  8
0
 10
0.471192
 20
11.793
 30
0.0
 40
0
 41
0
  0
VERTEX
  8
0
 10
0.383572
 20
11.734
 30
0.0
 40
0
 41
0
  0
VERTEX
  8
0
 10
0.276313
 20
11.7123
 30
0.0
 40
0
 41
0
  0
VERTEX
  8
0
 10
0.169
 20
11.734
 30
0.0
 40
0
 41
0
  0
VERTEX
  8
0
 10
0.0814344
 20
11.793
 30
0.0
 40
0
 41
0
  0
VERTEX
  8
0
 10
0.0223525
 20
11.8806
 30
0.0
 40
0
 41
0
  0
VERTEX
  8
0
 10
0.000705294
 20
11.9878
 30
0.0
 40
0
 41
0
  0
SEQEND
 8
0
  0
POLYLINE
  8
0
 62
     1
 66
     1
 10
0
 20
0
 30
0.0
 70
     1
 40
0
 41
0
  0
VERTEX
  8
0
 10
0.168078
 20
11.9878
 30
0.0
 40
0
 41
0
  0
VERTEX
  8
0
 10
0.17654
 20
12.03
 30
0.0
 40
0
 41
0
  0
VERTEX
  8
0
 10
0.199761
 20
12.0645
 30
0.0
 40
0
 41
0
  0
VERTEX
  8
0
 10
0.234158
 20
12.0877
 30
0.0
 40
0
 41
0
  0
VERTEX
  8
0
 10
0.276313
 20
12.0961
 30
0.0
 40
0
 41
0
  0
VERTEX
  8
0
 10
0.318414
 20
12.0877
 30
0.0
 40
0
 41
0
  0
VERTEX
  8
0
 10
0.352864
 20
12.0645
 30
0.0
 40
0
 41
0
  0
VERTEX
  8
0
 10
0.376085
 20
12.03
 30
0.0
 40
0
 41
0
  0
VERTEX
  8
0
 10
0.384603
 20
11.9878
 30
0.0
 40
0
 41
0
  0
VERTEX
  8
0
 10
0.376085
 20
11.9458
 30
0.0
 40
0
 41
0
  0
VERTEX
  8
0
 10
0.352864
 20
11.9113
 30
0.0
 40
0
 41
0
  0
VERTEX
  8
0
 10
0.318414
 20
11.8881
 30
0.0
 40
0
 41
0
  0
VERTEX
  8
0
 10
0.276313
 20
11.8796
 30
0.0
 40
0
 41
0
  0
VERTEX
  8
0
 10
0.234158
 20
11.8881
 30
0.0
 40
0
 41
0
  0
VERTEX
  8
0
 10
0.199761
 20
11.9113
 30
0.0
 40
0
 41
0
  0
VERTEX
  8
0
 10
0.17654
 20
11.9458
 30
0.0
 40
0
 41
0
  0
VERTEX
  8
0
 10
0.168078
 20
11.9878
 30
0.0
 40
0
 41
0
  0
SEQEND
 8
0
  0
POLYLINE
  8
0
 62
     1
 66
     1
 10
0
 20
0
 30
0.0
 40
0
 41
0
  0
VERTEX
  8
0
 10
6.14025
 20
14.3171
 30
0.0
 40
0
 41
0
  0
VERTEX
  8
0
 10
6.15619
 20
14.4758
 30
0.0
 40
0
 41
0
  0
VERTEX
  8
0
 10
6.2021
 20
14.6236
 30
0.0
 40
0
 41
0
  0
VERTEX
  8
0
 10
6.27468
 20
14.7574
 30
0.0
 40
0
 41
0
  0
VERTEX
  8
0
 10
6.37082
 20
14.8739
 30
0.0
 40
0
 41
0
  0
VERTEX
  8
0
 10
6.48736
 20
14.97
 30
0.0
 40
0
 41
0
  0
VERTEX
  8
0
 10
6.62115
 20
15.0426
 30
0.0
 40
0
 41
0
  0
VERTEX
  8
0
 10
6.76893
 20
15.0886
 30
0.0
 40
0
 41
0
  0
VERTEX
  8
0
 10
6.92763
 20
15.1044
 30
0.0
 40
0
 41
0
  0
VERTEX
  8
0
 10
7.08632
 20
15.0886
 30
0.0
 40
0
 41
0
  0
VERTEX
  8
0
 10
7.2341
 20
15.0426
 30
0.0
 40
0
 41
0
  0
VERTEX
  8
0
 10
7.36783
 20
14.97
 30
0.0
 40
0
 41
0
  0
VERTEX
  8
0
 10
7.48443
 20
14.8739
 30
0.0
 40
0
 41
0
  0
VERTEX
  8
0
 10
7.58057
 20
14.7574
 30
0.0
 40
0
 41
0
  0
VERTEX
  8
0
 10
7.65315
 20
14.6236
 30
0.0
 40
0
 41
0
  0
VERTEX
  8
0
 10
7.69906
 20
14.4758
 30
0.0
 40
0
 41
0
  0
VERTEX
  8
0
 10
7.71506
 20
14.3171
 30
0.0
 40
0
 41
0
  0
SEQEND
 8
0
  0
POLYLINE
  8
0
 62
     1
 66
     1
 10
0
 20
0
 30
0.0
 40
0
 41
0
  0
VERTEX
  8
0
 10
6.14025
 20
10.3801
 30
0.0
 40
0
 41
0
  0
VERTEX
  8
0
 10
6.15619
 20
10.2214
 30
0.0
 40
0
 41
0
  0
VERTEX
  8
0
 10
6.2021
 20
10.0736
 30
0.0
 40
0
 41
0
  0
VERTEX
  8
0
 10
6.27468
 20
9.93989
 30
0.0
 40
0
 41
0
  0
VERTEX
  8
0
 10
6.37082
 20
9.82329
 30
0.0
 40
0
 41
0
  0
VERTEX
  8
0
 10
6.48736
 20
9.72715
 30
0.0
 40
0
 41
0
  0
VERTEX
  8
0
 10
6.62115
 20
9.65457
 30
0.0
 40
0
 41
0
  0
VERTEX
  8
0
 10
6.76893
 20
9.60867
 30
0.0
 40
0
 41
0
  0
VERTEX
  8
0
 10
6.92763
 20
9.59267
 30
0.0
 40
0
 41
0
  0
VERTEX
  8
0
 10
7.08632
 20
9.60867
 30
0.0
 40
0
 41
0
  0
VERTEX
  8
0
 10
7.2341
 20
9.65457
 30
0.0
 40
0
 41
0
  0
VERTEX
  8
0
 10
7.36783
 20
9.72715
 30
0.0
 40
0
 41
0
  0
VERTEX
  8
0
 10
7.48443
 20
9.82329
 30
0.0
 40
0
 41
0
  0
VERTEX
  8
0
 10
7.58057
 20
9.93989
 30
0.0
 40
0
 41
0
  0
VERTEX
  8
0
 10
7.65315
 20
10.0736
 30
0.0
 40
0
 41
0
  0
VERTEX
  8
0
 10
7.69906
 20
10.2214
 30
0.0
 40
0
 41
0
  0
VERTEX
  8
0
 10
7.71506
 20
10.3801
 30
0.0
 40
0
 41
0
  0
SEQEND
 8
0
  0
POLYLINE
  8
0
 62
     1
 66
     1
 10
0
 20
0
 30
0.0
 70
     1
 40
0
 41
0
  0
VERTEX
  8
0
 10
6.81939
 20
14.3171
 30
0.0
 40
0
 41
0
  0
VERTEX
  8
0
 10
6.82785
 20
14.3593
 30
0.0
 40
0
 41
0
  0
VERTEX
  8
0
 10
6.85107
 20
14.3936
 30
0.0
 40
0
 41
0
  0
VERTEX
  8
0
 10
6.88547
 20
14.4169
 30
0.0
 40
0
 41
0
  0
VERTEX
  8
0
 10
6.92763
 20
14.4253
 30
0.0
 40
0
 41
0
  0
VERTEX
  8
0
 10
6.96972
 20
14.4169
 30
0.0
 40
0
 41
0
  0
VERTEX
  8
0
 10
7.00418
 20
14.3936
 30
0.0
 40
0
 41
0
  0
VERTEX
  8
0
 10
7.0274
 20
14.3593
 30
0.0
 40
0
 41
0
  0
VERTEX
  8
0
 10
7.03592
 20
14.3171
 30
0.0
 40
0
 41
0
  0
VERTEX
  8
0
 10
7.0274
 20
14.275
 30
0.0
 40
0
 41
0
  0
VERTEX
  8
0
 10
7.00418
 20
14.2406
 30
0.0
 40
0
 41
0
  0
VERTEX
  8
0
 10
6.96972
 20
14.2174
 30
0.0
 40
0
 41
0
  0
VERTEX
  8
0
 10
6.92763
 20
14.2089
 30
0.0
 40
0
 41
0
  0
VERTEX
  8
0
 10
6.88547
 20
14.2174
 30
0.0
 40
0
 41
0
  0
VERTEX
  8
0
 10
6.85107
 20
14.2406
 30
0.0
 40
0
 41
0
  0
VERTEX
  8
0
 10
6.82785
 20
14.275
 30
0.0
 40
0
 41
0
  0
VERTEX
  8
0
 10
6.81939
 20
14.3171
 30
0.0
 40
0
 41
0
  0
SEQEND
 8
0
  0
POLYLINE
  8
0
 62
     1
 66
     1
 10
0
 20
0
 30
0.0
 70
     1
 40
0
 41
0
  0
VERTEX
  8
0
 10
6.81939
 20
10.3801
 30
0.0
 40
0
 41
0
  0
VERTEX
  8
0
 10
6.82785
 20
10.4222
 30
0.0
 40
0
 41
0
  0
VERTEX
  8
0
 10
6.85107
 20
10.4567
 30
0.0
 40
0
 41
0
  0
VERTEX
  8
0
 10
6.88547
 20
10.4799
 30
0.0
 40
0
 41
0
  0
VERTEX
  8
0
 10
6.92763
 20
10.4883
 30
0.0
 40
0
 41
0
  0
VERTEX
  8
0
 10
6.96972
 20
10.4799
 30
0.0
 40
0
 41
0
  0
VERTEX
  8
0
 10
7.00418
 20
10.4567
 30
0.0
 40
0
 41
0
  0
VERTEX
  8
0
 10
7.0274
 20
10.4222
 30
0.0
 40
0
 41
0
  0
VERTEX
  8
0
 10
7.03592
 20
10.3801
 30
0.0
 40
0
 41
0
  0
VERTEX
  8
0
 10
7.0274
 20
10.338
 30
0.0
 40
0
 41
0
  0
VERTEX
  8
0
 10
7.00418
 20
10.3035
 30
0.0
 40
0
 41
0
  0
VERTEX
  8
0
 10
6.96972
 20
10.2803
 30
0.0
 40
0
 41
0
  0
VERTEX
  8
0
 10
6.92763
 20
10.2718
 30
0.0
 40
0
 41
0
  0
VERTEX
  8
0
 10
6.88547
 20
10.2803
 30
0.0
 40
0
 41
0
  0
VERTEX
  8
0
 10
6.85107
 20
10.3035
 30
0.0
 40
0
 41
0
  0
VERTEX
  8
0
 10
6.82785
 20
10.338
 30
0.0
 40
0
 41
0
  0
VERTEX
  8
0
 10
6.81939
 20
10.3801
 30
0.0
 40
0
 41
0
  0
SEQEND
 8
0
  0
POLYLINE
  8
0
 62
     1
 66
     1
 10
0
 20
0
 30
0.0
 70
     1
 40
0
 41
0
  0
VERTEX
  8
0
 10
0.000705294
 20
10.7413
 30
0.0
 40
0
 41
0
  0
VERTEX
  8
0
 10
0.0223525
 20
10.8485
 30
0.0
 40
0
 41
0
  0
VERTEX
  8
0
 10
0.0814344
 20
10.9361
 30
0.0
 40
0
 41
0
  0
VERTEX
  8
0
 10
0.169
 20
10.9952
 30
0.0
 40
0
 41
0
  0
VERTEX
  8
0
 10
0.276313
 20
11.0168
 30
0.0
 40
0
 41
0
  0
VERTEX
  8
0
 10
0.383572
 20
10.9952
 30
0.0
 40
0
 41
0
  0
VERTEX
  8
0
 10
0.471192
 20
10.9361
 30
0.0
 40
0
 41
0
  0
VERTEX
  8
0
 10
0.530219
 20
10.8485
 30
0.0
 40
0
 41
0
  0
VERTEX
  8
0
 10
0.551921
 20
10.7413
 30
0.0
 40
0
 41
0
  0
VERTEX
  8
0
 10
0.530219
 20
10.634
 30
0.0
 40
0
 41
0
  0
VERTEX
  8
0
 10
0.471192
 20
10.5464
 30
0.0
 40
0
 41
0
  0
VERTEX
  8
0
 10
0.383572
 20
10.4874
 30
0.0
 40
0
 41
0
  0
VERTEX
  8
0
 10
0.276313
 20
10.4657
 30
0.0
 40
0
 41
0
  0
VERTEX
  8
0
 10
0.169
 20
10.4874
 30
0.0
 40
0
 41
0
  0
VERTEX
  8
0
 10
0.0814344
 20
10.5464
 30
0.0
 40
0
 41
0
  0
VERTEX
  8
0
 10
0.0223525
 20
10.634
 30
0.0
 40
0
 41
0
  0
VERTEX
  8
0
 10
0.000705294
 20
10.7413
 30
0.0
 40
0
 41
0
  0
SEQEND
 8
0
  0
POLYLINE
  8
0
 62
     1
 66
     1
 10
0
 20
0
 30
0.0
 70
     1
 40
0
 41
0
  0
VERTEX
  8
0
 10
0.168078
 20
10.7413
 30
0.0
 40
0
 41
0
  0
VERTEX
  8
0
 10
0.17654
 20
10.7834
 30
0.0
 40
0
 41
0
  0
VERTEX
  8
0
 10
0.199761
 20
10.8178
 30
0.0
 40
0
 41
0
  0
VERTEX
  8
0
 10
0.234158
 20
10.841
 30
0.0
 40
0
 41
0
  0
VERTEX
  8
0
 10
0.276313
 20
10.8495
 30
0.0
 40
0
 41
0
  0
VERTEX
  8
0
 10
0.318414
 20
10.841
 30
0.0
 40
0
 41
0
  0
VERTEX
  8
0
 10
0.352864
 20
10.8178
 30
0.0
 40
0
 41
0
  0
VERTEX
  8
0
 10
0.376085
 20
10.7834
 30
0.0
 40
0
 41
0
  0
VERTEX
  8
0
 10
0.384603
 20
10.7413
 30
0.0
 40
0
 41
0
  0
VERTEX
  8
0
 10
0.376085
 20
10.6992
 30
0.0
 40
0
 41
0
  0
VERTEX
  8
0
 10
0.352864
 20
10.6647
 30
0.0
 40
0
 41
0
  0
VERTEX
  8
0
 10
0.318414
 20
10.6415
 30
0.0
 40
0
 41
0
  0
VERTEX
  8
0
 10
0.276313
 20
10.633
 30
0.0
 40
0
 41
0
  0
VERTEX
  8
0
 10
0.234158
 20
10.6415
 30
0.0
 40
0
 41
0
  0
VERTEX
  8
0
 10
0.199761
 20
10.6647
 30
0.0
 40
0
 41
0
  0
VERTEX
  8
0
 10
0.17654
 20
10.6992
 30
0.0
 40
0
 41
0
  0
VERTEX
  8
0
 10
0.168078
 20
10.7413
 30
0.0
 40
0
 41
0
  0
SEQEND
 8
0
  0
POLYLINE
  8
0
 62
     1
 66
     1
 10
0
 20
0
 30
0.0
 70
     1
 40
0
 41
0
  0
VERTEX
  8
0
 10
0.000705294
 20
13.2345
 30
0.0
 40
0
 41
0
  0
VERTEX
  8
0
 10
0.0223525
 20
13.3417
 30
0.0
 40
0
 41
0
  0
VERTEX
  8
0
 10
0.0814344
 20
13.4294
 30
0.0
 40
0
 41
0
  0
VERTEX
  8
0
 10
0.169
 20
13.4884
 30
0.0
 40
0
 41
0
  0
VERTEX
  8
0
 10
0.276313
 20
13.51
 30
0.0
 40
0
 41
0
  0
VERTEX
  8
0
 10
0.383572
 20
13.4884
 30
0.0
 40
0
 41
0
  0
VERTEX
  8
0
 10
0.471192
 20
13.4294
 30
0.0
 40
0
 41
0
  0
VERTEX
  8
0
 10
0.530219
 20
13.3417
 30
0.0
 40
0
 41
0
  0
VERTEX
  8
0
 10
0.551921
 20
13.2345
 30
0.0
 40
0
 41
0
  0
VERTEX
  8
0
 10
0.530219
 20
13.1272
 30
0.0
 40
0
 41
0
  0
VERTEX
  8
0
 10
0.471192
 20
13.0396
 30
0.0
 40
0
 41
0
  0
VERTEX
  8
0
 10
0.383572
 20
12.9806
 30
0.0
 40
0
 41
0
  0
VERTEX
  8
0
 10
0.276313
 20
12.9589
 30
0.0
 40
0
 41
0
  0
VERTEX
  8
0
 10
0.169
 20
12.9806
 30
0.0
 40
0
 41
0
  0
VERTEX
  8
0
 10
0.0814344
 20
13.0396
 30
0.0
 40
0
 41
0
  0
VERTEX
  8
0
 10
0.0223525
 20
13.1272
 30
0.0
 40
0
 41
0
  0
VERTEX
  8
0
 10
0.000705294
 20
13.2345
 30
0.0
 40
0
 41
0
  0
SEQEND
 8
0
  0
POLYLINE
  8
0
 62
     1
 66
     1
 10
0
 20
0
 30
0.0
 70
     1
 40
0
 41
0
  0
VERTEX
  8
0
 10
0.168078
 20
13.2345
 30
0.0
 40
0
 41
0
  0
VERTEX
  8
0
 10
0.17654
 20
13.2766
 30
0.0
 40
0
 41
0
  0
VERTEX
  8
0
 10
0.199761
 20
13.311
 30
0.0
 40
0
 41
0
  0
VERTEX
  8
0
 10
0.234158
 20
13.3342
 30
0.0
 40
0
 41
0
  0
VERTEX
  8
0
 10
0.276313
 20
13.3427
 30
0.0
 40
0
 41
0
  0
VERTEX
  8
0
 10
0.318414
 20
13.3342
 30
0.0
 40
0
 41
0
  0
VERTEX
  8
0
 10
0.352864
 20
13.311
 30
0.0
 40
0
 41
0
  0
VERTEX
  8
0
 10
0.376085
 20
13.2766
 30
0.0
 40
0
 41
0
  0
VERTEX
  8
0
 10
0.384603
 20
13.2345
 30
0.0
 40
0
 41
0
  0
VERTEX
  8
0
 10
0.376085
 20
13.1923
 30
0.0
 40
0
 41
0
  0
VERTEX
  8
0
 10
0.352864
 20
13.1579
 30
0.0
 40
0
 41
0
  0
VERTEX
  8
0
 10
0.318414
 20
13.1347
 30
0.0
 40
0
 41
0
  0
VERTEX
  8
0
 10
0.276313
 20
13.1262
 30
0.0
 40
0
 41
0
  0
VERTEX
  8
0
 10
0.234158
 20
13.1347
 30
0.0
 40
0
 41
0
  0
VERTEX
  8
0
 10
0.199761
 20
13.1579
 30
0.0
 40
0
 41
0
  0
VERTEX
  8
0
 10
0.17654
 20
13.1923
 30
0.0
 40
0
 41
0
  0
VERTEX
  8
0
 10
0.168078
 20
13.2345
 30
0.0
 40
0
 41
0
  0
SEQEND
 8
0
  0
POLYLINE
  8
0
 62
     1
 66
     1
 10
0
 20
0
 30
0.0
 70
     1
 40
0
 41
0
  0
VERTEX
  8
0
 10
0.000705294
 20
14.4811
 30
0.0
 40
0
 41
0
  0
VERTEX
  8
0
 10
0.0223525
 20
14.5883
 30
0.0
 40
0
 41
0
  0
VERTEX
  8
0
 10
0.0814344
 20
14.676
 30
0.0
 40
0
 41
0
  0
VERTEX
  8
0
 10
0.169
 20
14.735
 30
0.0
 40
0
 41
0
  0
VERTEX
  8
0
 10
0.276313
 20
14.7567
 30
0.0
 40
0
 41
0
  0
VERTEX
  8
0
 10
0.383572
 20
14.735
 30
0.0
 40
0
 41
0
  0
VERTEX
  8
0
 10
0.471192
 20
14.676
 30
0.0
 40
0
 41
0
  0
VERTEX
  8
0
 10
0.530219
 20
14.5883
 30
0.0
 40
0
 41
0
  0
VERTEX
  8
0
 10
0.551921
 20
14.4811
 30
0.0
 40
0
 41
0
  0
VERTEX
  8
0
 10
0.530219
 20
14.3738
 30
0.0
 40
0
 41
0
  0
VERTEX
  8
0
 10
0.471192
 20
14.2862
 30
0.0
 40
0
 41
0
  0
VERTEX
  8
0
 10
0.383572
 20
14.2272
 30
0.0
 40
0
 41
0
  0
VERTEX
  8
0
 10
0.276313
 20
14.2054
 30
0.0
 40
0
 41
0
  0
VERTEX
  8
0
 10
0.169
 20
14.2272
 30
0.0
 40
0
 41
0
  0
VERTEX
  8
0
 10
0.0814344
 20
14.2862
 30
0.0
 40
0
 41
0
  0
VERTEX
  8
0
 10
0.0223525
 20
14.3738
 30
0.0
 40
0
 41
0
  0
VERTEX
  8
0
 10
0.000705294
 20
14.4811
 30
0.0
 40
0
 41
0
  0
SEQEND
 8
0
  0
POLYLINE
  8
0
 62
     1
 66
     1
 10
0
 20
0
 30
0.0
 70
     1
 40
0
 41
0
  0
VERTEX
  8
0
 10
0.168078
 20
14.4811
 30
0.0
 40
0
 41
0
  0
VERTEX
  8
0
 10
0.17654
 20
14.5232
 30
0.0
 40
0
 41
0
  0
VERTEX
  8
0
 10
0.199761
 20
14.5576
 30
0.0
 40
0
 41
0
  0
VERTEX
  8
0
 10
0.234158
 20
14.5808
 30
0.0
 40
0
 41
0
  0
VERTEX
  8
0
 10
0.276313
 20
14.5893
 30
0.0
 40
0
 41
0
  0
VERTEX
  8
0
 10
0.318414
 20
14.5808
 30
0.0
 40
0
 41
0
  0
VERTEX
  8
0
 10
0.352864
 20
14.5576
 30
0.0
 40
0
 41
0
  0
VERTEX
  8
0
 10
0.376085
 20
14.5232
 30
0.0
 40
0
 41
0
  0
VERTEX
  8
0
 10
0.384603
 20
14.4811
 30
0.0
 40
0
 41
0
  0
VERTEX
  8
0
 10
0.376085
 20
14.439
 30
0.0
 40
0
 41
0
  0
VERTEX
  8
0
 10
0.352864
 20
14.4044
 30
0.0
 40
0
 41
0
  0
VERTEX
  8
0
 10
0.318414
 20
14.3812
 30
0.0
 40
0
 41
0
  0
VERTEX
  8
0
 10
0.276313
 20
14.3728
 30
0.0
 40
0
 41
0
  0
VERTEX
  8
0
 10
0.234158
 20
14.3812
 30
0.0
 40
0
 41
0
  0
VERTEX
  8
0
 10
0.199761
 20
14.4044
 30
0.0
 40
0
 41
0
  0
VERTEX
  8
0
 10
0.17654
 20
14.439
 30
0.0
 40
0
 41
0
  0
VERTEX
  8
0
 10
0.168078
 20
14.4811
 30
0.0
 40
0
 41
0
  0
SEQEND
 8
0
  0
POLYLINE
  8
0
 62
     1
 66
     1
 10
0
 20
0
 30
0.0
 40
0
 41
0
  0
VERTEX
  8
0
 10
8.12571
 20
14.3171
 30
0.0
 40
0
 41
0
  0
VERTEX
  8
0
 10
8.14165
 20
14.4758
 30
0.0
 40
0
 41
0
  0
VERTEX
  8
0
 10
8.18756
 20
14.6236
 30
0.0
 40
0
 41
0
  0
VERTEX
  8
0
 10
8.26014
 20
14.7574
 30
0.0
 40
0
 41
0
  0
VERTEX
  8
0
 10
8.35633
 20
14.8739
 30
0.0
 40
0
 41
0
  0
VERTEX
  8
0
 10
8.47288
 20
14.97
 30
0.0
 40
0
 41
0
  0
VERTEX
  8
0
 10
8.60661
 20
15.0426
 30
0.0
 40
0
 41
0
  0
VERTEX
  8
0
 10
8.75439
 20
15.0886
 30
0.0
 40
0
 41
0
  0
VERTEX
  8
0
 10
8.91314
 20
15.1044
 30
0.0
 40
0
 41
0
  0
VERTEX
  8
0
 10
9.07178
 20
15.0886
 30
0.0
 40
0
 41
0
  0
VERTEX
  8
0
 10
9.21957
 20
15.0426
 30
0.0
 40
0
 41
0
  0
VERTEX
  8
0
 10
9.35335
 20
14.97
 30
0.0
 40
0
 41
0
  0
VERTEX
  8
0
 10
9.46989
 20
14.8739
 30
0.0
 40
0
 41
0
  0
VERTEX
  8
0
 10
9.56603
 20
14.7574
 30
0.0
 40
0
 41
0
  0
VERTEX
  8
0
 10
9.63861
 20
14.6236
 30
0.0
 40
0
 41
0
  0
VERTEX
  8
0
 10
9.68451
 20
14.4758
 30
0.0
 40
0
 41
0
  0
VERTEX
  8
0
 10
9.70053
 20
14.3171
 30
0.0
 40
0
 41
0
  0
SEQEND
 8
0
  0
POLYLINE
  8
0
 62
     1
 66
     1
 10
0
 20
0
 30
0.0
 40
0
 41
0
  0
VERTEX
  8
0
 10
8.12571
 20
10.3801
 30
0.0
 40
0
 41
0
  0
VERTEX
  8
0
 10
8.14165
 20
10.2214
 30
0.0
 40
0
 41
0
  0
VERTEX
  8
0
 10
8.18756
 20
10.0736
 30
0.0
 40
0
 41
0
  0
VERTEX
  8
0
 10
8.26014
 20
9.93989
 30
0.0
 40
0
 41
0
  0
VERTEX
  8
0
 10
8.35633
 20
9.82329
 30
0.0
 40
0
 41
0
  0
VERTEX
  8
0
 10
8.47288
 20
9.72715
 30
0.0
 40
0
 41
0
  0
VERTEX
  8
0
 10
8.60661
 20
9.65457
 30
0.0
 40
0
 41
0
  0
VERTEX
  8
0
 10
8.75439
 20
9.60867
 30
0.0
 40
0
 41
0
  0
VERTEX
  8
0
 10
8.91314
 20
9.59267
 30
0.0
 40
0
 41
0
  0
VERTEX
  8
0
 10
9.07178
 20
9.60867
 30
0.0
 40
0
 41
0
  0
VERTEX
  8
0
 10
9.21957
 20
9.65457
 30
0.0
 40
0
 41
0
  0
VERTEX
  8
0
 10
9.35335
 20
9.72715
 30
0.0
 40
0
 41
0
  0
VERTEX
  8
0
 10
9.46989
 20
9.82329
 30
0.0
 40
0
 41
0
  0
VERTEX
  8
0
 10
9.56603
 20
9.93989
 30
0.0
 40
0
 41
0
  0
VERTEX
  8
0
 10
9.63861
 20
10.0736
 30
0.0
 40
0
 41
0
  0
VERTEX
  8
0
 10
9.68451
 20
10.2214
 30
0.0
 40
0
 41
0
  0
VERTEX
  8
0
 10
9.70053
 20
10.3801
 30
0.0
 40
0
 41
0
  0
SEQEND
 8
0
  0
POLYLINE
  8
0
 62
     1
 66
     1
 10
0
 20
0
 30
0.0
 70
     1
 40
0
 41
0
  0
VERTEX
  8
0
 10
8.80485
 20
14.3171
 30
0.0
 40
0
 41
0
  0
VERTEX
  8
0
 10
8.81332
 20
14.3593
 30
0.0
 40
0
 41
0
  0
VERTEX
  8
0
 10
8.83653
 20
14.3936
 30
0.0
 40
0
 41
0
  0
VERTEX
  8
0
 10
8.87093
 20
14.4169
 30
0.0
 40
0
 41
0
  0
VERTEX
  8
0
 10
8.91314
 20
14.4253
 30
0.0
 40
0
 41
0
  0
VERTEX
  8
0
 10
8.95524
 20
14.4169
 30
0.0
 40
0
 41
0
  0
VERTEX
  8
0
 10
8.98964
 20
14.3936
 30
0.0
 40
0
 41
0
  0
VERTEX
  8
0
 10
9.01286
 20
14.3593
 30
0.0
 40
0
 41
0
  0
VERTEX
  8
0
 10
9.02138
 20
14.3171
 30
0.0
 40
0
 41
0
  0
VERTEX
  8
0
 10
9.01286
 20
14.275
 30
0.0
 40
0
 41
0
  0
VERTEX
  8
0
 10
8.98964
 20
14.2406
 30
0.0
 40
0
 41
0
  0
VERTEX
  8
0
 10
8.95524
 20
14.2174
 30
0.0
 40
0
 41
0
  0
VERTEX
  8
0
 10
8.91314
 20
14.2089
 30
0.0
 40
0
 41
0
  0
VERTEX
  8
0
 10
8.87093
 20
14.2174
 30
0.0
 40
0
 41
0
  0
VERTEX
  8
0
 10
8.83653
 20
14.2406
 30
0.0
 40
0
 41
0
  0
VERTEX
  8
0
 10
8.81332
 20
14.275
 30
0.0
 40
0
 41
0
  0
VERTEX
  8
0
 10
8.80485
 20
14.3171
 30
0.0
 40
0
 41
0
  0
SEQEND
 8
0
  0
POLYLINE
  8
0
 62
     1
 66
     1
 10
0
 20
0
 30
0.0
 70
     1
 40
0
 41
0
  0
VERTEX
  8
0
 10
8.80485
 20
10.3801
 30
0.0
 40
0
 41
0
  0
VERTEX
  8
0
 10
8.81332
 20
10.4222
 30
0.0
 40
0
 41
0
  0
VERTEX
  8
0
 10
8.83653
 20
10.4567
 30
0.0
 40
0
 41
0
  0
VERTEX
  8
0
 10
8.87093
 20
10.4799
 30
0.0
 40
0
 41
0
  0
VERTEX
  8
0
 10
8.91314
 20
10.4883
 30
0.0
 40
0
 41
0
  0
VERTEX
  8
0
 10
8.95524
 20
10.4799
 30
0.0
 40
0
 41
0
  0
VERTEX
  8
0
 10
8.98964
 20
10.4567
 30
0.0
 40
0
 41
0
  0
VERTEX
  8
0
 10
9.01286
 20
10.4222
 30
0.0
 40
0
 41
0
  0
VERTEX
  8
0
 10
9.02138
 20
10.3801
 30
0.0
 40
0
 41
0
  0
VERTEX
  8
0
 10
9.01286
 20
10.338
 30
0.0
 40
0
 41
0
  0
VERTEX
  8
0
 10
8.98964
 20
10.3035
 30
0.0
 40
0
 41
0
  0
VERTEX
  8
0
 10
8.95524
 20
10.2803
 30
0.0
 40
0
 41
0
  0
VERTEX
  8
0
 10
8.91314
 20
10.2718
 30
0.0
 40
0
 41
0
  0
VERTEX
  8
0
 10
8.87093
 20
10.2803
 30
0.0
 40
0
 41
0
  0
VERTEX
  8
0
 10
8.83653
 20
10.3035
 30
0.0
 40
0
 41
0
  0
VERTEX
  8
0
 10
8.81332
 20
10.338
 30
0.0
 40
0
 41
0
  0
VERTEX
  8
0
 10
8.80485
 20
10.3801
 30
0.0
 40
0
 41
0
  0
SEQEND
 8
0
  0
ENDSEC
  0
EOF
