  0
SECTION
  2
HEADER
  9
$ACADVER
  1
AC1014
  9
$HANDSEED
  5
FFFF
  9
$MEASUREMENT
 70
     1
  0
ENDSEC
  0
SECTION
  2
TABLES
  0
TABLE
  2
VPORT
  5
8
330
0
100
AcDbSymbolTable
 70
     4
  0
VPORT
  5
2E
330
8
100
AcDbSymbolTableRecord
100
AcDbViewportTableRecord
  2
*ACTIVE
 70
     0
 10
0.0
 20
0.0
 11
1.0
 21
1.0
 12
210.0
 22
148.5
 13
0.0
 23
0.0
 14
10.0
 24
10.0
 15
10.0
 25
10.0
 16
0.0
 26
0.0
 36
1.0
 17
0.0
 27
0.0
 37
0.0
 40
341.0
 41
1.24
 42
50.0
 43
0.0
 44
0.0
 50
0.0
 51
0.0
 71
     0
 72
   100
 73
     1
 74
     3
 75
     0
 76
     0
 77
     0
 78
     0
  0
ENDTAB
  0
TABLE
  2
LTYPE
  5
5
330
0
100
AcDbSymbolTable
 70
     1
  0
LTYPE
  5
14
330
5
100
AcDbSymbolTableRecord
100
AcDbLinetypeTableRecord
  2
BYBLOCK
 70
     0
  3

 72
    65
 73
     0
 40
0.0
  0
LTYPE
  5
15
330
5
100
AcDbSymbolTableRecord
100
AcDbLinetypeTableRecord
  2
BYLAYER
 70
     0
  3

 72
    65
 73
     0
 40
0.0
  0
LTYPE
  5
16
330
5
100
AcDbSymbolTableRecord
100
AcDbLinetypeTableRecord
  2
CONTINUOUS
 70
     0
  3
Solid line
 72
    65
 73
     0
 40
0.0
  0
ENDTAB
  0
TABLE
  2
LAYER
  5
2
100
AcDbSymbolTable
 70
2
  0
LAYER
  5
50
100
AcDbSymbolTableRecord
100
AcDbLayerTableRecord
  2
0
 70
0
  6
CONTINUOUS
  0
LAYER
  5
51
100
AcDbSymbolTableRecord
100
AcDbLayerTableRecord
  2
Layer_1
 70
0
  6
CONTINUOUS
  0
ENDTAB
  0
TABLE
  2
STYLE
  5
3
330
0
100
AcDbSymbolTable
 70
     1
  0
STYLE
  5
11
330
3
100
AcDbSymbolTableRecord
100
AcDbTextStyleTableRecord
  2
STANDARD
 70
     0
 40
0.0
 41
1.0
 50
0.0
 71
     0
 42
2.5
  3
txt
  4

  0
ENDTAB
  0
TABLE
  2
VIEW
  5
6
330
0
100
AcDbSymbolTable
 70
     0
  0
ENDTAB
  0
TABLE
  2
UCS
  5
7
330
0
100
AcDbSymbolTable
 70
     0
  0
ENDTAB
  0
TABLE
  2
APPID
  5
9
330
0
100
AcDbSymbolTable
 70
     2
  0
APPID
  5
12
330
9
100
AcDbSymbolTableRecord
100
AcDbRegAppTableRecord
  2
ACAD
 70
     0
  0
ENDTAB
  0
TABLE
  2
DIMSTYLE
  5
A
330
0
100
AcDbSymbolTable
 70
     1
  0
DIMSTYLE
105
27
330
A
100
AcDbSymbolTableRecord
100
AcDbDimStyleTableRecord
  2
ISO-25
 70
     0
  3

  4

  5

  6

  7

 40
1.0
 41
2.5
 42
0.625
 43
3.75
 44
1.25
 45
0.0
 46
0.0
 47
0.0
 48
0.0
140
2.5
141
2.5
142
0.0
143
0.03937007874016
144
1.0
145
0.0
146
1.0
147
0.625
 71
     0
 72
     0
 73
     0
 74
     0
 75
     0
 76
     0
 77
     1
 78
     8
170
     0
171
     3
172
     1
173
     0
174
     0
175
     0
176
     0
177
     0
178
     0
270
     2
271
     2
272
     2
273
     2
274
     3
340
11
275
     0
280
     0
281
     0
282
     0
283
     0
284
     8
285
     0
286
     0
287
     3
288
     0
  0
ENDTAB
  0
TABLE
  2
BLOCK_RECORD
  5
1
330
0
100
AcDbSymbolTable
 70
     1
  0
BLOCK_RECORD
  5
1F
330
1
100
AcDbSymbolTableRecord
100
AcDbBlockTableRecord
  2
*MODEL_SPACE
  0
BLOCK_RECORD
  5
1B
330
1
100
AcDbSymbolTableRecord
100
AcDbBlockTableRecord
  2
*PAPER_SPACE
  0
ENDTAB
  0
ENDSEC
  0
SECTION
  2
BLOCKS
  0
BLOCK
  5
20
330
1F
100
AcDbEntity
  8
0
100
AcDbBlockBegin
  2
*MODEL_SPACE
 70
     0
 10
0.0
 20
0.0
 30
0.0
  3
*MODEL_SPACE
  1

  0
ENDBLK
  5
21
330
1F
100
AcDbEntity
  8
0
100
AcDbBlockEnd
  0
BLOCK
  5
1C
330
1B
100
AcDbEntity
 67
     1
  8
0
100
AcDbBlockBegin
  2
*PAPER_SPACE
  1

  0
ENDBLK
  5
1D
330
1B
100
AcDbEntity
 67
     1
  8
0
100
AcDbBlockEnd
  0
ENDSEC
  0
SECTION
  2
ENTITIES
  0
LWPOLYLINE
  5
100
100
AcDbEntity
  8
Layer_1
 62
7
100
AcDbPolyline
 90
3
 70
0
 10
10.582221
 20
207.058681
 30
0.0
 10
10.582221
 20
7.058516
 30
0.0
 10
74.718587
 20
7.058516
 30
0.0
  0
LWPOLYLINE
  5
101
100
AcDbEntity
  8
Layer_1
 62
7
100
AcDbPolyline
 90
2
 70
0
 10
130.582207
 20
207.058681
 30
0.0
 10
10.582221
 20
207.058681
 30
0.0
  0
SPLINE
  5
102
100
AcDbEntity
  8
Layer_1
 62
7
100
AcDbSpline
 70
8
 71
3
 72
8
 73
4
 74
0
 40
0
 40
0
 40
0
 40
0
 40
1
 40
1
 40
1
 40
1
 10
130.582204
 20
207.056843
 30
0.0
 10
139.583952
 20
207.056843
 30
0.0
 10
148.217019
 20
203.480926
 30
0.0
 10
154.582199
 20
197.115727
 30
0.0
  0
SPLINE
  5
103
100
AcDbEntity
  8
Layer_1
 62
7
100
AcDbSpline
 70
8
 71
3
 72
8
 73
4
 74
0
 40
0
 40
0
 40
0
 40
0
 40
1
 40
1
 40
1
 40
1
 10
394.048160
 20
10.057782
 30
0.0
 10
360.491921
 20
10.057782
 30
0.0
 10
328.310034
 20
23.387895
 30
0.0
 10
304.582252
 20
47.115745
 30
0.0
  0
SPLINE
  5
104
100
AcDbEntity
  8
Layer_1
 62
7
100
AcDbSpline
 70
8
 71
3
 72
8
 73
4
 74
0
 40
0
 40
0
 40
0
 40
0
 40
1
 40
1
 40
1
 40
1
 10
394.048138
 20
10.057768
 30
0.0
 10
395.704993
 20
10.057768
 30
0.0
 10
397.048138
 20
8.714623
 30
0.0
 10
397.048138
 20
7.057770
 30
0.0
  0
SPLINE
  5
105
100
AcDbEntity
  8
Layer_1
 62
7
100
AcDbSpline
 70
8
 71
3
 72
8
 73
4
 74
0
 40
0
 40
0
 40
0
 40
0
 40
1
 40
1
 40
1
 40
1
 10
33.332224
 20
197.057772
 30
0.0
 10
33.332224
 20
195.538990
 30
0.0
 10
32.101007
 20
194.307773
 30
0.0
 10
30.582223
 20
194.307773
 30
0.0
  0
SPLINE
  5
106
100
AcDbEntity
  8
Layer_1
 62
7
100
AcDbSpline
 70
8
 71
3
 72
8
 73
4
 74
0
 40
0
 40
0
 40
0
 40
0
 40
1
 40
1
 40
1
 40
1
 10
30.582223
 20
194.307773
 30
0.0
 10
29.063441
 20
194.307773
 30
0.0
 10
27.832224
 20
195.538990
 30
0.0
 10
27.832224
 20
197.057772
 30
0.0
  0
SPLINE
  5
107
100
AcDbEntity
  8
Layer_1
 62
7
100
AcDbSpline
 70
8
 71
3
 72
8
 73
4
 74
0
 40
0
 40
0
 40
0
 40
0
 40
1
 40
1
 40
1
 40
1
 10
27.832224
 20
197.057772
 30
0.0
 10
27.832224
 20
198.576555
 30
0.0
 10
29.063441
 20
199.807773
 30
0.0
 10
30.582223
 20
199.807773
 30
0.0
  0
SPLINE
  5
108
100
AcDbEntity
  8
Layer_1
 62
7
100
AcDbSpline
 70
8
 71
3
 72
8
 73
4
 74
0
 40
0
 40
0
 40
0
 40
0
 40
1
 40
1
 40
1
 40
1
 10
30.582223
 20
199.807773
 30
0.0
 10
32.101007
 20
199.807773
 30
0.0
 10
33.332224
 20
198.576555
 30
0.0
 10
33.332224
 20
197.057772
 30
0.0
  0
LWPOLYLINE
  5
109
100
AcDbEntity
  8
Layer_1
 62
7
100
AcDbPolyline
 90
2
 70
0
 10
154.582227
 20
197.115738
 30
0.0
 10
304.582209
 20
47.115755
 30
0.0
  0
SPLINE
  5
10a
100
AcDbEntity
  8
Layer_1
 62
7
100
AcDbSpline
 70
8
 71
3
 72
8
 73
4
 74
0
 40
0
 40
0
 40
0
 40
0
 40
1
 40
1
 40
1
 40
1
 10
113.332222
 20
197.057772
 30
0.0
 10
113.332222
 20
195.538990
 30
0.0
 10
112.101005
 20
194.307773
 30
0.0
 10
110.582221
 20
194.307773
 30
0.0
  0
SPLINE
  5
10b
100
AcDbEntity
  8
Layer_1
 62
7
100
AcDbSpline
 70
8
 71
3
 72
8
 73
4
 74
0
 40
0
 40
0
 40
0
 40
0
 40
1
 40
1
 40
1
 40
1
 10
110.582221
 20
194.307773
 30
0.0
 10
109.063439
 20
194.307773
 30
0.0
 10
107.832222
 20
195.538990
 30
0.0
 10
107.832222
 20
197.057772
 30
0.0
  0
SPLINE
  5
10c
100
AcDbEntity
  8
Layer_1
 62
7
100
AcDbSpline
 70
8
 71
3
 72
8
 73
4
 74
0
 40
0
 40
0
 40
0
 40
0
 40
1
 40
1
 40
1
 40
1
 10
107.832222
 20
197.057772
 30
0.0
 10
107.832222
 20
198.576555
 30
0.0
 10
109.063439
 20
199.807773
 30
0.0
 10
110.582221
 20
199.807773
 30
0.0
  0
SPLINE
  5
10d
100
AcDbEntity
  8
Layer_1
 62
7
100
AcDbSpline
 70
8
 71
3
 72
8
 73
4
 74
0
 40
0
 40
0
 40
0
 40
0
 40
1
 40
1
 40
1
 40
1
 10
110.582221
 20
199.807773
 30
0.0
 10
112.101005
 20
199.807773
 30
0.0
 10
113.332222
 20
198.576555
 30
0.0
 10
113.332222
 20
197.057772
 30
0.0
  0
LWPOLYLINE
  5
10e
100
AcDbEntity
  8
Layer_1
 62
7
100
AcDbPolyline
 90
2
 70
0
 10
33.332224
 20
197.057772
 30
0.0
 10
33.332224
 20
197.057772
 30
0.0
  0
LWPOLYLINE
  5
10f
100
AcDbEntity
  8
Layer_1
 62
7
100
AcDbPolyline
 90
2
 70
0
 10
113.332222
 20
197.057772
 30
0.0
 10
113.332222
 20
197.057772
 30
0.0
  0
LWPOLYLINE
  5
110
100
AcDbEntity
  8
Layer_1
 62
7
100
AcDbPolyline
 90
2
 70
0
 10
74.718587
 20
7.058516
 30
0.0
 10
74.718587
 20
30.058527
 30
0.0
  0
SPLINE
  5
111
100
AcDbEntity
  8
Layer_1
 62
7
100
AcDbSpline
 70
8
 71
3
 72
8
 73
4
 74
0
 40
0
 40
0
 40
0
 40
0
 40
1
 40
1
 40
1
 40
1
 10
76.718586
 20
32.058506
 30
0.0
 10
76.718586
 20
33.163076
 30
0.0
 10
75.823156
 20
34.058506
 30
0.0
 10
74.718587
 20
34.058506
 30
0.0
  0
SPLINE
  5
112
100
AcDbEntity
  8
Layer_1
 62
7
100
AcDbSpline
 70
8
 71
3
 72
8
 73
4
 74
0
 40
0
 40
0
 40
0
 40
0
 40
1
 40
1
 40
1
 40
1
 10
74.718587
 20
34.058506
 30
0.0
 10
73.614018
 20
34.058506
 30
0.0
 10
72.718587
 20
33.163076
 30
0.0
 10
72.718587
 20
32.058506
 30
0.0
  0
SPLINE
  5
113
100
AcDbEntity
  8
Layer_1
 62
7
100
AcDbSpline
 70
8
 71
3
 72
8
 73
4
 74
0
 40
0
 40
0
 40
0
 40
0
 40
1
 40
1
 40
1
 40
1
 10
72.718587
 20
32.058506
 30
0.0
 10
72.718587
 20
30.953937
 30
0.0
 10
73.614018
 20
30.058505
 30
0.0
 10
74.718587
 20
30.058505
 30
0.0
  0
LWPOLYLINE
  5
114
100
AcDbEntity
  8
Layer_1
 62
7
100
AcDbPolyline
 90
2
 70
0
 10
84.718567
 20
7.058516
 30
0.0
 10
84.718567
 20
30.058527
 30
0.0
  0
SPLINE
  5
115
100
AcDbEntity
  8
Layer_1
 62
7
100
AcDbSpline
 70
8
 71
3
 72
8
 73
4
 74
0
 40
0
 40
0
 40
0
 40
0
 40
1
 40
1
 40
1
 40
1
 10
82.718577
 20
32.058506
 30
0.0
 10
82.718577
 20
33.163076
 30
0.0
 10
83.614007
 20
34.058506
 30
0.0
 10
84.718576
 20
34.058506
 30
0.0
  0
SPLINE
  5
116
100
AcDbEntity
  8
Layer_1
 62
7
100
AcDbSpline
 70
8
 71
3
 72
8
 73
4
 74
0
 40
0
 40
0
 40
0
 40
0
 40
1
 40
1
 40
1
 40
1
 10
84.718576
 20
34.058506
 30
0.0
 10
85.823146
 20
34.058506
 30
0.0
 10
86.718576
 20
33.163076
 30
0.0
 10
86.718576
 20
32.058506
 30
0.0
  0
SPLINE
  5
117
100
AcDbEntity
  8
Layer_1
 62
7
100
AcDbSpline
 70
8
 71
3
 72
8
 73
4
 74
0
 40
0
 40
0
 40
0
 40
0
 40
1
 40
1
 40
1
 40
1
 10
86.718576
 20
32.058506
 30
0.0
 10
86.718576
 20
30.953937
 30
0.0
 10
85.823146
 20
30.058505
 30
0.0
 10
84.718576
 20
30.058505
 30
0.0
  0
LWPOLYLINE
  5
118
100
AcDbEntity
  8
Layer_1
 62
7
100
AcDbPolyline
 90
2
 70
0
 10
74.718587
 20
30.058505
 30
0.0
 10
74.718587
 20
30.058505
 30
0.0
  0
LWPOLYLINE
  5
119
100
AcDbEntity
  8
Layer_1
 62
7
100
AcDbPolyline
 90
2
 70
0
 10
84.718576
 20
30.058505
 30
0.0
 10
84.718576
 20
30.058505
 30
0.0
  0
LWPOLYLINE
  5
11a
100
AcDbEntity
  8
Layer_1
 62
7
100
AcDbPolyline
 90
2
 70
0
 10
82.718571
 20
32.058523
 30
0.0
 10
76.718583
 20
32.058523
 30
0.0
  0
LWPOLYLINE
  5
11b
100
AcDbEntity
  8
Layer_1
 62
7
100
AcDbPolyline
 90
3
 70
0
 10
84.718567
 20
7.058516
 30
0.0
 10
226.183811
 20
7.058516
 30
0.0
 10
226.183811
 20
30.058527
 30
0.0
  0
SPLINE
  5
11c
100
AcDbEntity
  8
Layer_1
 62
7
100
AcDbSpline
 70
8
 71
3
 72
8
 73
4
 74
0
 40
0
 40
0
 40
0
 40
0
 40
1
 40
1
 40
1
 40
1
 10
228.183810
 20
32.058506
 30
0.0
 10
228.183810
 20
33.163076
 30
0.0
 10
227.288380
 20
34.058506
 30
0.0
 10
226.183811
 20
34.058506
 30
0.0
  0
SPLINE
  5
11d
100
AcDbEntity
  8
Layer_1
 62
7
100
AcDbSpline
 70
8
 71
3
 72
8
 73
4
 74
0
 40
0
 40
0
 40
0
 40
0
 40
1
 40
1
 40
1
 40
1
 10
226.183811
 20
34.058506
 30
0.0
 10
225.079241
 20
34.058506
 30
0.0
 10
224.183811
 20
33.163076
 30
0.0
 10
224.183811
 20
32.058506
 30
0.0
  0
SPLINE
  5
11e
100
AcDbEntity
  8
Layer_1
 62
7
100
AcDbSpline
 70
8
 71
3
 72
8
 73
4
 74
0
 40
0
 40
0
 40
0
 40
0
 40
1
 40
1
 40
1
 40
1
 10
224.183811
 20
32.058506
 30
0.0
 10
224.183811
 20
30.953937
 30
0.0
 10
225.079241
 20
30.058505
 30
0.0
 10
226.183811
 20
30.058505
 30
0.0
  0
LWPOLYLINE
  5
11f
100
AcDbEntity
  8
Layer_1
 62
7
100
AcDbPolyline
 90
2
 70
0
 10
236.183791
 20
7.058516
 30
0.0
 10
236.183791
 20
30.058527
 30
0.0
  0
SPLINE
  5
120
100
AcDbEntity
  8
Layer_1
 62
7
100
AcDbSpline
 70
8
 71
3
 72
8
 73
4
 74
0
 40
0
 40
0
 40
0
 40
0
 40
1
 40
1
 40
1
 40
1
 10
234.183800
 20
32.058506
 30
0.0
 10
234.183800
 20
33.163076
 30
0.0
 10
235.079231
 20
34.058506
 30
0.0
 10
236.183799
 20
34.058506
 30
0.0
  0
SPLINE
  5
121
100
AcDbEntity
  8
Layer_1
 62
7
100
AcDbSpline
 70
8
 71
3
 72
8
 73
4
 74
0
 40
0
 40
0
 40
0
 40
0
 40
1
 40
1
 40
1
 40
1
 10
236.183799
 20
34.058506
 30
0.0
 10
237.288369
 20
34.058506
 30
0.0
 10
238.183800
 20
33.163076
 30
0.0
 10
238.183800
 20
32.058506
 30
0.0
  0
SPLINE
  5
122
100
AcDbEntity
  8
Layer_1
 62
7
100
AcDbSpline
 70
8
 71
3
 72
8
 73
4
 74
0
 40
0
 40
0
 40
0
 40
0
 40
1
 40
1
 40
1
 40
1
 10
238.183800
 20
32.058506
 30
0.0
 10
238.183800
 20
30.953937
 30
0.0
 10
237.288369
 20
30.058505
 30
0.0
 10
236.183799
 20
30.058505
 30
0.0
  0
LWPOLYLINE
  5
123
100
AcDbEntity
  8
Layer_1
 62
7
100
AcDbPolyline
 90
2
 70
0
 10
226.183811
 20
30.058505
 30
0.0
 10
226.183811
 20
30.058505
 30
0.0
  0
LWPOLYLINE
  5
124
100
AcDbEntity
  8
Layer_1
 62
7
100
AcDbPolyline
 90
2
 70
0
 10
236.183799
 20
30.058505
 30
0.0
 10
236.183799
 20
30.058505
 30
0.0
  0
LWPOLYLINE
  5
125
100
AcDbEntity
  8
Layer_1
 62
7
100
AcDbPolyline
 90
2
 70
0
 10
234.183795
 20
32.058523
 30
0.0
 10
228.183807
 20
32.058523
 30
0.0
  0
LWPOLYLINE
  5
126
100
AcDbEntity
  8
Layer_1
 62
7
100
AcDbPolyline
 90
2
 70
0
 10
236.183791
 20
7.058516
 30
0.0
 10
397.047099
 20
7.058516
 30
0.0
  0
LWPOLYLINE
  5
127
100
AcDbEntity
  8
Layer_1
 62
7
100
AcDbPolyline
 90
2
 70
0
 10
129.786651
 20
256.351557
 30
0.0
 10
9.786676
 20
256.351557
 30
0.0
  0
SPLINE
  5
128
100
AcDbEntity
  8
Layer_1
 62
7
100
AcDbSpline
 70
8
 71
3
 72
8
 73
4
 74
0
 40
0
 40
0
 40
0
 40
0
 40
1
 40
1
 40
1
 40
1
 10
129.786653
 20
256.349720
 30
0.0
 10
138.788401
 20
256.349720
 30
0.0
 10
147.421467
 20
252.773803
 30
0.0
 10
153.786647
 20
246.408604
 30
0.0
  0
SPLINE
  5
129
100
AcDbEntity
  8
Layer_1
 62
7
100
AcDbSpline
 70
8
 71
3
 72
8
 73
4
 74
0
 40
0
 40
0
 40
0
 40
0
 40
1
 40
1
 40
1
 40
1
 10
393.252603
 20
59.350659
 30
0.0
 10
359.696365
 20
59.350659
 30
0.0
 10
327.514478
 20
72.680772
 30
0.0
 10
303.786696
 20
96.408622
 30
0.0
  0
SPLINE
  5
12a
100
AcDbEntity
  8
Layer_1
 62
7
100
AcDbSpline
 70
8
 71
3
 72
8
 73
4
 74
0
 40
0
 40
0
 40
0
 40
0
 40
1
 40
1
 40
1
 40
1
 10
393.252582
 20
59.350645
 30
0.0
 10
394.909437
 20
59.350645
 30
0.0
 10
396.252582
 20
58.007500
 30
0.0
 10
396.252582
 20
56.350647
 30
0.0
  0
SPLINE
  5
12b
100
AcDbEntity
  8
Layer_1
 62
7
100
AcDbSpline
 70
8
 71
3
 72
8
 73
4
 74
0
 40
0
 40
0
 40
0
 40
0
 40
1
 40
1
 40
1
 40
1
 10
32.536676
 20
246.350648
 30
0.0
 10
32.536676
 20
244.831867
 30
0.0
 10
31.305459
 20
243.600650
 30
0.0
 10
29.786675
 20
243.600650
 30
0.0
  0
SPLINE
  5
12c
100
AcDbEntity
  8
Layer_1
 62
7
100
AcDbSpline
 70
8
 71
3
 72
8
 73
4
 74
0
 40
0
 40
0
 40
0
 40
0
 40
1
 40
1
 40
1
 40
1
 10
29.786675
 20
243.600650
 30
0.0
 10
28.267894
 20
243.600650
 30
0.0
 10
27.036676
 20
244.831867
 30
0.0
 10
27.036676
 20
246.350648
 30
0.0
  0
SPLINE
  5
12d
100
AcDbEntity
  8
Layer_1
 62
7
100
AcDbSpline
 70
8
 71
3
 72
8
 73
4
 74
0
 40
0
 40
0
 40
0
 40
0
 40
1
 40
1
 40
1
 40
1
 10
27.036676
 20
246.350648
 30
0.0
 10
27.036676
 20
247.869432
 30
0.0
 10
28.267894
 20
249.100650
 30
0.0
 10
29.786675
 20
249.100650
 30
0.0
  0
SPLINE
  5
12e
100
AcDbEntity
  8
Layer_1
 62
7
100
AcDbSpline
 70
8
 71
3
 72
8
 73
4
 74
0
 40
0
 40
0
 40
0
 40
0
 40
1
 40
1
 40
1
 40
1
 10
29.786675
 20
249.100650
 30
0.0
 10
31.305459
 20
249.100650
 30
0.0
 10
32.536676
 20
247.869432
 30
0.0
 10
32.536676
 20
246.350648
 30
0.0
  0
LWPOLYLINE
  5
12f
100
AcDbEntity
  8
Layer_1
 62
7
100
AcDbPolyline
 90
2
 70
0
 10
153.786671
 20
246.408615
 30
0.0
 10
303.786653
 20
96.408632
 30
0.0
  0
SPLINE
  5
130
100
AcDbEntity
  8
Layer_1
 62
7
100
AcDbSpline
 70
8
 71
3
 72
8
 73
4
 74
0
 40
0
 40
0
 40
0
 40
0
 40
1
 40
1
 40
1
 40
1
 10
112.536657
 20
246.350648
 30
0.0
 10
112.536657
 20
244.831867
 30
0.0
 10
111.305440
 20
243.600650
 30
0.0
 10
109.786656
 20
243.600650
 30
0.0
  0
SPLINE
  5
131
100
AcDbEntity
  8
Layer_1
 62
7
100
AcDbSpline
 70
8
 71
3
 72
8
 73
4
 74
0
 40
0
 40
0
 40
0
 40
0
 40
1
 40
1
 40
1
 40
1
 10
109.786656
 20
243.600650
 30
0.0
 10
108.267875
 20
243.600650
 30
0.0
 10
107.036658
 20
244.831867
 30
0.0
 10
107.036658
 20
246.350648
 30
0.0
  0
SPLINE
  5
132
100
AcDbEntity
  8
Layer_1
 62
7
100
AcDbSpline
 70
8
 71
3
 72
8
 73
4
 74
0
 40
0
 40
0
 40
0
 40
0
 40
1
 40
1
 40
1
 40
1
 10
107.036658
 20
246.350648
 30
0.0
 10
107.036658
 20
247.869432
 30
0.0
 10
108.267875
 20
249.100650
 30
0.0
 10
109.786656
 20
249.100650
 30
0.0
  0
SPLINE
  5
133
100
AcDbEntity
  8
Layer_1
 62
7
100
AcDbSpline
 70
8
 71
3
 72
8
 73
4
 74
0
 40
0
 40
0
 40
0
 40
0
 40
1
 40
1
 40
1
 40
1
 10
109.786656
 20
249.100650
 30
0.0
 10
111.305440
 20
249.100650
 30
0.0
 10
112.536657
 20
247.869432
 30
0.0
 10
112.536657
 20
246.350648
 30
0.0
  0
LWPOLYLINE
  5
134
100
AcDbEntity
  8
Layer_1
 62
7
100
AcDbPolyline
 90
2
 70
0
 10
32.536676
 20
246.350648
 30
0.0
 10
32.536676
 20
246.350648
 30
0.0
  0
LWPOLYLINE
  5
135
100
AcDbEntity
  8
Layer_1
 62
7
100
AcDbPolyline
 90
2
 70
0
 10
112.536657
 20
246.350648
 30
0.0
 10
112.536657
 20
246.350648
 30
0.0
  0
LWPOLYLINE
  5
136
100
AcDbEntity
  8
Layer_1
 62
7
100
AcDbPolyline
 90
2
 70
0
 10
146.155529
 20
219.987619
 30
0.0
 10
9.786676
 20
219.987619
 30
0.0
  0
LWPOLYLINE
  5
137
100
AcDbEntity
  8
Layer_1
 62
7
100
AcDbPolyline
 90
2
 70
0
 10
146.155529
 20
219.987619
 30
0.0
 10
326.787558
 20
39.355576
 30
0.0
  0
LWPOLYLINE
  5
138
100
AcDbEntity
  8
Layer_1
 62
7
100
AcDbPolyline
 90
2
 70
0
 10
326.787705
 20
39.355547
 30
0.0
 10
396.116667
 20
39.355547
 30
0.0
  0
LWPOLYLINE
  5
139
100
AcDbEntity
  8
Layer_1
 62
7
100
AcDbPolyline
 90
2
 70
0
 10
396.116721
 20
56.400951
 30
0.0
 10
396.116721
 20
39.355547
 30
0.0
  0
LWPOLYLINE
  5
13a
100
AcDbEntity
  8
Layer_1
 62
7
100
AcDbPolyline
 90
2
 70
0
 10
9.786676
 20
256.351557
 30
0.0
 10
9.786676
 20
219.995550
 30
0.0
  0
LWPOLYLINE
  5
13b
100
AcDbEntity
  8
Layer_1
 62
7
100
AcDbPolyline
 90
2
 70
0
 10
147.001157
 20
315.411135
 30
0.0
 10
37.001151
 20
315.411135
 30
0.0
  0
LWPOLYLINE
  5
13c
100
AcDbEntity
  8
Layer_1
 62
7
100
AcDbPolyline
 90
2
 70
0
 10
147.001157
 20
265.411133
 30
0.0
 10
147.001157
 20
315.411135
 30
0.0
  0
LWPOLYLINE
  5
13d
100
AcDbEntity
  8
Layer_1
 62
7
100
AcDbPolyline
 90
2
 70
0
 10
37.001151
 20
265.411133
 30
0.0
 10
37.001151
 20
315.411135
 30
0.0
  0
LWPOLYLINE
  5
13e
100
AcDbEntity
  8
Layer_1
 62
7
100
AcDbPolyline
 90
2
 70
0
 10
97.001144
 20
265.411133
 30
0.0
 10
147.001157
 20
265.411133
 30
0.0
  0
LWPOLYLINE
  5
13f
100
AcDbEntity
  8
Layer_1
 62
7
100
AcDbPolyline
 90
2
 70
0
 10
37.001151
 20
265.411133
 30
0.0
 10
87.001164
 20
265.411133
 30
0.0
  0
LWPOLYLINE
  5
140
100
AcDbEntity
  8
Layer_1
 62
7
100
AcDbPolyline
 90
2
 70
0
 10
97.001144
 20
265.411133
 30
0.0
 10
97.001144
 20
288.411135
 30
0.0
  0
SPLINE
  5
141
100
AcDbEntity
  8
Layer_1
 62
7
100
AcDbSpline
 70
8
 71
3
 72
8
 73
4
 74
0
 40
0
 40
0
 40
0
 40
0
 40
1
 40
1
 40
1
 40
1
 10
95.001145
 20
290.411134
 30
0.0
 10
95.001145
 20
291.515704
 30
0.0
 10
95.896575
 20
292.411134
 30
0.0
 10
97.001144
 20
292.411134
 30
0.0
  0
SPLINE
  5
142
100
AcDbEntity
  8
Layer_1
 62
7
100
AcDbSpline
 70
8
 71
3
 72
8
 73
4
 74
0
 40
0
 40
0
 40
0
 40
0
 40
1
 40
1
 40
1
 40
1
 10
97.001144
 20
292.411134
 30
0.0
 10
98.105714
 20
292.411134
 30
0.0
 10
99.001144
 20
291.515704
 30
0.0
 10
99.001144
 20
290.411134
 30
0.0
  0
SPLINE
  5
143
100
AcDbEntity
  8
Layer_1
 62
7
100
AcDbSpline
 70
8
 71
3
 72
8
 73
4
 74
0
 40
0
 40
0
 40
0
 40
0
 40
1
 40
1
 40
1
 40
1
 10
99.001144
 20
290.411134
 30
0.0
 10
99.001144
 20
289.306566
 30
0.0
 10
98.105714
 20
288.411134
 30
0.0
 10
97.001144
 20
288.411134
 30
0.0
  0
LWPOLYLINE
  5
144
100
AcDbEntity
  8
Layer_1
 62
7
100
AcDbPolyline
 90
2
 70
0
 10
87.001164
 20
265.411133
 30
0.0
 10
87.001164
 20
288.411135
 30
0.0
  0
SPLINE
  5
145
100
AcDbEntity
  8
Layer_1
 62
7
100
AcDbSpline
 70
8
 71
3
 72
8
 73
4
 74
0
 40
0
 40
0
 40
0
 40
0
 40
1
 40
1
 40
1
 40
1
 10
89.001154
 20
290.411134
 30
0.0
 10
89.001154
 20
291.515704
 30
0.0
 10
88.105724
 20
292.411134
 30
0.0
 10
87.001155
 20
292.411134
 30
0.0
  0
SPLINE
  5
146
100
AcDbEntity
  8
Layer_1
 62
7
100
AcDbSpline
 70
8
 71
3
 72
8
 73
4
 74
0
 40
0
 40
0
 40
0
 40
0
 40
1
 40
1
 40
1
 40
1
 10
87.001155
 20
292.411134
 30
0.0
 10
85.896585
 20
292.411134
 30
0.0
 10
85.001155
 20
291.515704
 30
0.0
 10
85.001155
 20
290.411134
 30
0.0
  0
SPLINE
  5
147
100
AcDbEntity
  8
Layer_1
 62
7
100
AcDbSpline
 70
8
 71
3
 72
8
 73
4
 74
0
 40
0
 40
0
 40
0
 40
0
 40
1
 40
1
 40
1
 40
1
 10
85.001155
 20
290.411134
 30
0.0
 10
85.001155
 20
289.306566
 30
0.0
 10
85.896585
 20
288.411134
 30
0.0
 10
87.001155
 20
288.411134
 30
0.0
  0
LWPOLYLINE
  5
148
100
AcDbEntity
  8
Layer_1
 62
7
100
AcDbPolyline
 90
2
 70
0
 10
97.001144
 20
288.411134
 30
0.0
 10
97.001144
 20
288.411134
 30
0.0
  0
LWPOLYLINE
  5
149
100
AcDbEntity
  8
Layer_1
 62
7
100
AcDbPolyline
 90
2
 70
0
 10
87.001155
 20
288.411134
 30
0.0
 10
87.001155
 20
288.411134
 30
0.0
  0
SPLINE
  5
14a
100
AcDbEntity
  8
Layer_1
 62
7
100
AcDbSpline
 70
8
 71
3
 72
8
 73
4
 74
0
 40
0
 40
0
 40
0
 40
0
 40
1
 40
1
 40
1
 40
1
 10
117.744772
 20
292.017704
 30
0.0
 10
117.744772
 20
293.536485
 30
0.0
 10
118.975989
 20
294.767703
 30
0.0
 10
120.494773
 20
294.767703
 30
0.0
  0
SPLINE
  5
14b
100
AcDbEntity
  8
Layer_1
 62
7
100
AcDbSpline
 70
8
 71
3
 72
8
 73
4
 74
0
 40
0
 40
0
 40
0
 40
0
 40
1
 40
1
 40
1
 40
1
 10
120.494773
 20
294.767703
 30
0.0
 10
122.013555
 20
294.767703
 30
0.0
 10
123.244772
 20
293.536485
 30
0.0
 10
123.244772
 20
292.017704
 30
0.0
  0
SPLINE
  5
14c
100
AcDbEntity
  8
Layer_1
 62
7
100
AcDbSpline
 70
8
 71
3
 72
8
 73
4
 74
0
 40
0
 40
0
 40
0
 40
0
 40
1
 40
1
 40
1
 40
1
 10
123.244772
 20
292.017704
 30
0.0
 10
123.244772
 20
290.498920
 30
0.0
 10
122.013555
 20
289.267703
 30
0.0
 10
120.494773
 20
289.267703
 30
0.0
  0
SPLINE
  5
14d
100
AcDbEntity
  8
Layer_1
 62
7
100
AcDbSpline
 70
8
 71
3
 72
8
 73
4
 74
0
 40
0
 40
0
 40
0
 40
0
 40
1
 40
1
 40
1
 40
1
 10
120.494773
 20
289.267703
 30
0.0
 10
118.975989
 20
289.267703
 30
0.0
 10
117.744772
 20
290.498920
 30
0.0
 10
117.744772
 20
292.017704
 30
0.0
  0
LWPOLYLINE
  5
14e
100
AcDbEntity
  8
Layer_1
 62
7
100
AcDbPolyline
 90
2
 70
0
 10
89.001160
 20
290.411134
 30
0.0
 10
95.001148
 20
290.411134
 30
0.0
  0
SPLINE
  5
14f
100
AcDbEntity
  8
Layer_1
 62
7
100
AcDbSpline
 70
8
 71
3
 72
8
 73
4
 74
0
 40
0
 40
0
 40
0
 40
0
 40
1
 40
1
 40
1
 40
1
 10
57.913661
 20
293.711037
 30
0.0
 10
57.913661
 20
295.229819
 30
0.0
 10
59.144878
 20
296.461036
 30
0.0
 10
60.663662
 20
296.461036
 30
0.0
  0
SPLINE
  5
150
100
AcDbEntity
  8
Layer_1
 62
7
100
AcDbSpline
 70
8
 71
3
 72
8
 73
4
 74
0
 40
0
 40
0
 40
0
 40
0
 40
1
 40
1
 40
1
 40
1
 10
60.663662
 20
296.461036
 30
0.0
 10
62.182443
 20
296.461036
 30
0.0
 10
63.413661
 20
295.229819
 30
0.0
 10
63.413661
 20
293.711037
 30
0.0
  0
SPLINE
  5
151
100
AcDbEntity
  8
Layer_1
 62
7
100
AcDbSpline
 70
8
 71
3
 72
8
 73
4
 74
0
 40
0
 40
0
 40
0
 40
0
 40
1
 40
1
 40
1
 40
1
 10
63.413661
 20
293.711037
 30
0.0
 10
63.413661
 20
292.192254
 30
0.0
 10
62.182443
 20
290.961036
 30
0.0
 10
60.663662
 20
290.961036
 30
0.0
  0
SPLINE
  5
152
100
AcDbEntity
  8
Layer_1
 62
7
100
AcDbSpline
 70
8
 71
3
 72
8
 73
4
 74
0
 40
0
 40
0
 40
0
 40
0
 40
1
 40
1
 40
1
 40
1
 10
60.663662
 20
290.961036
 30
0.0
 10
59.144878
 20
290.961036
 30
0.0
 10
57.913661
 20
292.192254
 30
0.0
 10
57.913661
 20
293.711037
 30
0.0
  0
LWPOLYLINE
  5
153
100
AcDbEntity
  8
Layer_1
 62
7
100
AcDbPolyline
 90
2
 70
0
 10
117.744772
 20
292.017704
 30
0.0
 10
117.744772
 20
292.017704
 30
0.0
  0
LWPOLYLINE
  5
154
100
AcDbEntity
  8
Layer_1
 62
7
100
AcDbPolyline
 90
2
 70
0
 10
57.913661
 20
293.711037
 30
0.0
 10
57.913661
 20
293.711037
 30
0.0
  0
LWPOLYLINE
  5
155
100
AcDbEntity
  8
Layer_1
 62
7
100
AcDbPolyline
 90
2
 70
0
 10
145.345444
 20
386.524616
 30
0.0
 10
35.345438
 20
386.524616
 30
0.0
  0
LWPOLYLINE
  5
156
100
AcDbEntity
  8
Layer_1
 62
7
100
AcDbPolyline
 90
2
 70
0
 10
145.345444
 20
336.524614
 30
0.0
 10
145.345444
 20
386.524616
 30
0.0
  0
LWPOLYLINE
  5
157
100
AcDbEntity
  8
Layer_1
 62
7
100
AcDbPolyline
 90
2
 70
0
 10
35.345438
 20
336.524614
 30
0.0
 10
35.345438
 20
386.524616
 30
0.0
  0
LWPOLYLINE
  5
158
100
AcDbEntity
  8
Layer_1
 62
7
100
AcDbPolyline
 90
2
 70
0
 10
95.345431
 20
336.524614
 30
0.0
 10
145.345444
 20
336.524614
 30
0.0
  0
LWPOLYLINE
  5
159
100
AcDbEntity
  8
Layer_1
 62
7
100
AcDbPolyline
 90
2
 70
0
 10
35.345438
 20
336.524614
 30
0.0
 10
85.345451
 20
336.524614
 30
0.0
  0
LWPOLYLINE
  5
15a
100
AcDbEntity
  8
Layer_1
 62
7
100
AcDbPolyline
 90
2
 70
0
 10
95.345431
 20
336.524614
 30
0.0
 10
95.345431
 20
359.524616
 30
0.0
  0
SPLINE
  5
15b
100
AcDbEntity
  8
Layer_1
 62
7
100
AcDbSpline
 70
8
 71
3
 72
8
 73
4
 74
0
 40
0
 40
0
 40
0
 40
0
 40
1
 40
1
 40
1
 40
1
 10
93.345432
 20
361.524615
 30
0.0
 10
93.345432
 20
362.629185
 30
0.0
 10
94.240862
 20
363.524615
 30
0.0
 10
95.345431
 20
363.524615
 30
0.0
  0
SPLINE
  5
15c
100
AcDbEntity
  8
Layer_1
 62
7
100
AcDbSpline
 70
8
 71
3
 72
8
 73
4
 74
0
 40
0
 40
0
 40
0
 40
0
 40
1
 40
1
 40
1
 40
1
 10
95.345431
 20
363.524615
 30
0.0
 10
96.450000
 20
363.524615
 30
0.0
 10
97.345431
 20
362.629185
 30
0.0
 10
97.345431
 20
361.524615
 30
0.0
  0
SPLINE
  5
15d
100
AcDbEntity
  8
Layer_1
 62
7
100
AcDbSpline
 70
8
 71
3
 72
8
 73
4
 74
0
 40
0
 40
0
 40
0
 40
0
 40
1
 40
1
 40
1
 40
1
 10
97.345431
 20
361.524615
 30
0.0
 10
97.345431
 20
360.420046
 30
0.0
 10
96.450000
 20
359.524615
 30
0.0
 10
95.345431
 20
359.524615
 30
0.0
  0
LWPOLYLINE
  5
15e
100
AcDbEntity
  8
Layer_1
 62
7
100
AcDbPolyline
 90
2
 70
0
 10
85.345451
 20
336.524614
 30
0.0
 10
85.345451
 20
359.524616
 30
0.0
  0
SPLINE
  5
15f
100
AcDbEntity
  8
Layer_1
 62
7
100
AcDbSpline
 70
8
 71
3
 72
8
 73
4
 74
0
 40
0
 40
0
 40
0
 40
0
 40
1
 40
1
 40
1
 40
1
 10
87.345441
 20
361.524615
 30
0.0
 10
87.345441
 20
362.629185
 30
0.0
 10
86.450011
 20
363.524615
 30
0.0
 10
85.345442
 20
363.524615
 30
0.0
  0
SPLINE
  5
160
100
AcDbEntity
  8
Layer_1
 62
7
100
AcDbSpline
 70
8
 71
3
 72
8
 73
4
 74
0
 40
0
 40
0
 40
0
 40
0
 40
1
 40
1
 40
1
 40
1
 10
85.345442
 20
363.524615
 30
0.0
 10
84.240872
 20
363.524615
 30
0.0
 10
83.345442
 20
362.629185
 30
0.0
 10
83.345442
 20
361.524615
 30
0.0
  0
SPLINE
  5
161
100
AcDbEntity
  8
Layer_1
 62
7
100
AcDbSpline
 70
8
 71
3
 72
8
 73
4
 74
0
 40
0
 40
0
 40
0
 40
0
 40
1
 40
1
 40
1
 40
1
 10
83.345442
 20
361.524615
 30
0.0
 10
83.345442
 20
360.420046
 30
0.0
 10
84.240872
 20
359.524615
 30
0.0
 10
85.345442
 20
359.524615
 30
0.0
  0
LWPOLYLINE
  5
162
100
AcDbEntity
  8
Layer_1
 62
7
100
AcDbPolyline
 90
2
 70
0
 10
95.345431
 20
359.524615
 30
0.0
 10
95.345431
 20
359.524615
 30
0.0
  0
LWPOLYLINE
  5
163
100
AcDbEntity
  8
Layer_1
 62
7
100
AcDbPolyline
 90
2
 70
0
 10
85.345442
 20
359.524615
 30
0.0
 10
85.345442
 20
359.524615
 30
0.0
  0
SPLINE
  5
164
100
AcDbEntity
  8
Layer_1
 62
7
100
AcDbSpline
 70
8
 71
3
 72
8
 73
4
 74
0
 40
0
 40
0
 40
0
 40
0
 40
1
 40
1
 40
1
 40
1
 10
116.089059
 20
363.131185
 30
0.0
 10
116.089059
 20
364.649966
 30
0.0
 10
117.320276
 20
365.881183
 30
0.0
 10
118.839060
 20
365.881183
 30
0.0
  0
SPLINE
  5
165
100
AcDbEntity
  8
Layer_1
 62
7
100
AcDbSpline
 70
8
 71
3
 72
8
 73
4
 74
0
 40
0
 40
0
 40
0
 40
0
 40
1
 40
1
 40
1
 40
1
 10
118.839060
 20
365.881183
 30
0.0
 10
120.357841
 20
365.881183
 30
0.0
 10
121.589059
 20
364.649966
 30
0.0
 10
121.589059
 20
363.131185
 30
0.0
  0
SPLINE
  5
166
100
AcDbEntity
  8
Layer_1
 62
7
100
AcDbSpline
 70
8
 71
3
 72
8
 73
4
 74
0
 40
0
 40
0
 40
0
 40
0
 40
1
 40
1
 40
1
 40
1
 10
121.589059
 20
363.131185
 30
0.0
 10
121.589059
 20
361.612401
 30
0.0
 10
120.357841
 20
360.381184
 30
0.0
 10
118.839060
 20
360.381184
 30
0.0
  0
SPLINE
  5
167
100
AcDbEntity
  8
Layer_1
 62
7
100
AcDbSpline
 70
8
 71
3
 72
8
 73
4
 74
0
 40
0
 40
0
 40
0
 40
0
 40
1
 40
1
 40
1
 40
1
 10
118.839060
 20
360.381184
 30
0.0
 10
117.320276
 20
360.381184
 30
0.0
 10
116.089059
 20
361.612401
 30
0.0
 10
116.089059
 20
363.131185
 30
0.0
  0
LWPOLYLINE
  5
168
100
AcDbEntity
  8
Layer_1
 62
7
100
AcDbPolyline
 90
2
 70
0
 10
87.345447
 20
361.524615
 30
0.0
 10
93.345435
 20
361.524615
 30
0.0
  0
SPLINE
  5
169
100
AcDbEntity
  8
Layer_1
 62
7
100
AcDbSpline
 70
8
 71
3
 72
8
 73
4
 74
0
 40
0
 40
0
 40
0
 40
0
 40
1
 40
1
 40
1
 40
1
 10
56.257948
 20
364.824518
 30
0.0
 10
56.257948
 20
366.343299
 30
0.0
 10
57.489165
 20
367.574517
 30
0.0
 10
59.007949
 20
367.574517
 30
0.0
  0
SPLINE
  5
16a
100
AcDbEntity
  8
Layer_1
 62
7
100
AcDbSpline
 70
8
 71
3
 72
8
 73
4
 74
0
 40
0
 40
0
 40
0
 40
0
 40
1
 40
1
 40
1
 40
1
 10
59.007949
 20
367.574517
 30
0.0
 10
60.526730
 20
367.574517
 30
0.0
 10
61.757947
 20
366.343299
 30
0.0
 10
61.757947
 20
364.824518
 30
0.0
  0
SPLINE
  5
16b
100
AcDbEntity
  8
Layer_1
 62
7
100
AcDbSpline
 70
8
 71
3
 72
8
 73
4
 74
0
 40
0
 40
0
 40
0
 40
0
 40
1
 40
1
 40
1
 40
1
 10
61.757947
 20
364.824518
 30
0.0
 10
61.757947
 20
363.305734
 30
0.0
 10
60.526730
 20
362.074517
 30
0.0
 10
59.007949
 20
362.074517
 30
0.0
  0
SPLINE
  5
16c
100
AcDbEntity
  8
Layer_1
 62
7
100
AcDbSpline
 70
8
 71
3
 72
8
 73
4
 74
0
 40
0
 40
0
 40
0
 40
0
 40
1
 40
1
 40
1
 40
1
 10
59.007949
 20
362.074517
 30
0.0
 10
57.489165
 20
362.074517
 30
0.0
 10
56.257948
 20
363.305734
 30
0.0
 10
56.257948
 20
364.824518
 30
0.0
  0
LWPOLYLINE
  5
16d
100
AcDbEntity
  8
Layer_1
 62
7
100
AcDbPolyline
 90
2
 70
0
 10
116.089059
 20
363.131185
 30
0.0
 10
116.089059
 20
363.131185
 30
0.0
  0
SPLINE
  5
16e
100
AcDbEntity
  8
Layer_1
 62
7
100
AcDbSpline
 70
8
 71
3
 72
8
 73
4
 74
0
 40
0
 40
0
 40
0
 40
0
 40
1
 40
1
 40
1
 40
1
 10
8.222229
 20
311.535204
 30
0.0
 10
8.222229
 20
315.401198
 30
0.0
 10
11.356235
 20
318.535204
 30
0.0
 10
15.222226
 20
318.535204
 30
0.0
  0
SPLINE
  5
16f
100
AcDbEntity
  8
Layer_1
 62
7
100
AcDbSpline
 70
8
 71
3
 72
8
 73
4
 74
0
 40
0
 40
0
 40
0
 40
0
 40
1
 40
1
 40
1
 40
1
 10
15.222226
 20
318.535204
 30
0.0
 10
19.088220
 20
318.535204
 30
0.0
 10
22.222226
 20
315.401198
 30
0.0
 10
22.222226
 20
311.535204
 30
0.0
  0
SPLINE
  5
170
100
AcDbEntity
  8
Layer_1
 62
7
100
AcDbSpline
 70
8
 71
3
 72
8
 73
4
 74
0
 40
0
 40
0
 40
0
 40
0
 40
1
 40
1
 40
1
 40
1
 10
22.222226
 20
311.535204
 30
0.0
 10
22.222226
 20
307.669213
 30
0.0
 10
19.088220
 20
304.535204
 30
0.0
 10
15.222226
 20
304.535204
 30
0.0
  0
SPLINE
  5
171
100
AcDbEntity
  8
Layer_1
 62
7
100
AcDbSpline
 70
8
 71
3
 72
8
 73
4
 74
0
 40
0
 40
0
 40
0
 40
0
 40
1
 40
1
 40
1
 40
1
 10
15.222226
 20
304.535204
 30
0.0
 10
11.356235
 20
304.535204
 30
0.0
 10
8.222229
 20
307.669213
 30
0.0
 10
8.222229
 20
311.535204
 30
0.0
  0
LWPOLYLINE
  5
172
100
AcDbEntity
  8
Layer_1
 62
7
100
AcDbPolyline
 90
2
 70
0
 10
56.257948
 20
364.824518
 30
0.0
 10
56.257948
 20
364.824518
 30
0.0
  0
SPLINE
  5
173
100
AcDbEntity
  8
Layer_1
 62
7
100
AcDbSpline
 70
8
 71
3
 72
8
 73
4
 74
0
 40
0
 40
0
 40
0
 40
0
 40
1
 40
1
 40
1
 40
1
 10
12.472226
 20
311.535205
 30
0.0
 10
12.472226
 20
313.053986
 30
0.0
 10
13.703443
 20
314.285203
 30
0.0
 10
15.222227
 20
314.285203
 30
0.0
  0
SPLINE
  5
174
100
AcDbEntity
  8
Layer_1
 62
7
100
AcDbSpline
 70
8
 71
3
 72
8
 73
4
 74
0
 40
0
 40
0
 40
0
 40
0
 40
1
 40
1
 40
1
 40
1
 10
15.222227
 20
314.285203
 30
0.0
 10
16.741008
 20
314.285203
 30
0.0
 10
17.972225
 20
313.053986
 30
0.0
 10
17.972225
 20
311.535205
 30
0.0
  0
SPLINE
  5
175
100
AcDbEntity
  8
Layer_1
 62
7
100
AcDbSpline
 70
8
 71
3
 72
8
 73
4
 74
0
 40
0
 40
0
 40
0
 40
0
 40
1
 40
1
 40
1
 40
1
 10
17.972225
 20
311.535205
 30
0.0
 10
17.972225
 20
310.016421
 30
0.0
 10
16.741008
 20
308.785204
 30
0.0
 10
15.222227
 20
308.785204
 30
0.0
  0
SPLINE
  5
176
100
AcDbEntity
  8
Layer_1
 62
7
100
AcDbSpline
 70
8
 71
3
 72
8
 73
4
 74
0
 40
0
 40
0
 40
0
 40
0
 40
1
 40
1
 40
1
 40
1
 10
15.222227
 20
308.785204
 30
0.0
 10
13.703443
 20
308.785204
 30
0.0
 10
12.472226
 20
310.016421
 30
0.0
 10
12.472226
 20
311.535205
 30
0.0
  0
LWPOLYLINE
  5
177
100
AcDbEntity
  8
Layer_1
 62
7
100
AcDbPolyline
 90
2
 70
0
 10
8.222229
 20
311.535204
 30
0.0
 10
8.222229
 20
311.535204
 30
0.0
  0
LWPOLYLINE
  5
178
100
AcDbEntity
  8
Layer_1
 62
7
100
AcDbPolyline
 90
2
 70
0
 10
12.472226
 20
311.535205
 30
0.0
 10
12.472226
 20
311.535205
 30
0.0
  0
LWPOLYLINE
  5
179
100
AcDbEntity
  8
Layer_1
 62
7
100
AcDbPolyline
 90
2
 70
0
 10
194.165742
 20
270.697771
 30
0.0
 10
194.165742
 20
370.697771
 30
0.0
  0
SPLINE
  5
17a
100
AcDbEntity
  8
Layer_1
 62
7
100
AcDbSpline
 70
8
 71
3
 72
8
 73
4
 74
0
 40
0
 40
0
 40
0
 40
0
 40
1
 40
1
 40
1
 40
1
 10
164.165726
 20
370.697769
 30
0.0
 10
164.165726
 20
381.743468
 30
0.0
 10
173.120029
 20
390.697771
 30
0.0
 10
184.165717
 20
390.697771
 30
0.0
  0
SPLINE
  5
17b
100
AcDbEntity
  8
Layer_1
 62
7
100
AcDbSpline
 70
8
 71
3
 72
8
 73
4
 74
0
 40
0
 40
0
 40
0
 40
0
 40
1
 40
1
 40
1
 40
1
 10
184.165717
 20
390.697771
 30
0.0
 10
195.211415
 20
390.697771
 30
0.0
 10
204.165718
 20
381.743468
 30
0.0
 10
204.165718
 20
370.697769
 30
0.0
  0
LWPOLYLINE
  5
17c
100
AcDbEntity
  8
Layer_1
 62
7
100
AcDbPolyline
 90
2
 70
0
 10
174.165726
 20
270.697771
 30
0.0
 10
174.165726
 20
370.697771
 30
0.0
  0
LWPOLYLINE
  5
17d
100
AcDbEntity
  8
Layer_1
 62
7
100
AcDbPolyline
 90
2
 70
0
 10
204.165718
 20
370.697769
 30
0.0
 10
204.165718
 20
370.697769
 30
0.0
  0
LWPOLYLINE
  5
17e
100
AcDbEntity
  8
Layer_1
 62
7
100
AcDbPolyline
 90
2
 70
0
 10
194.165742
 20
370.697771
 30
0.0
 10
204.165722
 20
370.697771
 30
0.0
  0
SPLINE
  5
17f
100
AcDbEntity
  8
Layer_1
 62
7
100
AcDbSpline
 70
8
 71
3
 72
8
 73
4
 74
0
 40
0
 40
0
 40
0
 40
0
 40
1
 40
1
 40
1
 40
1
 10
164.165726
 20
270.697781
 30
0.0
 10
164.165726
 20
259.652083
 30
0.0
 10
173.120029
 20
250.697779
 30
0.0
 10
184.165717
 20
250.697779
 30
0.0
  0
SPLINE
  5
180
100
AcDbEntity
  8
Layer_1
 62
7
100
AcDbSpline
 70
8
 71
3
 72
8
 73
4
 74
0
 40
0
 40
0
 40
0
 40
0
 40
1
 40
1
 40
1
 40
1
 10
184.165717
 20
250.697779
 30
0.0
 10
195.211415
 20
250.697779
 30
0.0
 10
204.165718
 20
259.652083
 30
0.0
 10
204.165718
 20
270.697781
 30
0.0
  0
LWPOLYLINE
  5
181
100
AcDbEntity
  8
Layer_1
 62
7
100
AcDbPolyline
 90
2
 70
0
 10
164.165746
 20
370.697771
 30
0.0
 10
174.165726
 20
370.697771
 30
0.0
  0
LWPOLYLINE
  5
182
100
AcDbEntity
  8
Layer_1
 62
7
100
AcDbPolyline
 90
2
 70
0
 10
204.165718
 20
270.697781
 30
0.0
 10
204.165718
 20
270.697781
 30
0.0
  0
LWPOLYLINE
  5
183
100
AcDbEntity
  8
Layer_1
 62
7
100
AcDbPolyline
 90
2
 70
0
 10
194.165742
 20
270.697779
 30
0.0
 10
204.165722
 20
270.697779
 30
0.0
  0
SPLINE
  5
184
100
AcDbEntity
  8
Layer_1
 62
7
100
AcDbSpline
 70
8
 71
3
 72
8
 73
4
 74
0
 40
0
 40
0
 40
0
 40
0
 40
1
 40
1
 40
1
 40
1
 10
181.415723
 20
370.697772
 30
0.0
 10
181.415723
 20
372.216553
 30
0.0
 10
182.646940
 20
373.447770
 30
0.0
 10
184.165724
 20
373.447770
 30
0.0
  0
SPLINE
  5
185
100
AcDbEntity
  8
Layer_1
 62
7
100
AcDbSpline
 70
8
 71
3
 72
8
 73
4
 74
0
 40
0
 40
0
 40
0
 40
0
 40
1
 40
1
 40
1
 40
1
 10
184.165724
 20
373.447770
 30
0.0
 10
185.684505
 20
373.447770
 30
0.0
 10
186.915722
 20
372.216553
 30
0.0
 10
186.915722
 20
370.697772
 30
0.0
  0
SPLINE
  5
186
100
AcDbEntity
  8
Layer_1
 62
7
100
AcDbSpline
 70
8
 71
3
 72
8
 73
4
 74
0
 40
0
 40
0
 40
0
 40
0
 40
1
 40
1
 40
1
 40
1
 10
186.915722
 20
370.697772
 30
0.0
 10
186.915722
 20
369.178988
 30
0.0
 10
185.684505
 20
367.947771
 30
0.0
 10
184.165724
 20
367.947771
 30
0.0
  0
SPLINE
  5
187
100
AcDbEntity
  8
Layer_1
 62
7
100
AcDbSpline
 70
8
 71
3
 72
8
 73
4
 74
0
 40
0
 40
0
 40
0
 40
0
 40
1
 40
1
 40
1
 40
1
 10
184.165724
 20
367.947771
 30
0.0
 10
182.646940
 20
367.947771
 30
0.0
 10
181.415723
 20
369.178988
 30
0.0
 10
181.415723
 20
370.697772
 30
0.0
  0
LWPOLYLINE
  5
188
100
AcDbEntity
  8
Layer_1
 62
7
100
AcDbPolyline
 90
2
 70
0
 10
164.165746
 20
270.697779
 30
0.0
 10
174.165726
 20
270.697779
 30
0.0
  0
SPLINE
  5
189
100
AcDbEntity
  8
Layer_1
 62
7
100
AcDbSpline
 70
8
 71
3
 72
8
 73
4
 74
0
 40
0
 40
0
 40
0
 40
0
 40
1
 40
1
 40
1
 40
1
 10
181.415723
 20
270.697771
 30
0.0
 10
181.415723
 20
272.216553
 30
0.0
 10
182.646940
 20
273.447770
 30
0.0
 10
184.165724
 20
273.447770
 30
0.0
  0
SPLINE
  5
18a
100
AcDbEntity
  8
Layer_1
 62
7
100
AcDbSpline
 70
8
 71
3
 72
8
 73
4
 74
0
 40
0
 40
0
 40
0
 40
0
 40
1
 40
1
 40
1
 40
1
 10
184.165724
 20
273.447770
 30
0.0
 10
185.684505
 20
273.447770
 30
0.0
 10
186.915722
 20
272.216553
 30
0.0
 10
186.915722
 20
270.697771
 30
0.0
  0
SPLINE
  5
18b
100
AcDbEntity
  8
Layer_1
 62
7
100
AcDbSpline
 70
8
 71
3
 72
8
 73
4
 74
0
 40
0
 40
0
 40
0
 40
0
 40
1
 40
1
 40
1
 40
1
 10
186.915722
 20
270.697771
 30
0.0
 10
186.915722
 20
269.178987
 30
0.0
 10
185.684505
 20
267.947770
 30
0.0
 10
184.165724
 20
267.947770
 30
0.0
  0
SPLINE
  5
18c
100
AcDbEntity
  8
Layer_1
 62
7
100
AcDbSpline
 70
8
 71
3
 72
8
 73
4
 74
0
 40
0
 40
0
 40
0
 40
0
 40
1
 40
1
 40
1
 40
1
 10
184.165724
 20
267.947770
 30
0.0
 10
182.646940
 20
267.947770
 30
0.0
 10
181.415723
 20
269.178987
 30
0.0
 10
181.415723
 20
270.697771
 30
0.0
  0
LWPOLYLINE
  5
18d
100
AcDbEntity
  8
Layer_1
 62
7
100
AcDbPolyline
 90
2
 70
0
 10
181.415723
 20
370.697772
 30
0.0
 10
181.415723
 20
370.697772
 30
0.0
  0
SPLINE
  5
18e
100
AcDbEntity
  8
Layer_1
 62
7
100
AcDbSpline
 70
8
 71
3
 72
8
 73
4
 74
0
 40
0
 40
0
 40
0
 40
0
 40
1
 40
1
 40
1
 40
1
 10
8.222229
 20
279.871480
 30
0.0
 10
8.222229
 20
283.737474
 30
0.0
 10
11.356235
 20
286.871480
 30
0.0
 10
15.222226
 20
286.871480
 30
0.0
  0
SPLINE
  5
18f
100
AcDbEntity
  8
Layer_1
 62
7
100
AcDbSpline
 70
8
 71
3
 72
8
 73
4
 74
0
 40
0
 40
0
 40
0
 40
0
 40
1
 40
1
 40
1
 40
1
 10
15.222226
 20
286.871480
 30
0.0
 10
19.088220
 20
286.871480
 30
0.0
 10
22.222226
 20
283.737474
 30
0.0
 10
22.222226
 20
279.871480
 30
0.0
  0
SPLINE
  5
190
100
AcDbEntity
  8
Layer_1
 62
7
100
AcDbSpline
 70
8
 71
3
 72
8
 73
4
 74
0
 40
0
 40
0
 40
0
 40
0
 40
1
 40
1
 40
1
 40
1
 10
22.222226
 20
279.871480
 30
0.0
 10
22.222226
 20
276.005489
 30
0.0
 10
19.088220
 20
272.871479
 30
0.0
 10
15.222226
 20
272.871479
 30
0.0
  0
SPLINE
  5
191
100
AcDbEntity
  8
Layer_1
 62
7
100
AcDbSpline
 70
8
 71
3
 72
8
 73
4
 74
0
 40
0
 40
0
 40
0
 40
0
 40
1
 40
1
 40
1
 40
1
 10
15.222226
 20
272.871479
 30
0.0
 10
11.356235
 20
272.871479
 30
0.0
 10
8.222229
 20
276.005489
 30
0.0
 10
8.222229
 20
279.871480
 30
0.0
  0
LWPOLYLINE
  5
192
100
AcDbEntity
  8
Layer_1
 62
7
100
AcDbPolyline
 90
2
 70
0
 10
181.415723
 20
270.697771
 30
0.0
 10
181.415723
 20
270.697771
 30
0.0
  0
SPLINE
  5
193
100
AcDbEntity
  8
Layer_1
 62
7
100
AcDbSpline
 70
8
 71
3
 72
8
 73
4
 74
0
 40
0
 40
0
 40
0
 40
0
 40
1
 40
1
 40
1
 40
1
 10
12.472226
 20
279.871481
 30
0.0
 10
12.472226
 20
281.390262
 30
0.0
 10
13.703443
 20
282.621479
 30
0.0
 10
15.222227
 20
282.621479
 30
0.0
  0
SPLINE
  5
194
100
AcDbEntity
  8
Layer_1
 62
7
100
AcDbSpline
 70
8
 71
3
 72
8
 73
4
 74
0
 40
0
 40
0
 40
0
 40
0
 40
1
 40
1
 40
1
 40
1
 10
15.222227
 20
282.621479
 30
0.0
 10
16.741008
 20
282.621479
 30
0.0
 10
17.972225
 20
281.390262
 30
0.0
 10
17.972225
 20
279.871481
 30
0.0
  0
SPLINE
  5
195
100
AcDbEntity
  8
Layer_1
 62
7
100
AcDbSpline
 70
8
 71
3
 72
8
 73
4
 74
0
 40
0
 40
0
 40
0
 40
0
 40
1
 40
1
 40
1
 40
1
 10
17.972225
 20
279.871481
 30
0.0
 10
17.972225
 20
278.352697
 30
0.0
 10
16.741008
 20
277.121480
 30
0.0
 10
15.222227
 20
277.121480
 30
0.0
  0
SPLINE
  5
196
100
AcDbEntity
  8
Layer_1
 62
7
100
AcDbSpline
 70
8
 71
3
 72
8
 73
4
 74
0
 40
0
 40
0
 40
0
 40
0
 40
1
 40
1
 40
1
 40
1
 10
15.222227
 20
277.121480
 30
0.0
 10
13.703443
 20
277.121480
 30
0.0
 10
12.472226
 20
278.352697
 30
0.0
 10
12.472226
 20
279.871481
 30
0.0
  0
LWPOLYLINE
  5
197
100
AcDbEntity
  8
Layer_1
 62
7
100
AcDbPolyline
 90
2
 70
0
 10
8.222229
 20
279.871480
 30
0.0
 10
8.222229
 20
279.871480
 30
0.0
  0
SPLINE
  5
198
100
AcDbEntity
  8
Layer_1
 62
7
100
AcDbSpline
 70
8
 71
3
 72
8
 73
4
 74
0
 40
0
 40
0
 40
0
 40
0
 40
1
 40
1
 40
1
 40
1
 10
8.222229
 20
343.198929
 30
0.0
 10
8.222229
 20
347.064923
 30
0.0
 10
11.356235
 20
350.198929
 30
0.0
 10
15.222226
 20
350.198929
 30
0.0
  0
SPLINE
  5
199
100
AcDbEntity
  8
Layer_1
 62
7
100
AcDbSpline
 70
8
 71
3
 72
8
 73
4
 74
0
 40
0
 40
0
 40
0
 40
0
 40
1
 40
1
 40
1
 40
1
 10
15.222226
 20
350.198929
 30
0.0
 10
19.088220
 20
350.198929
 30
0.0
 10
22.222226
 20
347.064923
 30
0.0
 10
22.222226
 20
343.198929
 30
0.0
  0
SPLINE
  5
19a
100
AcDbEntity
  8
Layer_1
 62
7
100
AcDbSpline
 70
8
 71
3
 72
8
 73
4
 74
0
 40
0
 40
0
 40
0
 40
0
 40
1
 40
1
 40
1
 40
1
 10
22.222226
 20
343.198929
 30
0.0
 10
22.222226
 20
339.332938
 30
0.0
 10
19.088220
 20
336.198928
 30
0.0
 10
15.222226
 20
336.198928
 30
0.0
  0
SPLINE
  5
19b
100
AcDbEntity
  8
Layer_1
 62
7
100
AcDbSpline
 70
8
 71
3
 72
8
 73
4
 74
0
 40
0
 40
0
 40
0
 40
0
 40
1
 40
1
 40
1
 40
1
 10
15.222226
 20
336.198928
 30
0.0
 10
11.356235
 20
336.198928
 30
0.0
 10
8.222229
 20
339.332938
 30
0.0
 10
8.222229
 20
343.198929
 30
0.0
  0
LWPOLYLINE
  5
19c
100
AcDbEntity
  8
Layer_1
 62
7
100
AcDbPolyline
 90
2
 70
0
 10
12.472226
 20
279.871481
 30
0.0
 10
12.472226
 20
279.871481
 30
0.0
  0
SPLINE
  5
19d
100
AcDbEntity
  8
Layer_1
 62
7
100
AcDbSpline
 70
8
 71
3
 72
8
 73
4
 74
0
 40
0
 40
0
 40
0
 40
0
 40
1
 40
1
 40
1
 40
1
 10
12.472226
 20
343.198930
 30
0.0
 10
12.472226
 20
344.717711
 30
0.0
 10
13.703443
 20
345.948928
 30
0.0
 10
15.222227
 20
345.948928
 30
0.0
  0
SPLINE
  5
19e
100
AcDbEntity
  8
Layer_1
 62
7
100
AcDbSpline
 70
8
 71
3
 72
8
 73
4
 74
0
 40
0
 40
0
 40
0
 40
0
 40
1
 40
1
 40
1
 40
1
 10
15.222227
 20
345.948928
 30
0.0
 10
16.741008
 20
345.948928
 30
0.0
 10
17.972225
 20
344.717711
 30
0.0
 10
17.972225
 20
343.198930
 30
0.0
  0
SPLINE
  5
19f
100
AcDbEntity
  8
Layer_1
 62
7
100
AcDbSpline
 70
8
 71
3
 72
8
 73
4
 74
0
 40
0
 40
0
 40
0
 40
0
 40
1
 40
1
 40
1
 40
1
 10
17.972225
 20
343.198930
 30
0.0
 10
17.972225
 20
341.680146
 30
0.0
 10
16.741008
 20
340.448929
 30
0.0
 10
15.222227
 20
340.448929
 30
0.0
  0
SPLINE
  5
1a0
100
AcDbEntity
  8
Layer_1
 62
7
100
AcDbSpline
 70
8
 71
3
 72
8
 73
4
 74
0
 40
0
 40
0
 40
0
 40
0
 40
1
 40
1
 40
1
 40
1
 10
15.222227
 20
340.448929
 30
0.0
 10
13.703443
 20
340.448929
 30
0.0
 10
12.472226
 20
341.680146
 30
0.0
 10
12.472226
 20
343.198930
 30
0.0
  0
LWPOLYLINE
  5
1a1
100
AcDbEntity
  8
Layer_1
 62
7
100
AcDbPolyline
 90
2
 70
0
 10
8.222229
 20
343.198929
 30
0.0
 10
8.222229
 20
343.198929
 30
0.0
  0
SPLINE
  5
1a2
100
AcDbEntity
  8
Layer_1
 62
7
100
AcDbSpline
 70
8
 71
3
 72
8
 73
4
 74
0
 40
0
 40
0
 40
0
 40
0
 40
1
 40
1
 40
1
 40
1
 10
8.222229
 20
374.862654
 30
0.0
 10
8.222229
 20
378.728648
 30
0.0
 10
11.356235
 20
381.862654
 30
0.0
 10
15.222226
 20
381.862654
 30
0.0
  0
SPLINE
  5
1a3
100
AcDbEntity
  8
Layer_1
 62
7
100
AcDbSpline
 70
8
 71
3
 72
8
 73
4
 74
0
 40
0
 40
0
 40
0
 40
0
 40
1
 40
1
 40
1
 40
1
 10
15.222226
 20
381.862654
 30
0.0
 10
19.088220
 20
381.862654
 30
0.0
 10
22.222226
 20
378.728648
 30
0.0
 10
22.222226
 20
374.862654
 30
0.0
  0
SPLINE
  5
1a4
100
AcDbEntity
  8
Layer_1
 62
7
100
AcDbSpline
 70
8
 71
3
 72
8
 73
4
 74
0
 40
0
 40
0
 40
0
 40
0
 40
1
 40
1
 40
1
 40
1
 10
22.222226
 20
374.862654
 30
0.0
 10
22.222226
 20
370.996663
 30
0.0
 10
19.088220
 20
367.862653
 30
0.0
 10
15.222226
 20
367.862653
 30
0.0
  0
SPLINE
  5
1a5
100
AcDbEntity
  8
Layer_1
 62
7
100
AcDbSpline
 70
8
 71
3
 72
8
 73
4
 74
0
 40
0
 40
0
 40
0
 40
0
 40
1
 40
1
 40
1
 40
1
 10
15.222226
 20
367.862653
 30
0.0
 10
11.356235
 20
367.862653
 30
0.0
 10
8.222229
 20
370.996663
 30
0.0
 10
8.222229
 20
374.862654
 30
0.0
  0
LWPOLYLINE
  5
1a6
100
AcDbEntity
  8
Layer_1
 62
7
100
AcDbPolyline
 90
2
 70
0
 10
12.472226
 20
343.198930
 30
0.0
 10
12.472226
 20
343.198930
 30
0.0
  0
SPLINE
  5
1a7
100
AcDbEntity
  8
Layer_1
 62
7
100
AcDbSpline
 70
8
 71
3
 72
8
 73
4
 74
0
 40
0
 40
0
 40
0
 40
0
 40
1
 40
1
 40
1
 40
1
 10
12.472226
 20
374.862655
 30
0.0
 10
12.472226
 20
376.381436
 30
0.0
 10
13.703443
 20
377.612653
 30
0.0
 10
15.222227
 20
377.612653
 30
0.0
  0
SPLINE
  5
1a8
100
AcDbEntity
  8
Layer_1
 62
7
100
AcDbSpline
 70
8
 71
3
 72
8
 73
4
 74
0
 40
0
 40
0
 40
0
 40
0
 40
1
 40
1
 40
1
 40
1
 10
15.222227
 20
377.612653
 30
0.0
 10
16.741008
 20
377.612653
 30
0.0
 10
17.972225
 20
376.381436
 30
0.0
 10
17.972225
 20
374.862655
 30
0.0
  0
SPLINE
  5
1a9
100
AcDbEntity
  8
Layer_1
 62
7
100
AcDbSpline
 70
8
 71
3
 72
8
 73
4
 74
0
 40
0
 40
0
 40
0
 40
0
 40
1
 40
1
 40
1
 40
1
 10
17.972225
 20
374.862655
 30
0.0
 10
17.972225
 20
373.343871
 30
0.0
 10
16.741008
 20
372.112654
 30
0.0
 10
15.222227
 20
372.112654
 30
0.0
  0
SPLINE
  5
1aa
100
AcDbEntity
  8
Layer_1
 62
7
100
AcDbSpline
 70
8
 71
3
 72
8
 73
4
 74
0
 40
0
 40
0
 40
0
 40
0
 40
1
 40
1
 40
1
 40
1
 10
15.222227
 20
372.112654
 30
0.0
 10
13.703443
 20
372.112654
 30
0.0
 10
12.472226
 20
373.343871
 30
0.0
 10
12.472226
 20
374.862655
 30
0.0
  0
LWPOLYLINE
  5
1ab
100
AcDbEntity
  8
Layer_1
 62
7
100
AcDbPolyline
 90
2
 70
0
 10
8.222229
 20
374.862654
 30
0.0
 10
8.222229
 20
374.862654
 30
0.0
  0
LWPOLYLINE
  5
1ac
100
AcDbEntity
  8
Layer_1
 62
7
100
AcDbPolyline
 90
2
 70
0
 10
12.472226
 20
374.862655
 30
0.0
 10
12.472226
 20
374.862655
 30
0.0
  0
LWPOLYLINE
  5
1ad
100
AcDbEntity
  8
Layer_1
 62
7
100
AcDbPolyline
 90
2
 70
0
 10
244.596849
 20
270.697771
 30
0.0
 10
244.596849
 20
370.697771
 30
0.0
  0
SPLINE
  5
1ae
100
AcDbEntity
  8
Layer_1
 62
7
100
AcDbSpline
 70
8
 71
3
 72
8
 73
4
 74
0
 40
0
 40
0
 40
0
 40
0
 40
1
 40
1
 40
1
 40
1
 10
214.596833
 20
370.697769
 30
0.0
 10
214.596833
 20
381.743468
 30
0.0
 10
223.551136
 20
390.697771
 30
0.0
 10
234.596824
 20
390.697771
 30
0.0
  0
SPLINE
  5
1af
100
AcDbEntity
  8
Layer_1
 62
7
100
AcDbSpline
 70
8
 71
3
 72
8
 73
4
 74
0
 40
0
 40
0
 40
0
 40
0
 40
1
 40
1
 40
1
 40
1
 10
234.596824
 20
390.697771
 30
0.0
 10
245.642523
 20
390.697771
 30
0.0
 10
254.596826
 20
381.743468
 30
0.0
 10
254.596826
 20
370.697769
 30
0.0
  0
LWPOLYLINE
  5
1b0
100
AcDbEntity
  8
Layer_1
 62
7
100
AcDbPolyline
 90
2
 70
0
 10
224.596833
 20
270.697771
 30
0.0
 10
224.596833
 20
370.697771
 30
0.0
  0
LWPOLYLINE
  5
1b1
100
AcDbEntity
  8
Layer_1
 62
7
100
AcDbPolyline
 90
2
 70
0
 10
254.596826
 20
370.697769
 30
0.0
 10
254.596826
 20
370.697769
 30
0.0
  0
LWPOLYLINE
  5
1b2
100
AcDbEntity
  8
Layer_1
 62
7
100
AcDbPolyline
 90
2
 70
0
 10
244.596849
 20
370.697771
 30
0.0
 10
254.596829
 20
370.697771
 30
0.0
  0
SPLINE
  5
1b3
100
AcDbEntity
  8
Layer_1
 62
7
100
AcDbSpline
 70
8
 71
3
 72
8
 73
4
 74
0
 40
0
 40
0
 40
0
 40
0
 40
1
 40
1
 40
1
 40
1
 10
214.596833
 20
270.697781
 30
0.0
 10
214.596833
 20
259.652083
 30
0.0
 10
223.551136
 20
250.697779
 30
0.0
 10
234.596824
 20
250.697779
 30
0.0
  0
SPLINE
  5
1b4
100
AcDbEntity
  8
Layer_1
 62
7
100
AcDbSpline
 70
8
 71
3
 72
8
 73
4
 74
0
 40
0
 40
0
 40
0
 40
0
 40
1
 40
1
 40
1
 40
1
 10
234.596824
 20
250.697779
 30
0.0
 10
245.642523
 20
250.697779
 30
0.0
 10
254.596826
 20
259.652083
 30
0.0
 10
254.596826
 20
270.697781
 30
0.0
  0
LWPOLYLINE
  5
1b5
100
AcDbEntity
  8
Layer_1
 62
7
100
AcDbPolyline
 90
2
 70
0
 10
214.596853
 20
370.697771
 30
0.0
 10
224.596833
 20
370.697771
 30
0.0
  0
LWPOLYLINE
  5
1b6
100
AcDbEntity
  8
Layer_1
 62
7
100
AcDbPolyline
 90
2
 70
0
 10
254.596826
 20
270.697781
 30
0.0
 10
254.596826
 20
270.697781
 30
0.0
  0
LWPOLYLINE
  5
1b7
100
AcDbEntity
  8
Layer_1
 62
7
100
AcDbPolyline
 90
2
 70
0
 10
244.596849
 20
270.697779
 30
0.0
 10
254.596829
 20
270.697779
 30
0.0
  0
SPLINE
  5
1b8
100
AcDbEntity
  8
Layer_1
 62
7
100
AcDbSpline
 70
8
 71
3
 72
8
 73
4
 74
0
 40
0
 40
0
 40
0
 40
0
 40
1
 40
1
 40
1
 40
1
 10
231.846830
 20
370.697772
 30
0.0
 10
231.846830
 20
372.216553
 30
0.0
 10
233.078047
 20
373.447770
 30
0.0
 10
234.596831
 20
373.447770
 30
0.0
  0
SPLINE
  5
1b9
100
AcDbEntity
  8
Layer_1
 62
7
100
AcDbSpline
 70
8
 71
3
 72
8
 73
4
 74
0
 40
0
 40
0
 40
0
 40
0
 40
1
 40
1
 40
1
 40
1
 10
234.596831
 20
373.447770
 30
0.0
 10
236.115612
 20
373.447770
 30
0.0
 10
237.346829
 20
372.216553
 30
0.0
 10
237.346829
 20
370.697772
 30
0.0
  0
SPLINE
  5
1ba
100
AcDbEntity
  8
Layer_1
 62
7
100
AcDbSpline
 70
8
 71
3
 72
8
 73
4
 74
0
 40
0
 40
0
 40
0
 40
0
 40
1
 40
1
 40
1
 40
1
 10
237.346829
 20
370.697772
 30
0.0
 10
237.346829
 20
369.178988
 30
0.0
 10
236.115612
 20
367.947771
 30
0.0
 10
234.596831
 20
367.947771
 30
0.0
  0
SPLINE
  5
1bb
100
AcDbEntity
  8
Layer_1
 62
7
100
AcDbSpline
 70
8
 71
3
 72
8
 73
4
 74
0
 40
0
 40
0
 40
0
 40
0
 40
1
 40
1
 40
1
 40
1
 10
234.596831
 20
367.947771
 30
0.0
 10
233.078047
 20
367.947771
 30
0.0
 10
231.846830
 20
369.178988
 30
0.0
 10
231.846830
 20
370.697772
 30
0.0
  0
LWPOLYLINE
  5
1bc
100
AcDbEntity
  8
Layer_1
 62
7
100
AcDbPolyline
 90
2
 70
0
 10
214.596853
 20
270.697779
 30
0.0
 10
224.596833
 20
270.697779
 30
0.0
  0
SPLINE
  5
1bd
100
AcDbEntity
  8
Layer_1
 62
7
100
AcDbSpline
 70
8
 71
3
 72
8
 73
4
 74
0
 40
0
 40
0
 40
0
 40
0
 40
1
 40
1
 40
1
 40
1
 10
231.846830
 20
270.697771
 30
0.0
 10
231.846830
 20
272.216553
 30
0.0
 10
233.078047
 20
273.447770
 30
0.0
 10
234.596831
 20
273.447770
 30
0.0
  0
SPLINE
  5
1be
100
AcDbEntity
  8
Layer_1
 62
7
100
AcDbSpline
 70
8
 71
3
 72
8
 73
4
 74
0
 40
0
 40
0
 40
0
 40
0
 40
1
 40
1
 40
1
 40
1
 10
234.596831
 20
273.447770
 30
0.0
 10
236.115612
 20
273.447770
 30
0.0
 10
237.346829
 20
272.216553
 30
0.0
 10
237.346829
 20
270.697771
 30
0.0
  0
SPLINE
  5
1bf
100
AcDbEntity
  8
Layer_1
 62
7
100
AcDbSpline
 70
8
 71
3
 72
8
 73
4
 74
0
 40
0
 40
0
 40
0
 40
0
 40
1
 40
1
 40
1
 40
1
 10
237.346829
 20
270.697771
 30
0.0
 10
237.346829
 20
269.178987
 30
0.0
 10
236.115612
 20
267.947770
 30
0.0
 10
234.596831
 20
267.947770
 30
0.0
  0
SPLINE
  5
1c0
100
AcDbEntity
  8
Layer_1
 62
7
100
AcDbSpline
 70
8
 71
3
 72
8
 73
4
 74
0
 40
0
 40
0
 40
0
 40
0
 40
1
 40
1
 40
1
 40
1
 10
234.596831
 20
267.947770
 30
0.0
 10
233.078047
 20
267.947770
 30
0.0
 10
231.846830
 20
269.178987
 30
0.0
 10
231.846830
 20
270.697771
 30
0.0
  0
LWPOLYLINE
  5
1c1
100
AcDbEntity
  8
Layer_1
 62
7
100
AcDbPolyline
 90
2
 70
0
 10
231.846830
 20
370.697772
 30
0.0
 10
231.846830
 20
370.697772
 30
0.0
  0
LWPOLYLINE
  5
1c2
100
AcDbEntity
  8
Layer_1
 62
7
100
AcDbPolyline
 90
2
 70
0
 10
231.846830
 20
270.697771
 30
0.0
 10
231.846830
 20
270.697771
 30
0.0
  0
ENDSEC
  0
SECTION
  2
OBJECTS
  0
DICTIONARY
  5
C
330
0
100
AcDbDictionary
  3
ACAD_GROUP
350
D
  3
ACAD_MLINESTYLE
350
17
  0
DICTIONARY
  5
D
330
C
100
AcDbDictionary
  0
DICTIONARY
  5
1A
330
C
100
AcDbDictionary
  0
DICTIONARY
  5
17
330
C
100
AcDbDictionary
  3
STANDARD
350
18
  0
DICTIONARY
  5
19
330
C
100
AcDbDictionary
  0
ENDSEC
  0
EOF
