  0
SECTION
  2
HEADER
  9
$ACADVER
  1
AC1009
  9
$EXTMIN
 10
0.0
 20
0.0
 30
0.0
  9
$EXTMAX
 10
1000.0
 20
1000.0
 30
0.0
  9
$FILLMODE
 70
 0
  9
$SPLFRAME
 70
 1
  0
ENDSEC
  0
SECTION
  2
TABLES
  0
TABLE
  2
LAYER
 70
1
  0
LAYER
  2
0
 70
     0
 62
     7
  6
CONTINUOUS
  0
ENDTAB
  0
ENDSEC
  0
SECTION
  2
ENTITIES
  0
POLYLINE
  8
0
 62
     1
 66
     1
 10
0
 20
0
 30
0.0
 40
0
 41
0
  0
VERTEX
  8
0
 10
0.788628
 20
0.394531
 30
0.0
 40
0
 41
0
  0
VERTEX
  8
0
 10
0.780599
 20
0.315212
 30
0.0
 40
0
 41
0
  0
VERTEX
  8
0
 10
0.75765
 20
0.241319
 30
0.0
 40
0
 41
0
  0
VERTEX
  8
0
 10
0.721354
 20
0.174425
 30
0.0
 40
0
 41
0
  0
VERTEX
  8
0
 10
0.673286
 20
0.116157
 30
0.0
 40
0
 41
0
  0
VERTEX
  8
0
 10
0.615017
 20
0.0680881
 30
0.0
 40
0
 41
0
  0
VERTEX
  8
0
 10
0.548122
 20
0.0317925
 30
0.0
 40
0
 41
0
  0
VERTEX
  8
0
 10
0.474229
 20
0.00884332
 30
0.0
 40
0
 41
0
  0
VERTEX
  8
0
 10
0.394911
 20
0.000813803
 30
0.0
 40
0
 41
0
  0
VERTEX
  8
0
 10
0.315539
 20
0.00884332
 30
0.0
 40
0
 41
0
  0
VERTEX
  8
0
 10
0.241644
 20
0.0317925
 30
0.0
 40
0
 41
0
  0
VERTEX
  8
0
 10
0.174804
 20
0.0680881
 30
0.0
 40
0
 41
0
  0
VERTEX
  8
0
 10
0.116536
 20
0.116157
 30
0.0
 40
0
 41
0
  0
VERTEX
  8
0
 10
0.0684679
 20
0.174425
 30
0.0
 40
0
 41
0
  0
VERTEX
  8
0
 10
0.0321724
 20
0.241319
 30
0.0
 40
0
 41
0
  0
VERTEX
  8
0
 10
0.00922308
 20
0.315212
 30
0.0
 40
0
 41
0
  0
VERTEX
  8
0
 10
0.00124783
 20
0.394531
 30
0.0
 40
0
 41
0
  0
SEQEND
 8
0
  0
POLYLINE
  8
0
 62
     1
 66
     1
 10
0
 20
0
 30
0.0
 40
0
 41
0
  0
VERTEX
  8
0
 10
0.788628
 20
4.33154
 30
0.0
 40
0
 41
0
  0
VERTEX
  8
0
 10
0.780599
 20
4.41092
 30
0.0
 40
0
 41
0
  0
VERTEX
  8
0
 10
0.75765
 20
4.48481
 30
0.0
 40
0
 41
0
  0
VERTEX
  8
0
 10
0.721354
 20
4.55171
 30
0.0
 40
0
 41
0
  0
VERTEX
  8
0
 10
0.673286
 20
4.60997
 30
0.0
 40
0
 41
0
  0
VERTEX
  8
0
 10
0.615017
 20
4.65804
 30
0.0
 40
0
 41
0
  0
VERTEX
  8
0
 10
0.548122
 20
4.69433
 30
0.0
 40
0
 41
0
  0
VERTEX
  8
0
 10
0.474229
 20
4.71729
 30
0.0
 40
0
 41
0
  0
VERTEX
  8
0
 10
0.394911
 20
4.72526
 30
0.0
 40
0
 41
0
  0
VERTEX
  8
0
 10
0.315539
 20
4.71729
 30
0.0
 40
0
 41
0
  0
VERTEX
  8
0
 10
0.241644
 20
4.69433
 30
0.0
 40
0
 41
0
  0
VERTEX
  8
0
 10
0.174804
 20
4.65804
 30
0.0
 40
0
 41
0
  0
VERTEX
  8
0
 10
0.116536
 20
4.60997
 30
0.0
 40
0
 41
0
  0
VERTEX
  8
0
 10
0.0684679
 20
4.55171
 30
0.0
 40
0
 41
0
  0
VERTEX
  8
0
 10
0.0321724
 20
4.48481
 30
0.0
 40
0
 41
0
  0
VERTEX
  8
0
 10
0.00922308
 20
4.41092
 30
0.0
 40
0
 41
0
  0
VERTEX
  8
0
 10
0.00124783
 20
4.33154
 30
0.0
 40
0
 41
0
  0
SEQEND
 8
0
  0
POLYLINE
  8
0
 62
     1
 66
     1
 10
0
 20
0
 30
0.0
 70
     1
 40
0
 41
0
  0
VERTEX
  8
0
 10
0.503201
 20
0.394531
 30
0.0
 40
0
 41
0
  0
VERTEX
  8
0
 10
0.494683
 20
0.352431
 30
0.0
 40
0
 41
0
  0
VERTEX
  8
0
 10
0.471463
 20
0.317979
 30
0.0
 40
0
 41
0
  0
VERTEX
  8
0
 10
0.437011
 20
0.29476
 30
0.0
 40
0
 41
0
  0
VERTEX
  8
0
 10
0.394911
 20
0.286242
 30
0.0
 40
0
 41
0
  0
VERTEX
  8
0
 10
0.352756
 20
0.29476
 30
0.0
 40
0
 41
0
  0
VERTEX
  8
0
 10
0.31836
 20
0.317979
 30
0.0
 40
0
 41
0
  0
VERTEX
  8
0
 10
0.295139
 20
0.352431
 30
0.0
 40
0
 41
0
  0
VERTEX
  8
0
 10
0.286675
 20
0.394531
 30
0.0
 40
0
 41
0
  0
VERTEX
  8
0
 10
0.295139
 20
0.436686
 30
0.0
 40
0
 41
0
  0
VERTEX
  8
0
 10
0.31836
 20
0.471083
 30
0.0
 40
0
 41
0
  0
VERTEX
  8
0
 10
0.352756
 20
0.494303
 30
0.0
 40
0
 41
0
  0
VERTEX
  8
0
 10
0.394911
 20
0.502767
 30
0.0
 40
0
 41
0
  0
VERTEX
  8
0
 10
0.437011
 20
0.494303
 30
0.0
 40
0
 41
0
  0
VERTEX
  8
0
 10
0.471463
 20
0.471083
 30
0.0
 40
0
 41
0
  0
VERTEX
  8
0
 10
0.494683
 20
0.436686
 30
0.0
 40
0
 41
0
  0
VERTEX
  8
0
 10
0.503201
 20
0.394531
 30
0.0
 40
0
 41
0
  0
SEQEND
 8
0
  0
POLYLINE
  8
0
 62
     1
 66
     1
 10
0
 20
0
 30
0.0
 70
     1
 40
0
 41
0
  0
VERTEX
  8
0
 10
0.503201
 20
4.33154
 30
0.0
 40
0
 41
0
  0
VERTEX
  8
0
 10
0.494683
 20
4.28944
 30
0.0
 40
0
 41
0
  0
VERTEX
  8
0
 10
0.471463
 20
4.25499
 30
0.0
 40
0
 41
0
  0
VERTEX
  8
0
 10
0.437011
 20
4.23178
 30
0.0
 40
0
 41
0
  0
VERTEX
  8
0
 10
0.394911
 20
4.22325
 30
0.0
 40
0
 41
0
  0
VERTEX
  8
0
 10
0.352756
 20
4.23178
 30
0.0
 40
0
 41
0
  0
VERTEX
  8
0
 10
0.31836
 20
4.25499
 30
0.0
 40
0
 41
0
  0
VERTEX
  8
0
 10
0.295139
 20
4.28944
 30
0.0
 40
0
 41
0
  0
VERTEX
  8
0
 10
0.286675
 20
4.33154
 30
0.0
 40
0
 41
0
  0
VERTEX
  8
0
 10
0.295139
 20
4.37369
 30
0.0
 40
0
 41
0
  0
VERTEX
  8
0
 10
0.31836
 20
4.4081
 30
0.0
 40
0
 41
0
  0
VERTEX
  8
0
 10
0.352756
 20
4.43132
 30
0.0
 40
0
 41
0
  0
VERTEX
  8
0
 10
0.394911
 20
4.43978
 30
0.0
 40
0
 41
0
  0
VERTEX
  8
0
 10
0.437011
 20
4.43132
 30
0.0
 40
0
 41
0
  0
VERTEX
  8
0
 10
0.471463
 20
4.4081
 30
0.0
 40
0
 41
0
  0
VERTEX
  8
0
 10
0.494683
 20
4.37369
 30
0.0
 40
0
 41
0
  0
VERTEX
  8
0
 10
0.503201
 20
4.33154
 30
0.0
 40
0
 41
0
  0
SEQEND
 8
0
  0
POLYLINE
  8
0
 62
     1
 66
     1
 10
0
 20
0
 30
0.0
 70
     1
 40
0
 41
0
  0
VERTEX
  8
0
 10
0.503201
 20
2.36301
 30
0.0
 40
0
 41
0
  0
VERTEX
  8
0
 10
0.494683
 20
2.3209
 30
0.0
 40
0
 41
0
  0
VERTEX
  8
0
 10
0.471463
 20
2.28651
 30
0.0
 40
0
 41
0
  0
VERTEX
  8
0
 10
0.437011
 20
2.26329
 30
0.0
 40
0
 41
0
  0
VERTEX
  8
0
 10
0.394911
 20
2.25478
 30
0.0
 40
0
 41
0
  0
VERTEX
  8
0
 10
0.352756
 20
2.26329
 30
0.0
 40
0
 41
0
  0
VERTEX
  8
0
 10
0.31836
 20
2.28651
 30
0.0
 40
0
 41
0
  0
VERTEX
  8
0
 10
0.295139
 20
2.3209
 30
0.0
 40
0
 41
0
  0
VERTEX
  8
0
 10
0.286675
 20
2.36301
 30
0.0
 40
0
 41
0
  0
VERTEX
  8
0
 10
0.295139
 20
2.40522
 30
0.0
 40
0
 41
0
  0
VERTEX
  8
0
 10
0.31836
 20
2.43961
 30
0.0
 40
0
 41
0
  0
VERTEX
  8
0
 10
0.352756
 20
2.46283
 30
0.0
 40
0
 41
0
  0
VERTEX
  8
0
 10
0.394911
 20
2.47131
 30
0.0
 40
0
 41
0
  0
VERTEX
  8
0
 10
0.437011
 20
2.46283
 30
0.0
 40
0
 41
0
  0
VERTEX
  8
0
 10
0.471463
 20
2.43961
 30
0.0
 40
0
 41
0
  0
VERTEX
  8
0
 10
0.494683
 20
2.40522
 30
0.0
 40
0
 41
0
  0
VERTEX
  8
0
 10
0.503201
 20
2.36301
 30
0.0
 40
0
 41
0
  0
SEQEND
 8
0
  0
POLYLINE
  8
0
 62
     1
 66
     1
 10
0
 20
0
 30
0.0
 40
0
 41
0
  0
VERTEX
  8
0
 10
2.13872
 20
0.394531
 30
0.0
 40
0
 41
0
  0
VERTEX
  8
0
 10
2.13069
 20
0.315212
 30
0.0
 40
0
 41
0
  0
VERTEX
  8
0
 10
2.10775
 20
0.241319
 30
0.0
 40
0
 41
0
  0
VERTEX
  8
0
 10
2.07146
 20
0.174425
 30
0.0
 40
0
 41
0
  0
VERTEX
  8
0
 10
2.02339
 20
0.116157
 30
0.0
 40
0
 41
0
  0
VERTEX
  8
0
 10
1.96511
 20
0.0680881
 30
0.0
 40
0
 41
0
  0
VERTEX
  8
0
 10
1.89822
 20
0.0317925
 30
0.0
 40
0
 41
0
  0
VERTEX
  8
0
 10
1.82433
 20
0.00884332
 30
0.0
 40
0
 41
0
  0
VERTEX
  8
0
 10
1.74501
 20
0.000813803
 30
0.0
 40
0
 41
0
  0
VERTEX
  8
0
 10
1.66564
 20
0.00884332
 30
0.0
 40
0
 41
0
  0
VERTEX
  8
0
 10
1.59174
 20
0.0317925
 30
0.0
 40
0
 41
0
  0
VERTEX
  8
0
 10
1.52485
 20
0.0680881
 30
0.0
 40
0
 41
0
  0
VERTEX
  8
0
 10
1.46658
 20
0.116157
 30
0.0
 40
0
 41
0
  0
VERTEX
  8
0
 10
1.41851
 20
0.174425
 30
0.0
 40
0
 41
0
  0
VERTEX
  8
0
 10
1.38222
 20
0.241319
 30
0.0
 40
0
 41
0
  0
VERTEX
  8
0
 10
1.35927
 20
0.315212
 30
0.0
 40
0
 41
0
  0
VERTEX
  8
0
 10
1.35129
 20
0.394531
 30
0.0
 40
0
 41
0
  0
SEQEND
 8
0
  0
POLYLINE
  8
0
 62
     1
 66
     1
 10
0
 20
0
 30
0.0
 40
0
 41
0
  0
VERTEX
  8
0
 10
2.13872
 20
4.33154
 30
0.0
 40
0
 41
0
  0
VERTEX
  8
0
 10
2.13069
 20
4.41092
 30
0.0
 40
0
 41
0
  0
VERTEX
  8
0
 10
2.10775
 20
4.48481
 30
0.0
 40
0
 41
0
  0
VERTEX
  8
0
 10
2.07146
 20
4.55171
 30
0.0
 40
0
 41
0
  0
VERTEX
  8
0
 10
2.02339
 20
4.60997
 30
0.0
 40
0
 41
0
  0
VERTEX
  8
0
 10
1.96511
 20
4.65804
 30
0.0
 40
0
 41
0
  0
VERTEX
  8
0
 10
1.89822
 20
4.69433
 30
0.0
 40
0
 41
0
  0
VERTEX
  8
0
 10
1.82433
 20
4.71729
 30
0.0
 40
0
 41
0
  0
VERTEX
  8
0
 10
1.74501
 20
4.72526
 30
0.0
 40
0
 41
0
  0
VERTEX
  8
0
 10
1.66564
 20
4.71729
 30
0.0
 40
0
 41
0
  0
VERTEX
  8
0
 10
1.59174
 20
4.69433
 30
0.0
 40
0
 41
0
  0
VERTEX
  8
0
 10
1.52485
 20
4.65804
 30
0.0
 40
0
 41
0
  0
VERTEX
  8
0
 10
1.46658
 20
4.60997
 30
0.0
 40
0
 41
0
  0
VERTEX
  8
0
 10
1.41851
 20
4.55171
 30
0.0
 40
0
 41
0
  0
VERTEX
  8
0
 10
1.38222
 20
4.48481
 30
0.0
 40
0
 41
0
  0
VERTEX
  8
0
 10
1.35927
 20
4.41092
 30
0.0
 40
0
 41
0
  0
VERTEX
  8
0
 10
1.35129
 20
4.33154
 30
0.0
 40
0
 41
0
  0
SEQEND
 8
0
  0
POLYLINE
  8
0
 62
     1
 66
     1
 10
0
 20
0
 30
0.0
 70
     1
 40
0
 41
0
  0
VERTEX
  8
0
 10
1.85325
 20
0.394531
 30
0.0
 40
0
 41
0
  0
VERTEX
  8
0
 10
1.84472
 20
0.352431
 30
0.0
 40
0
 41
0
  0
VERTEX
  8
0
 10
1.8215
 20
0.317979
 30
0.0
 40
0
 41
0
  0
VERTEX
  8
0
 10
1.78711
 20
0.29476
 30
0.0
 40
0
 41
0
  0
VERTEX
  8
0
 10
1.74501
 20
0.286242
 30
0.0
 40
0
 41
0
  0
VERTEX
  8
0
 10
1.70285
 20
0.29476
 30
0.0
 40
0
 41
0
  0
VERTEX
  8
0
 10
1.6684
 20
0.317979
 30
0.0
 40
0
 41
0
  0
VERTEX
  8
0
 10
1.64518
 20
0.352431
 30
0.0
 40
0
 41
0
  0
VERTEX
  8
0
 10
1.63672
 20
0.394531
 30
0.0
 40
0
 41
0
  0
VERTEX
  8
0
 10
1.64518
 20
0.436686
 30
0.0
 40
0
 41
0
  0
VERTEX
  8
0
 10
1.6684
 20
0.471083
 30
0.0
 40
0
 41
0
  0
VERTEX
  8
0
 10
1.70285
 20
0.494303
 30
0.0
 40
0
 41
0
  0
VERTEX
  8
0
 10
1.74501
 20
0.502767
 30
0.0
 40
0
 41
0
  0
VERTEX
  8
0
 10
1.78711
 20
0.494303
 30
0.0
 40
0
 41
0
  0
VERTEX
  8
0
 10
1.8215
 20
0.471083
 30
0.0
 40
0
 41
0
  0
VERTEX
  8
0
 10
1.84472
 20
0.436686
 30
0.0
 40
0
 41
0
  0
VERTEX
  8
0
 10
1.85325
 20
0.394531
 30
0.0
 40
0
 41
0
  0
SEQEND
 8
0
  0
POLYLINE
  8
0
 62
     1
 66
     1
 10
0
 20
0
 30
0.0
 70
     1
 40
0
 41
0
  0
VERTEX
  8
0
 10
1.85325
 20
4.33154
 30
0.0
 40
0
 41
0
  0
VERTEX
  8
0
 10
1.84472
 20
4.28944
 30
0.0
 40
0
 41
0
  0
VERTEX
  8
0
 10
1.8215
 20
4.25499
 30
0.0
 40
0
 41
0
  0
VERTEX
  8
0
 10
1.78711
 20
4.23178
 30
0.0
 40
0
 41
0
  0
VERTEX
  8
0
 10
1.74501
 20
4.22325
 30
0.0
 40
0
 41
0
  0
VERTEX
  8
0
 10
1.70285
 20
4.23178
 30
0.0
 40
0
 41
0
  0
VERTEX
  8
0
 10
1.6684
 20
4.25499
 30
0.0
 40
0
 41
0
  0
VERTEX
  8
0
 10
1.64518
 20
4.28944
 30
0.0
 40
0
 41
0
  0
VERTEX
  8
0
 10
1.63672
 20
4.33154
 30
0.0
 40
0
 41
0
  0
VERTEX
  8
0
 10
1.64518
 20
4.37369
 30
0.0
 40
0
 41
0
  0
VERTEX
  8
0
 10
1.6684
 20
4.4081
 30
0.0
 40
0
 41
0
  0
VERTEX
  8
0
 10
1.70285
 20
4.43132
 30
0.0
 40
0
 41
0
  0
VERTEX
  8
0
 10
1.74501
 20
4.43978
 30
0.0
 40
0
 41
0
  0
VERTEX
  8
0
 10
1.78711
 20
4.43132
 30
0.0
 40
0
 41
0
  0
VERTEX
  8
0
 10
1.8215
 20
4.4081
 30
0.0
 40
0
 41
0
  0
VERTEX
  8
0
 10
1.84472
 20
4.37369
 30
0.0
 40
0
 41
0
  0
VERTEX
  8
0
 10
1.85325
 20
4.33154
 30
0.0
 40
0
 41
0
  0
SEQEND
 8
0
  0
POLYLINE
  8
0
 62
     1
 66
     1
 10
0
 20
0
 30
0.0
 70
     1
 40
0
 41
0
  0
VERTEX
  8
0
 10
1.85325
 20
2.36301
 30
0.0
 40
0
 41
0
  0
VERTEX
  8
0
 10
1.84472
 20
2.3209
 30
0.0
 40
0
 41
0
  0
VERTEX
  8
0
 10
1.8215
 20
2.28651
 30
0.0
 40
0
 41
0
  0
VERTEX
  8
0
 10
1.78711
 20
2.26329
 30
0.0
 40
0
 41
0
  0
VERTEX
  8
0
 10
1.74501
 20
2.25478
 30
0.0
 40
0
 41
0
  0
VERTEX
  8
0
 10
1.70285
 20
2.26329
 30
0.0
 40
0
 41
0
  0
VERTEX
  8
0
 10
1.6684
 20
2.28651
 30
0.0
 40
0
 41
0
  0
VERTEX
  8
0
 10
1.64518
 20
2.3209
 30
0.0
 40
0
 41
0
  0
VERTEX
  8
0
 10
1.63672
 20
2.36301
 30
0.0
 40
0
 41
0
  0
VERTEX
  8
0
 10
1.64518
 20
2.40522
 30
0.0
 40
0
 41
0
  0
VERTEX
  8
0
 10
1.6684
 20
2.43961
 30
0.0
 40
0
 41
0
  0
VERTEX
  8
0
 10
1.70285
 20
2.46283
 30
0.0
 40
0
 41
0
  0
VERTEX
  8
0
 10
1.74501
 20
2.47131
 30
0.0
 40
0
 41
0
  0
VERTEX
  8
0
 10
1.78711
 20
2.46283
 30
0.0
 40
0
 41
0
  0
VERTEX
  8
0
 10
1.8215
 20
2.43961
 30
0.0
 40
0
 41
0
  0
VERTEX
  8
0
 10
1.84472
 20
2.40522
 30
0.0
 40
0
 41
0
  0
VERTEX
  8
0
 10
1.85325
 20
2.36301
 30
0.0
 40
0
 41
0
  0
SEQEND
 8
0
  0
POLYLINE
  8
0
 62
     1
 66
     1
 10
0
 20
0
 30
0.0
 40
0
 41
0
  0
VERTEX
  8
0
 10
3.48876
 20
0.394531
 30
0.0
 40
0
 41
0
  0
VERTEX
  8
0
 10
3.48074
 20
0.315212
 30
0.0
 40
0
 41
0
  0
VERTEX
  8
0
 10
3.45779
 20
0.241319
 30
0.0
 40
0
 41
0
  0
VERTEX
  8
0
 10
3.4215
 20
0.174425
 30
0.0
 40
0
 41
0
  0
VERTEX
  8
0
 10
3.37343
 20
0.116157
 30
0.0
 40
0
 41
0
  0
VERTEX
  8
0
 10
3.31515
 20
0.0680881
 30
0.0
 40
0
 41
0
  0
VERTEX
  8
0
 10
3.24826
 20
0.0317925
 30
0.0
 40
0
 41
0
  0
VERTEX
  8
0
 10
3.17437
 20
0.00884332
 30
0.0
 40
0
 41
0
  0
VERTEX
  8
0
 10
3.09506
 20
0.000813803
 30
0.0
 40
0
 41
0
  0
VERTEX
  8
0
 10
3.01568
 20
0.00884332
 30
0.0
 40
0
 41
0
  0
VERTEX
  8
0
 10
2.94179
 20
0.0317925
 30
0.0
 40
0
 41
0
  0
VERTEX
  8
0
 10
2.87494
 20
0.0680881
 30
0.0
 40
0
 41
0
  0
VERTEX
  8
0
 10
2.81668
 20
0.116157
 30
0.0
 40
0
 41
0
  0
VERTEX
  8
0
 10
2.76861
 20
0.174425
 30
0.0
 40
0
 41
0
  0
VERTEX
  8
0
 10
2.73232
 20
0.241319
 30
0.0
 40
0
 41
0
  0
VERTEX
  8
0
 10
2.70936
 20
0.315212
 30
0.0
 40
0
 41
0
  0
VERTEX
  8
0
 10
2.70139
 20
0.394531
 30
0.0
 40
0
 41
0
  0
SEQEND
 8
0
  0
POLYLINE
  8
0
 62
     1
 66
     1
 10
0
 20
0
 30
0.0
 40
0
 41
0
  0
VERTEX
  8
0
 10
3.48876
 20
4.33154
 30
0.0
 40
0
 41
0
  0
VERTEX
  8
0
 10
3.48074
 20
4.41092
 30
0.0
 40
0
 41
0
  0
VERTEX
  8
0
 10
3.45779
 20
4.48481
 30
0.0
 40
0
 41
0
  0
VERTEX
  8
0
 10
3.4215
 20
4.55171
 30
0.0
 40
0
 41
0
  0
VERTEX
  8
0
 10
3.37343
 20
4.60997
 30
0.0
 40
0
 41
0
  0
VERTEX
  8
0
 10
3.31515
 20
4.65804
 30
0.0
 40
0
 41
0
  0
VERTEX
  8
0
 10
3.24826
 20
4.69433
 30
0.0
 40
0
 41
0
  0
VERTEX
  8
0
 10
3.17437
 20
4.71729
 30
0.0
 40
0
 41
0
  0
VERTEX
  8
0
 10
3.09506
 20
4.72526
 30
0.0
 40
0
 41
0
  0
VERTEX
  8
0
 10
3.01568
 20
4.71729
 30
0.0
 40
0
 41
0
  0
VERTEX
  8
0
 10
2.94179
 20
4.69433
 30
0.0
 40
0
 41
0
  0
VERTEX
  8
0
 10
2.87494
 20
4.65804
 30
0.0
 40
0
 41
0
  0
VERTEX
  8
0
 10
2.81668
 20
4.60997
 30
0.0
 40
0
 41
0
  0
VERTEX
  8
0
 10
2.76861
 20
4.55171
 30
0.0
 40
0
 41
0
  0
VERTEX
  8
0
 10
2.73232
 20
4.48481
 30
0.0
 40
0
 41
0
  0
VERTEX
  8
0
 10
2.70936
 20
4.41092
 30
0.0
 40
0
 41
0
  0
VERTEX
  8
0
 10
2.70139
 20
4.33154
 30
0.0
 40
0
 41
0
  0
SEQEND
 8
0
  0
POLYLINE
  8
0
 62
     1
 66
     1
 10
0
 20
0
 30
0.0
 70
     1
 40
0
 41
0
  0
VERTEX
  8
0
 10
3.20335
 20
0.394531
 30
0.0
 40
0
 41
0
  0
VERTEX
  8
0
 10
3.19482
 20
0.352431
 30
0.0
 40
0
 41
0
  0
VERTEX
  8
0
 10
3.1716
 20
0.317979
 30
0.0
 40
0
 41
0
  0
VERTEX
  8
0
 10
3.13721
 20
0.29476
 30
0.0
 40
0
 41
0
  0
VERTEX
  8
0
 10
3.09506
 20
0.286242
 30
0.0
 40
0
 41
0
  0
VERTEX
  8
0
 10
3.0529
 20
0.29476
 30
0.0
 40
0
 41
0
  0
VERTEX
  8
0
 10
3.0185
 20
0.317979
 30
0.0
 40
0
 41
0
  0
VERTEX
  8
0
 10
2.99528
 20
0.352431
 30
0.0
 40
0
 41
0
  0
VERTEX
  8
0
 10
2.98682
 20
0.394531
 30
0.0
 40
0
 41
0
  0
VERTEX
  8
0
 10
2.99528
 20
0.436686
 30
0.0
 40
0
 41
0
  0
VERTEX
  8
0
 10
3.0185
 20
0.471083
 30
0.0
 40
0
 41
0
  0
VERTEX
  8
0
 10
3.0529
 20
0.494303
 30
0.0
 40
0
 41
0
  0
VERTEX
  8
0
 10
3.09506
 20
0.502767
 30
0.0
 40
0
 41
0
  0
VERTEX
  8
0
 10
3.13721
 20
0.494303
 30
0.0
 40
0
 41
0
  0
VERTEX
  8
0
 10
3.1716
 20
0.471083
 30
0.0
 40
0
 41
0
  0
VERTEX
  8
0
 10
3.19482
 20
0.436686
 30
0.0
 40
0
 41
0
  0
VERTEX
  8
0
 10
3.20335
 20
0.394531
 30
0.0
 40
0
 41
0
  0
SEQEND
 8
0
  0
POLYLINE
  8
0
 62
     1
 66
     1
 10
0
 20
0
 30
0.0
 70
     1
 40
0
 41
0
  0
VERTEX
  8
0
 10
3.20335
 20
4.33154
 30
0.0
 40
0
 41
0
  0
VERTEX
  8
0
 10
3.19482
 20
4.28944
 30
0.0
 40
0
 41
0
  0
VERTEX
  8
0
 10
3.1716
 20
4.25499
 30
0.0
 40
0
 41
0
  0
VERTEX
  8
0
 10
3.13721
 20
4.23178
 30
0.0
 40
0
 41
0
  0
VERTEX
  8
0
 10
3.09506
 20
4.22325
 30
0.0
 40
0
 41
0
  0
VERTEX
  8
0
 10
3.0529
 20
4.23178
 30
0.0
 40
0
 41
0
  0
VERTEX
  8
0
 10
3.0185
 20
4.25499
 30
0.0
 40
0
 41
0
  0
VERTEX
  8
0
 10
2.99528
 20
4.28944
 30
0.0
 40
0
 41
0
  0
VERTEX
  8
0
 10
2.98682
 20
4.33154
 30
0.0
 40
0
 41
0
  0
VERTEX
  8
0
 10
2.99528
 20
4.37369
 30
0.0
 40
0
 41
0
  0
VERTEX
  8
0
 10
3.0185
 20
4.4081
 30
0.0
 40
0
 41
0
  0
VERTEX
  8
0
 10
3.0529
 20
4.43132
 30
0.0
 40
0
 41
0
  0
VERTEX
  8
0
 10
3.09506
 20
4.43978
 30
0.0
 40
0
 41
0
  0
VERTEX
  8
0
 10
3.13721
 20
4.43132
 30
0.0
 40
0
 41
0
  0
VERTEX
  8
0
 10
3.1716
 20
4.4081
 30
0.0
 40
0
 41
0
  0
VERTEX
  8
0
 10
3.19482
 20
4.37369
 30
0.0
 40
0
 41
0
  0
VERTEX
  8
0
 10
3.20335
 20
4.33154
 30
0.0
 40
0
 41
0
  0
SEQEND
 8
0
  0
POLYLINE
  8
0
 62
     1
 66
     1
 10
0
 20
0
 30
0.0
 70
     1
 40
0
 41
0
  0
VERTEX
  8
0
 10
3.20335
 20
2.36301
 30
0.0
 40
0
 41
0
  0
VERTEX
  8
0
 10
3.19482
 20
2.3209
 30
0.0
 40
0
 41
0
  0
VERTEX
  8
0
 10
3.1716
 20
2.28651
 30
0.0
 40
0
 41
0
  0
VERTEX
  8
0
 10
3.13721
 20
2.26329
 30
0.0
 40
0
 41
0
  0
VERTEX
  8
0
 10
3.09506
 20
2.25478
 30
0.0
 40
0
 41
0
  0
VERTEX
  8
0
 10
3.0529
 20
2.26329
 30
0.0
 40
0
 41
0
  0
VERTEX
  8
0
 10
3.0185
 20
2.28651
 30
0.0
 40
0
 41
0
  0
VERTEX
  8
0
 10
2.99528
 20
2.3209
 30
0.0
 40
0
 41
0
  0
VERTEX
  8
0
 10
2.98682
 20
2.36301
 30
0.0
 40
0
 41
0
  0
VERTEX
  8
0
 10
2.99528
 20
2.40522
 30
0.0
 40
0
 41
0
  0
VERTEX
  8
0
 10
3.0185
 20
2.43961
 30
0.0
 40
0
 41
0
  0
VERTEX
  8
0
 10
3.0529
 20
2.46283
 30
0.0
 40
0
 41
0
  0
VERTEX
  8
0
 10
3.09506
 20
2.47131
 30
0.0
 40
0
 41
0
  0
VERTEX
  8
0
 10
3.13721
 20
2.46283
 30
0.0
 40
0
 41
0
  0
VERTEX
  8
0
 10
3.1716
 20
2.43961
 30
0.0
 40
0
 41
0
  0
VERTEX
  8
0
 10
3.19482
 20
2.40522
 30
0.0
 40
0
 41
0
  0
VERTEX
  8
0
 10
3.20335
 20
2.36301
 30
0.0
 40
0
 41
0
  0
SEQEND
 8
0
  0
POLYLINE
  8
0
 62
     1
 66
     1
 10
0
 20
0
 30
0.0
 40
0
 41
0
  0
VERTEX
  8
0
 10
4.83886
 20
0.394531
 30
0.0
 40
0
 41
0
  0
VERTEX
  8
0
 10
4.83083
 20
0.315212
 30
0.0
 40
0
 41
0
  0
VERTEX
  8
0
 10
4.80789
 20
0.241319
 30
0.0
 40
0
 41
0
  0
VERTEX
  8
0
 10
4.7716
 20
0.174425
 30
0.0
 40
0
 41
0
  0
VERTEX
  8
0
 10
4.72353
 20
0.116157
 30
0.0
 40
0
 41
0
  0
VERTEX
  8
0
 10
4.66525
 20
0.0680881
 30
0.0
 40
0
 41
0
  0
VERTEX
  8
0
 10
4.59836
 20
0.0317925
 30
0.0
 40
0
 41
0
  0
VERTEX
  8
0
 10
4.52447
 20
0.00884332
 30
0.0
 40
0
 41
0
  0
VERTEX
  8
0
 10
4.44515
 20
0.000813803
 30
0.0
 40
0
 41
0
  0
VERTEX
  8
0
 10
4.36578
 20
0.00884332
 30
0.0
 40
0
 41
0
  0
VERTEX
  8
0
 10
4.29189
 20
0.0317925
 30
0.0
 40
0
 41
0
  0
VERTEX
  8
0
 10
4.22499
 20
0.0680881
 30
0.0
 40
0
 41
0
  0
VERTEX
  8
0
 10
4.16672
 20
0.116157
 30
0.0
 40
0
 41
0
  0
VERTEX
  8
0
 10
4.11865
 20
0.174425
 30
0.0
 40
0
 41
0
  0
VERTEX
  8
0
 10
4.08236
 20
0.241319
 30
0.0
 40
0
 41
0
  0
VERTEX
  8
0
 10
4.0594
 20
0.315212
 30
0.0
 40
0
 41
0
  0
VERTEX
  8
0
 10
4.05143
 20
0.394531
 30
0.0
 40
0
 41
0
  0
SEQEND
 8
0
  0
POLYLINE
  8
0
 62
     1
 66
     1
 10
0
 20
0
 30
0.0
 40
0
 41
0
  0
VERTEX
  8
0
 10
4.83886
 20
4.33154
 30
0.0
 40
0
 41
0
  0
VERTEX
  8
0
 10
4.83083
 20
4.41092
 30
0.0
 40
0
 41
0
  0
VERTEX
  8
0
 10
4.80789
 20
4.48481
 30
0.0
 40
0
 41
0
  0
VERTEX
  8
0
 10
4.7716
 20
4.55171
 30
0.0
 40
0
 41
0
  0
VERTEX
  8
0
 10
4.72353
 20
4.60997
 30
0.0
 40
0
 41
0
  0
VERTEX
  8
0
 10
4.66525
 20
4.65804
 30
0.0
 40
0
 41
0
  0
VERTEX
  8
0
 10
4.59836
 20
4.69433
 30
0.0
 40
0
 41
0
  0
VERTEX
  8
0
 10
4.52447
 20
4.71729
 30
0.0
 40
0
 41
0
  0
VERTEX
  8
0
 10
4.44515
 20
4.72526
 30
0.0
 40
0
 41
0
  0
VERTEX
  8
0
 10
4.36578
 20
4.71729
 30
0.0
 40
0
 41
0
  0
VERTEX
  8
0
 10
4.29189
 20
4.69433
 30
0.0
 40
0
 41
0
  0
VERTEX
  8
0
 10
4.22499
 20
4.65804
 30
0.0
 40
0
 41
0
  0
VERTEX
  8
0
 10
4.16672
 20
4.60997
 30
0.0
 40
0
 41
0
  0
VERTEX
  8
0
 10
4.11865
 20
4.55171
 30
0.0
 40
0
 41
0
  0
VERTEX
  8
0
 10
4.08236
 20
4.48481
 30
0.0
 40
0
 41
0
  0
VERTEX
  8
0
 10
4.0594
 20
4.41092
 30
0.0
 40
0
 41
0
  0
VERTEX
  8
0
 10
4.05143
 20
4.33154
 30
0.0
 40
0
 41
0
  0
SEQEND
 8
0
  0
POLYLINE
  8
0
 62
     1
 66
     1
 10
0
 20
0
 30
0.0
 70
     1
 40
0
 41
0
  0
VERTEX
  8
0
 10
4.55339
 20
0.394531
 30
0.0
 40
0
 41
0
  0
VERTEX
  8
0
 10
4.54486
 20
0.352431
 30
0.0
 40
0
 41
0
  0
VERTEX
  8
0
 10
4.52165
 20
0.317979
 30
0.0
 40
0
 41
0
  0
VERTEX
  8
0
 10
4.48725
 20
0.29476
 30
0.0
 40
0
 41
0
  0
VERTEX
  8
0
 10
4.44515
 20
0.286242
 30
0.0
 40
0
 41
0
  0
VERTEX
  8
0
 10
4.403
 20
0.29476
 30
0.0
 40
0
 41
0
  0
VERTEX
  8
0
 10
4.36854
 20
0.317979
 30
0.0
 40
0
 41
0
  0
VERTEX
  8
0
 10
4.34532
 20
0.352431
 30
0.0
 40
0
 41
0
  0
VERTEX
  8
0
 10
4.33686
 20
0.394531
 30
0.0
 40
0
 41
0
  0
VERTEX
  8
0
 10
4.34532
 20
0.436686
 30
0.0
 40
0
 41
0
  0
VERTEX
  8
0
 10
4.36854
 20
0.471083
 30
0.0
 40
0
 41
0
  0
VERTEX
  8
0
 10
4.403
 20
0.494303
 30
0.0
 40
0
 41
0
  0
VERTEX
  8
0
 10
4.44515
 20
0.502767
 30
0.0
 40
0
 41
0
  0
VERTEX
  8
0
 10
4.48725
 20
0.494303
 30
0.0
 40
0
 41
0
  0
VERTEX
  8
0
 10
4.52165
 20
0.471083
 30
0.0
 40
0
 41
0
  0
VERTEX
  8
0
 10
4.54486
 20
0.436686
 30
0.0
 40
0
 41
0
  0
VERTEX
  8
0
 10
4.55339
 20
0.394531
 30
0.0
 40
0
 41
0
  0
SEQEND
 8
0
  0
POLYLINE
  8
0
 62
     1
 66
     1
 10
0
 20
0
 30
0.0
 70
     1
 40
0
 41
0
  0
VERTEX
  8
0
 10
4.55339
 20
4.33154
 30
0.0
 40
0
 41
0
  0
VERTEX
  8
0
 10
4.54486
 20
4.28944
 30
0.0
 40
0
 41
0
  0
VERTEX
  8
0
 10
4.52165
 20
4.25499
 30
0.0
 40
0
 41
0
  0
VERTEX
  8
0
 10
4.48725
 20
4.23178
 30
0.0
 40
0
 41
0
  0
VERTEX
  8
0
 10
4.44515
 20
4.22325
 30
0.0
 40
0
 41
0
  0
VERTEX
  8
0
 10
4.403
 20
4.23178
 30
0.0
 40
0
 41
0
  0
VERTEX
  8
0
 10
4.36854
 20
4.25499
 30
0.0
 40
0
 41
0
  0
VERTEX
  8
0
 10
4.34532
 20
4.28944
 30
0.0
 40
0
 41
0
  0
VERTEX
  8
0
 10
4.33686
 20
4.33154
 30
0.0
 40
0
 41
0
  0
VERTEX
  8
0
 10
4.34532
 20
4.37369
 30
0.0
 40
0
 41
0
  0
VERTEX
  8
0
 10
4.36854
 20
4.4081
 30
0.0
 40
0
 41
0
  0
VERTEX
  8
0
 10
4.403
 20
4.43132
 30
0.0
 40
0
 41
0
  0
VERTEX
  8
0
 10
4.44515
 20
4.43978
 30
0.0
 40
0
 41
0
  0
VERTEX
  8
0
 10
4.48725
 20
4.43132
 30
0.0
 40
0
 41
0
  0
VERTEX
  8
0
 10
4.52165
 20
4.4081
 30
0.0
 40
0
 41
0
  0
VERTEX
  8
0
 10
4.54486
 20
4.37369
 30
0.0
 40
0
 41
0
  0
VERTEX
  8
0
 10
4.55339
 20
4.33154
 30
0.0
 40
0
 41
0
  0
SEQEND
 8
0
  0
POLYLINE
  8
0
 62
     1
 66
     1
 10
0
 20
0
 30
0.0
 70
     1
 40
0
 41
0
  0
VERTEX
  8
0
 10
4.55339
 20
2.36301
 30
0.0
 40
0
 41
0
  0
VERTEX
  8
0
 10
4.54486
 20
2.3209
 30
0.0
 40
0
 41
0
  0
VERTEX
  8
0
 10
4.52165
 20
2.28651
 30
0.0
 40
0
 41
0
  0
VERTEX
  8
0
 10
4.48725
 20
2.26329
 30
0.0
 40
0
 41
0
  0
VERTEX
  8
0
 10
4.44515
 20
2.25478
 30
0.0
 40
0
 41
0
  0
VERTEX
  8
0
 10
4.403
 20
2.26329
 30
0.0
 40
0
 41
0
  0
VERTEX
  8
0
 10
4.36854
 20
2.28651
 30
0.0
 40
0
 41
0
  0
VERTEX
  8
0
 10
4.34532
 20
2.3209
 30
0.0
 40
0
 41
0
  0
VERTEX
  8
0
 10
4.33686
 20
2.36301
 30
0.0
 40
0
 41
0
  0
VERTEX
  8
0
 10
4.34532
 20
2.40522
 30
0.0
 40
0
 41
0
  0
VERTEX
  8
0
 10
4.36854
 20
2.43961
 30
0.0
 40
0
 41
0
  0
VERTEX
  8
0
 10
4.403
 20
2.46283
 30
0.0
 40
0
 41
0
  0
VERTEX
  8
0
 10
4.44515
 20
2.47131
 30
0.0
 40
0
 41
0
  0
VERTEX
  8
0
 10
4.48725
 20
2.46283
 30
0.0
 40
0
 41
0
  0
VERTEX
  8
0
 10
4.52165
 20
2.43961
 30
0.0
 40
0
 41
0
  0
VERTEX
  8
0
 10
4.54486
 20
2.40522
 30
0.0
 40
0
 41
0
  0
VERTEX
  8
0
 10
4.55339
 20
2.36301
 30
0.0
 40
0
 41
0
  0
SEQEND
 8
0
  0
ENDSEC
  0
EOF
