  0
SECTION
  2
HEADER
  9
$ACADVER
  1
AC1014
  9
$HANDSEED
  5
FFFF
  9
$MEASUREMENT
 70
     1
  0
ENDSEC
  0
SECTION
  2
TABLES
  0
TABLE
  2
VPORT
  5
8
330
0
100
AcDbSymbolTable
 70
     4
  0
VPORT
  5
2E
330
8
100
AcDbSymbolTableRecord
100
AcDbViewportTableRecord
  2
*ACTIVE
 70
     0
 10
0.0
 20
0.0
 11
1.0
 21
1.0
 12
210.0
 22
148.5
 13
0.0
 23
0.0
 14
10.0
 24
10.0
 15
10.0
 25
10.0
 16
0.0
 26
0.0
 36
1.0
 17
0.0
 27
0.0
 37
0.0
 40
341.0
 41
1.24
 42
50.0
 43
0.0
 44
0.0
 50
0.0
 51
0.0
 71
     0
 72
   100
 73
     1
 74
     3
 75
     0
 76
     0
 77
     0
 78
     0
  0
ENDTAB
  0
TABLE
  2
LTYPE
  5
5
330
0
100
AcDbSymbolTable
 70
     1
  0
LTYPE
  5
14
330
5
100
AcDbSymbolTableRecord
100
AcDbLinetypeTableRecord
  2
BYBLOCK
 70
     0
  3

 72
    65
 73
     0
 40
0.0
  0
LTYPE
  5
15
330
5
100
AcDbSymbolTableRecord
100
AcDbLinetypeTableRecord
  2
BYLAYER
 70
     0
  3

 72
    65
 73
     0
 40
0.0
  0
LTYPE
  5
16
330
5
100
AcDbSymbolTableRecord
100
AcDbLinetypeTableRecord
  2
CONTINUOUS
 70
     0
  3
Solid line
 72
    65
 73
     0
 40
0.0
  0
ENDTAB
  0
TABLE
  2
LAYER
  5
2
100
AcDbSymbolTable
 70
2
  0
LAYER
  5
50
100
AcDbSymbolTableRecord
100
AcDbLayerTableRecord
  2
0
 70
0
  6
CONTINUOUS
  0
LAYER
  5
51
100
AcDbSymbolTableRecord
100
AcDbLayerTableRecord
  2
Layer_1
 70
0
  6
CONTINUOUS
  0
ENDTAB
  0
TABLE
  2
STYLE
  5
3
330
0
100
AcDbSymbolTable
 70
     1
  0
STYLE
  5
11
330
3
100
AcDbSymbolTableRecord
100
AcDbTextStyleTableRecord
  2
STANDARD
 70
     0
 40
0.0
 41
1.0
 50
0.0
 71
     0
 42
2.5
  3
txt
  4

  0
ENDTAB
  0
TABLE
  2
VIEW
  5
6
330
0
100
AcDbSymbolTable
 70
     0
  0
ENDTAB
  0
TABLE
  2
UCS
  5
7
330
0
100
AcDbSymbolTable
 70
     0
  0
ENDTAB
  0
TABLE
  2
APPID
  5
9
330
0
100
AcDbSymbolTable
 70
     2
  0
APPID
  5
12
330
9
100
AcDbSymbolTableRecord
100
AcDbRegAppTableRecord
  2
ACAD
 70
     0
  0
ENDTAB
  0
TABLE
  2
DIMSTYLE
  5
A
330
0
100
AcDbSymbolTable
 70
     1
  0
DIMSTYLE
105
27
330
A
100
AcDbSymbolTableRecord
100
AcDbDimStyleTableRecord
  2
ISO-25
 70
     0
  3

  4

  5

  6

  7

 40
1.0
 41
2.5
 42
0.625
 43
3.75
 44
1.25
 45
0.0
 46
0.0
 47
0.0
 48
0.0
140
2.5
141
2.5
142
0.0
143
0.03937007874016
144
1.0
145
0.0
146
1.0
147
0.625
 71
     0
 72
     0
 73
     0
 74
     0
 75
     0
 76
     0
 77
     1
 78
     8
170
     0
171
     3
172
     1
173
     0
174
     0
175
     0
176
     0
177
     0
178
     0
270
     2
271
     2
272
     2
273
     2
274
     3
340
11
275
     0
280
     0
281
     0
282
     0
283
     0
284
     8
285
     0
286
     0
287
     3
288
     0
  0
ENDTAB
  0
TABLE
  2
BLOCK_RECORD
  5
1
330
0
100
AcDbSymbolTable
 70
     1
  0
BLOCK_RECORD
  5
1F
330
1
100
AcDbSymbolTableRecord
100
AcDbBlockTableRecord
  2
*MODEL_SPACE
  0
BLOCK_RECORD
  5
1B
330
1
100
AcDbSymbolTableRecord
100
AcDbBlockTableRecord
  2
*PAPER_SPACE
  0
ENDTAB
  0
ENDSEC
  0
SECTION
  2
BLOCKS
  0
BLOCK
  5
20
330
1F
100
AcDbEntity
  8
0
100
AcDbBlockBegin
  2
*MODEL_SPACE
 70
     0
 10
0.0
 20
0.0
 30
0.0
  3
*MODEL_SPACE
  1

  0
ENDBLK
  5
21
330
1F
100
AcDbEntity
  8
0
100
AcDbBlockEnd
  0
BLOCK
  5
1C
330
1B
100
AcDbEntity
 67
     1
  8
0
100
AcDbBlockBegin
  2
*PAPER_SPACE
  1

  0
ENDBLK
  5
1D
330
1B
100
AcDbEntity
 67
     1
  8
0
100
AcDbBlockEnd
  0
ENDSEC
  0
SECTION
  2
ENTITIES
  0
LWPOLYLINE
  5
100
100
AcDbEntity
  8
Layer_1
 62
7
100
AcDbPolyline
 90
2
 70
0
 10
22.453335
 20
370.138858
 30
0.0
 10
22.453335
 20
270.138861
 30
0.0
  0
SPLINE
  5
101
100
AcDbEntity
  8
Layer_1
 62
7
100
AcDbSpline
 70
8
 71
3
 72
8
 73
4
 74
0
 40
0
 40
0
 40
0
 40
0
 40
1
 40
1
 40
1
 40
1
 10
42.453350
 20
270.138860
 30
0.0
 10
42.453350
 20
264.616011
 30
0.0
 10
37.976198
 20
260.138860
 30
0.0
 10
32.453354
 20
260.138860
 30
0.0
  0
SPLINE
  5
102
100
AcDbEntity
  8
Layer_1
 62
7
100
AcDbSpline
 70
8
 71
3
 72
8
 73
4
 74
0
 40
0
 40
0
 40
0
 40
0
 40
1
 40
1
 40
1
 40
1
 10
32.453354
 20
260.138860
 30
0.0
 10
26.930505
 20
260.138860
 30
0.0
 10
22.453353
 20
264.616011
 30
0.0
 10
22.453353
 20
270.138860
 30
0.0
  0
LWPOLYLINE
  5
103
100
AcDbEntity
  8
Layer_1
 62
7
100
AcDbPolyline
 90
2
 70
0
 10
42.453351
 20
370.138861
 30
0.0
 10
42.453351
 20
270.138861
 30
0.0
  0
SPLINE
  5
104
100
AcDbEntity
  8
Layer_1
 62
7
100
AcDbSpline
 70
8
 71
3
 72
8
 73
4
 74
0
 40
0
 40
0
 40
0
 40
0
 40
1
 40
1
 40
1
 40
1
 10
42.453350
 20
370.138862
 30
0.0
 10
42.453350
 20
375.661711
 30
0.0
 10
37.976198
 20
380.138862
 30
0.0
 10
32.453354
 20
380.138862
 30
0.0
  0
SPLINE
  5
105
100
AcDbEntity
  8
Layer_1
 62
7
100
AcDbSpline
 70
8
 71
3
 72
8
 73
4
 74
0
 40
0
 40
0
 40
0
 40
0
 40
1
 40
1
 40
1
 40
1
 10
32.453354
 20
380.138862
 30
0.0
 10
26.930505
 20
380.138862
 30
0.0
 10
22.453353
 20
375.661711
 30
0.0
 10
22.453353
 20
370.138862
 30
0.0
  0
LWPOLYLINE
  5
106
100
AcDbEntity
  8
Layer_1
 62
7
100
AcDbPolyline
 90
2
 70
0
 10
22.453353
 20
270.138860
 30
0.0
 10
22.453353
 20
270.138860
 30
0.0
  0
SPLINE
  5
107
100
AcDbEntity
  8
Layer_1
 62
7
100
AcDbSpline
 70
8
 71
3
 72
8
 73
4
 74
0
 40
0
 40
0
 40
0
 40
0
 40
1
 40
1
 40
1
 40
1
 10
35.203335
 20
270.138858
 30
0.0
 10
35.203335
 20
268.620076
 30
0.0
 10
33.972117
 20
267.388859
 30
0.0
 10
32.453333
 20
267.388859
 30
0.0
  0
SPLINE
  5
108
100
AcDbEntity
  8
Layer_1
 62
7
100
AcDbSpline
 70
8
 71
3
 72
8
 73
4
 74
0
 40
0
 40
0
 40
0
 40
0
 40
1
 40
1
 40
1
 40
1
 10
32.453333
 20
267.388859
 30
0.0
 10
30.934552
 20
267.388859
 30
0.0
 10
29.703335
 20
268.620076
 30
0.0
 10
29.703335
 20
270.138858
 30
0.0
  0
SPLINE
  5
109
100
AcDbEntity
  8
Layer_1
 62
7
100
AcDbSpline
 70
8
 71
3
 72
8
 73
4
 74
0
 40
0
 40
0
 40
0
 40
0
 40
1
 40
1
 40
1
 40
1
 10
29.703335
 20
270.138858
 30
0.0
 10
29.703335
 20
271.657642
 30
0.0
 10
30.934552
 20
272.888859
 30
0.0
 10
32.453333
 20
272.888859
 30
0.0
  0
SPLINE
  5
10a
100
AcDbEntity
  8
Layer_1
 62
7
100
AcDbSpline
 70
8
 71
3
 72
8
 73
4
 74
0
 40
0
 40
0
 40
0
 40
0
 40
1
 40
1
 40
1
 40
1
 10
32.453333
 20
272.888859
 30
0.0
 10
33.972117
 20
272.888859
 30
0.0
 10
35.203335
 20
271.657642
 30
0.0
 10
35.203335
 20
270.138858
 30
0.0
  0
LWPOLYLINE
  5
10b
100
AcDbEntity
  8
Layer_1
 62
7
100
AcDbPolyline
 90
2
 70
0
 10
22.453353
 20
370.138862
 30
0.0
 10
22.453353
 20
370.138862
 30
0.0
  0
SPLINE
  5
10c
100
AcDbEntity
  8
Layer_1
 62
7
100
AcDbSpline
 70
8
 71
3
 72
8
 73
4
 74
0
 40
0
 40
0
 40
0
 40
0
 40
1
 40
1
 40
1
 40
1
 10
35.203335
 20
370.138858
 30
0.0
 10
35.203335
 20
368.620077
 30
0.0
 10
33.972117
 20
367.388859
 30
0.0
 10
32.453333
 20
367.388859
 30
0.0
  0
SPLINE
  5
10d
100
AcDbEntity
  8
Layer_1
 62
7
100
AcDbSpline
 70
8
 71
3
 72
8
 73
4
 74
0
 40
0
 40
0
 40
0
 40
0
 40
1
 40
1
 40
1
 40
1
 10
32.453333
 20
367.388859
 30
0.0
 10
30.934552
 20
367.388859
 30
0.0
 10
29.703335
 20
368.620077
 30
0.0
 10
29.703335
 20
370.138858
 30
0.0
  0
SPLINE
  5
10e
100
AcDbEntity
  8
Layer_1
 62
7
100
AcDbSpline
 70
8
 71
3
 72
8
 73
4
 74
0
 40
0
 40
0
 40
0
 40
0
 40
1
 40
1
 40
1
 40
1
 10
29.703335
 20
370.138858
 30
0.0
 10
29.703335
 20
371.657642
 30
0.0
 10
30.934552
 20
372.888859
 30
0.0
 10
32.453333
 20
372.888859
 30
0.0
  0
SPLINE
  5
10f
100
AcDbEntity
  8
Layer_1
 62
7
100
AcDbSpline
 70
8
 71
3
 72
8
 73
4
 74
0
 40
0
 40
0
 40
0
 40
0
 40
1
 40
1
 40
1
 40
1
 10
32.453333
 20
372.888859
 30
0.0
 10
33.972117
 20
372.888859
 30
0.0
 10
35.203335
 20
371.657642
 30
0.0
 10
35.203335
 20
370.138858
 30
0.0
  0
LWPOLYLINE
  5
110
100
AcDbEntity
  8
Layer_1
 62
7
100
AcDbPolyline
 90
2
 70
0
 10
35.203335
 20
270.138858
 30
0.0
 10
35.203335
 20
270.138858
 30
0.0
  0
SPLINE
  5
111
100
AcDbEntity
  8
Layer_1
 62
7
100
AcDbSpline
 70
8
 71
3
 72
8
 73
4
 74
0
 40
0
 40
0
 40
0
 40
0
 40
1
 40
1
 40
1
 40
1
 10
35.203335
 20
320.138865
 30
0.0
 10
35.203335
 20
318.620083
 30
0.0
 10
33.972117
 20
317.388866
 30
0.0
 10
32.453333
 20
317.388866
 30
0.0
  0
SPLINE
  5
112
100
AcDbEntity
  8
Layer_1
 62
7
100
AcDbSpline
 70
8
 71
3
 72
8
 73
4
 74
0
 40
0
 40
0
 40
0
 40
0
 40
1
 40
1
 40
1
 40
1
 10
32.453333
 20
317.388866
 30
0.0
 10
30.934552
 20
317.388866
 30
0.0
 10
29.703335
 20
318.620083
 30
0.0
 10
29.703335
 20
320.138865
 30
0.0
  0
SPLINE
  5
113
100
AcDbEntity
  8
Layer_1
 62
7
100
AcDbSpline
 70
8
 71
3
 72
8
 73
4
 74
0
 40
0
 40
0
 40
0
 40
0
 40
1
 40
1
 40
1
 40
1
 10
29.703335
 20
320.138865
 30
0.0
 10
29.703335
 20
321.657649
 30
0.0
 10
30.934552
 20
322.888866
 30
0.0
 10
32.453333
 20
322.888866
 30
0.0
  0
SPLINE
  5
114
100
AcDbEntity
  8
Layer_1
 62
7
100
AcDbSpline
 70
8
 71
3
 72
8
 73
4
 74
0
 40
0
 40
0
 40
0
 40
0
 40
1
 40
1
 40
1
 40
1
 10
32.453333
 20
322.888866
 30
0.0
 10
33.972117
 20
322.888866
 30
0.0
 10
35.203335
 20
321.657649
 30
0.0
 10
35.203335
 20
320.138865
 30
0.0
  0
LWPOLYLINE
  5
115
100
AcDbEntity
  8
Layer_1
 62
7
100
AcDbPolyline
 90
2
 70
0
 10
35.203335
 20
370.138858
 30
0.0
 10
35.203335
 20
370.138858
 30
0.0
  0
LWPOLYLINE
  5
116
100
AcDbEntity
  8
Layer_1
 62
7
100
AcDbPolyline
 90
2
 70
0
 10
35.203335
 20
320.138865
 30
0.0
 10
35.203335
 20
320.138865
 30
0.0
  0
LWPOLYLINE
  5
117
100
AcDbEntity
  8
Layer_1
 62
7
100
AcDbPolyline
 90
2
 70
0
 10
56.745135
 20
370.138858
 30
0.0
 10
56.745135
 20
270.138861
 30
0.0
  0
SPLINE
  5
118
100
AcDbEntity
  8
Layer_1
 62
7
100
AcDbSpline
 70
8
 71
3
 72
8
 73
4
 74
0
 40
0
 40
0
 40
0
 40
0
 40
1
 40
1
 40
1
 40
1
 10
76.745150
 20
270.138860
 30
0.0
 10
76.745150
 20
264.616011
 30
0.0
 10
72.267999
 20
260.138860
 30
0.0
 10
66.745155
 20
260.138860
 30
0.0
  0
SPLINE
  5
119
100
AcDbEntity
  8
Layer_1
 62
7
100
AcDbSpline
 70
8
 71
3
 72
8
 73
4
 74
0
 40
0
 40
0
 40
0
 40
0
 40
1
 40
1
 40
1
 40
1
 10
66.745155
 20
260.138860
 30
0.0
 10
61.222306
 20
260.138860
 30
0.0
 10
56.745154
 20
264.616011
 30
0.0
 10
56.745154
 20
270.138860
 30
0.0
  0
LWPOLYLINE
  5
11a
100
AcDbEntity
  8
Layer_1
 62
7
100
AcDbPolyline
 90
2
 70
0
 10
76.745152
 20
370.138861
 30
0.0
 10
76.745152
 20
270.138861
 30
0.0
  0
SPLINE
  5
11b
100
AcDbEntity
  8
Layer_1
 62
7
100
AcDbSpline
 70
8
 71
3
 72
8
 73
4
 74
0
 40
0
 40
0
 40
0
 40
0
 40
1
 40
1
 40
1
 40
1
 10
76.745150
 20
370.138862
 30
0.0
 10
76.745150
 20
375.661711
 30
0.0
 10
72.267999
 20
380.138862
 30
0.0
 10
66.745155
 20
380.138862
 30
0.0
  0
SPLINE
  5
11c
100
AcDbEntity
  8
Layer_1
 62
7
100
AcDbSpline
 70
8
 71
3
 72
8
 73
4
 74
0
 40
0
 40
0
 40
0
 40
0
 40
1
 40
1
 40
1
 40
1
 10
66.745155
 20
380.138862
 30
0.0
 10
61.222306
 20
380.138862
 30
0.0
 10
56.745154
 20
375.661711
 30
0.0
 10
56.745154
 20
370.138862
 30
0.0
  0
LWPOLYLINE
  5
11d
100
AcDbEntity
  8
Layer_1
 62
7
100
AcDbPolyline
 90
2
 70
0
 10
56.745154
 20
270.138860
 30
0.0
 10
56.745154
 20
270.138860
 30
0.0
  0
SPLINE
  5
11e
100
AcDbEntity
  8
Layer_1
 62
7
100
AcDbSpline
 70
8
 71
3
 72
8
 73
4
 74
0
 40
0
 40
0
 40
0
 40
0
 40
1
 40
1
 40
1
 40
1
 10
69.495135
 20
270.138858
 30
0.0
 10
69.495135
 20
268.620076
 30
0.0
 10
68.263918
 20
267.388859
 30
0.0
 10
66.745134
 20
267.388859
 30
0.0
  0
SPLINE
  5
11f
100
AcDbEntity
  8
Layer_1
 62
7
100
AcDbSpline
 70
8
 71
3
 72
8
 73
4
 74
0
 40
0
 40
0
 40
0
 40
0
 40
1
 40
1
 40
1
 40
1
 10
66.745134
 20
267.388859
 30
0.0
 10
65.226353
 20
267.388859
 30
0.0
 10
63.995136
 20
268.620076
 30
0.0
 10
63.995136
 20
270.138858
 30
0.0
  0
SPLINE
  5
120
100
AcDbEntity
  8
Layer_1
 62
7
100
AcDbSpline
 70
8
 71
3
 72
8
 73
4
 74
0
 40
0
 40
0
 40
0
 40
0
 40
1
 40
1
 40
1
 40
1
 10
63.995136
 20
270.138858
 30
0.0
 10
63.995136
 20
271.657642
 30
0.0
 10
65.226353
 20
272.888859
 30
0.0
 10
66.745134
 20
272.888859
 30
0.0
  0
SPLINE
  5
121
100
AcDbEntity
  8
Layer_1
 62
7
100
AcDbSpline
 70
8
 71
3
 72
8
 73
4
 74
0
 40
0
 40
0
 40
0
 40
0
 40
1
 40
1
 40
1
 40
1
 10
66.745134
 20
272.888859
 30
0.0
 10
68.263918
 20
272.888859
 30
0.0
 10
69.495135
 20
271.657642
 30
0.0
 10
69.495135
 20
270.138858
 30
0.0
  0
LWPOLYLINE
  5
122
100
AcDbEntity
  8
Layer_1
 62
7
100
AcDbPolyline
 90
2
 70
0
 10
56.745154
 20
370.138862
 30
0.0
 10
56.745154
 20
370.138862
 30
0.0
  0
SPLINE
  5
123
100
AcDbEntity
  8
Layer_1
 62
7
100
AcDbSpline
 70
8
 71
3
 72
8
 73
4
 74
0
 40
0
 40
0
 40
0
 40
0
 40
1
 40
1
 40
1
 40
1
 10
69.495135
 20
370.138858
 30
0.0
 10
69.495135
 20
368.620077
 30
0.0
 10
68.263918
 20
367.388859
 30
0.0
 10
66.745134
 20
367.388859
 30
0.0
  0
SPLINE
  5
124
100
AcDbEntity
  8
Layer_1
 62
7
100
AcDbSpline
 70
8
 71
3
 72
8
 73
4
 74
0
 40
0
 40
0
 40
0
 40
0
 40
1
 40
1
 40
1
 40
1
 10
66.745134
 20
367.388859
 30
0.0
 10
65.226353
 20
367.388859
 30
0.0
 10
63.995136
 20
368.620077
 30
0.0
 10
63.995136
 20
370.138858
 30
0.0
  0
SPLINE
  5
125
100
AcDbEntity
  8
Layer_1
 62
7
100
AcDbSpline
 70
8
 71
3
 72
8
 73
4
 74
0
 40
0
 40
0
 40
0
 40
0
 40
1
 40
1
 40
1
 40
1
 10
63.995136
 20
370.138858
 30
0.0
 10
63.995136
 20
371.657642
 30
0.0
 10
65.226353
 20
372.888859
 30
0.0
 10
66.745134
 20
372.888859
 30
0.0
  0
SPLINE
  5
126
100
AcDbEntity
  8
Layer_1
 62
7
100
AcDbSpline
 70
8
 71
3
 72
8
 73
4
 74
0
 40
0
 40
0
 40
0
 40
0
 40
1
 40
1
 40
1
 40
1
 10
66.745134
 20
372.888859
 30
0.0
 10
68.263918
 20
372.888859
 30
0.0
 10
69.495135
 20
371.657642
 30
0.0
 10
69.495135
 20
370.138858
 30
0.0
  0
LWPOLYLINE
  5
127
100
AcDbEntity
  8
Layer_1
 62
7
100
AcDbPolyline
 90
2
 70
0
 10
69.495135
 20
270.138858
 30
0.0
 10
69.495135
 20
270.138858
 30
0.0
  0
SPLINE
  5
128
100
AcDbEntity
  8
Layer_1
 62
7
100
AcDbSpline
 70
8
 71
3
 72
8
 73
4
 74
0
 40
0
 40
0
 40
0
 40
0
 40
1
 40
1
 40
1
 40
1
 10
69.495135
 20
320.138865
 30
0.0
 10
69.495135
 20
318.620083
 30
0.0
 10
68.263918
 20
317.388866
 30
0.0
 10
66.745134
 20
317.388866
 30
0.0
  0
SPLINE
  5
129
100
AcDbEntity
  8
Layer_1
 62
7
100
AcDbSpline
 70
8
 71
3
 72
8
 73
4
 74
0
 40
0
 40
0
 40
0
 40
0
 40
1
 40
1
 40
1
 40
1
 10
66.745134
 20
317.388866
 30
0.0
 10
65.226353
 20
317.388866
 30
0.0
 10
63.995136
 20
318.620083
 30
0.0
 10
63.995136
 20
320.138865
 30
0.0
  0
SPLINE
  5
12a
100
AcDbEntity
  8
Layer_1
 62
7
100
AcDbSpline
 70
8
 71
3
 72
8
 73
4
 74
0
 40
0
 40
0
 40
0
 40
0
 40
1
 40
1
 40
1
 40
1
 10
63.995136
 20
320.138865
 30
0.0
 10
63.995136
 20
321.657649
 30
0.0
 10
65.226353
 20
322.888866
 30
0.0
 10
66.745134
 20
322.888866
 30
0.0
  0
SPLINE
  5
12b
100
AcDbEntity
  8
Layer_1
 62
7
100
AcDbSpline
 70
8
 71
3
 72
8
 73
4
 74
0
 40
0
 40
0
 40
0
 40
0
 40
1
 40
1
 40
1
 40
1
 10
66.745134
 20
322.888866
 30
0.0
 10
68.263918
 20
322.888866
 30
0.0
 10
69.495135
 20
321.657649
 30
0.0
 10
69.495135
 20
320.138865
 30
0.0
  0
LWPOLYLINE
  5
12c
100
AcDbEntity
  8
Layer_1
 62
7
100
AcDbPolyline
 90
2
 70
0
 10
69.495135
 20
370.138858
 30
0.0
 10
69.495135
 20
370.138858
 30
0.0
  0
LWPOLYLINE
  5
12d
100
AcDbEntity
  8
Layer_1
 62
7
100
AcDbPolyline
 90
2
 70
0
 10
69.495135
 20
320.138865
 30
0.0
 10
69.495135
 20
320.138865
 30
0.0
  0
LWPOLYLINE
  5
12e
100
AcDbEntity
  8
Layer_1
 62
7
100
AcDbPolyline
 90
2
 70
0
 10
91.036939
 20
370.138858
 30
0.0
 10
91.036939
 20
270.138861
 30
0.0
  0
SPLINE
  5
12f
100
AcDbEntity
  8
Layer_1
 62
7
100
AcDbSpline
 70
8
 71
3
 72
8
 73
4
 74
0
 40
0
 40
0
 40
0
 40
0
 40
1
 40
1
 40
1
 40
1
 10
111.036954
 20
270.138860
 30
0.0
 10
111.036954
 20
264.616011
 30
0.0
 10
106.559802
 20
260.138860
 30
0.0
 10
101.036958
 20
260.138860
 30
0.0
  0
SPLINE
  5
130
100
AcDbEntity
  8
Layer_1
 62
7
100
AcDbSpline
 70
8
 71
3
 72
8
 73
4
 74
0
 40
0
 40
0
 40
0
 40
0
 40
1
 40
1
 40
1
 40
1
 10
101.036958
 20
260.138860
 30
0.0
 10
95.514109
 20
260.138860
 30
0.0
 10
91.036957
 20
264.616011
 30
0.0
 10
91.036957
 20
270.138860
 30
0.0
  0
LWPOLYLINE
  5
131
100
AcDbEntity
  8
Layer_1
 62
7
100
AcDbPolyline
 90
2
 70
0
 10
111.036955
 20
370.138861
 30
0.0
 10
111.036955
 20
270.138861
 30
0.0
  0
SPLINE
  5
132
100
AcDbEntity
  8
Layer_1
 62
7
100
AcDbSpline
 70
8
 71
3
 72
8
 73
4
 74
0
 40
0
 40
0
 40
0
 40
0
 40
1
 40
1
 40
1
 40
1
 10
111.036954
 20
370.138862
 30
0.0
 10
111.036954
 20
375.661711
 30
0.0
 10
106.559802
 20
380.138862
 30
0.0
 10
101.036958
 20
380.138862
 30
0.0
  0
SPLINE
  5
133
100
AcDbEntity
  8
Layer_1
 62
7
100
AcDbSpline
 70
8
 71
3
 72
8
 73
4
 74
0
 40
0
 40
0
 40
0
 40
0
 40
1
 40
1
 40
1
 40
1
 10
101.036958
 20
380.138862
 30
0.0
 10
95.514109
 20
380.138862
 30
0.0
 10
91.036957
 20
375.661711
 30
0.0
 10
91.036957
 20
370.138862
 30
0.0
  0
LWPOLYLINE
  5
134
100
AcDbEntity
  8
Layer_1
 62
7
100
AcDbPolyline
 90
2
 70
0
 10
91.036957
 20
270.138860
 30
0.0
 10
91.036957
 20
270.138860
 30
0.0
  0
SPLINE
  5
135
100
AcDbEntity
  8
Layer_1
 62
7
100
AcDbSpline
 70
8
 71
3
 72
8
 73
4
 74
0
 40
0
 40
0
 40
0
 40
0
 40
1
 40
1
 40
1
 40
1
 10
103.786938
 20
270.138858
 30
0.0
 10
103.786938
 20
268.620076
 30
0.0
 10
102.555721
 20
267.388859
 30
0.0
 10
101.036937
 20
267.388859
 30
0.0
  0
SPLINE
  5
136
100
AcDbEntity
  8
Layer_1
 62
7
100
AcDbSpline
 70
8
 71
3
 72
8
 73
4
 74
0
 40
0
 40
0
 40
0
 40
0
 40
1
 40
1
 40
1
 40
1
 10
101.036937
 20
267.388859
 30
0.0
 10
99.518156
 20
267.388859
 30
0.0
 10
98.286939
 20
268.620076
 30
0.0
 10
98.286939
 20
270.138858
 30
0.0
  0
SPLINE
  5
137
100
AcDbEntity
  8
Layer_1
 62
7
100
AcDbSpline
 70
8
 71
3
 72
8
 73
4
 74
0
 40
0
 40
0
 40
0
 40
0
 40
1
 40
1
 40
1
 40
1
 10
98.286939
 20
270.138858
 30
0.0
 10
98.286939
 20
271.657642
 30
0.0
 10
99.518156
 20
272.888859
 30
0.0
 10
101.036937
 20
272.888859
 30
0.0
  0
SPLINE
  5
138
100
AcDbEntity
  8
Layer_1
 62
7
100
AcDbSpline
 70
8
 71
3
 72
8
 73
4
 74
0
 40
0
 40
0
 40
0
 40
0
 40
1
 40
1
 40
1
 40
1
 10
101.036937
 20
272.888859
 30
0.0
 10
102.555721
 20
272.888859
 30
0.0
 10
103.786938
 20
271.657642
 30
0.0
 10
103.786938
 20
270.138858
 30
0.0
  0
LWPOLYLINE
  5
139
100
AcDbEntity
  8
Layer_1
 62
7
100
AcDbPolyline
 90
2
 70
0
 10
91.036957
 20
370.138862
 30
0.0
 10
91.036957
 20
370.138862
 30
0.0
  0
SPLINE
  5
13a
100
AcDbEntity
  8
Layer_1
 62
7
100
AcDbSpline
 70
8
 71
3
 72
8
 73
4
 74
0
 40
0
 40
0
 40
0
 40
0
 40
1
 40
1
 40
1
 40
1
 10
103.786938
 20
370.138858
 30
0.0
 10
103.786938
 20
368.620077
 30
0.0
 10
102.555721
 20
367.388859
 30
0.0
 10
101.036937
 20
367.388859
 30
0.0
  0
SPLINE
  5
13b
100
AcDbEntity
  8
Layer_1
 62
7
100
AcDbSpline
 70
8
 71
3
 72
8
 73
4
 74
0
 40
0
 40
0
 40
0
 40
0
 40
1
 40
1
 40
1
 40
1
 10
101.036937
 20
367.388859
 30
0.0
 10
99.518156
 20
367.388859
 30
0.0
 10
98.286939
 20
368.620077
 30
0.0
 10
98.286939
 20
370.138858
 30
0.0
  0
SPLINE
  5
13c
100
AcDbEntity
  8
Layer_1
 62
7
100
AcDbSpline
 70
8
 71
3
 72
8
 73
4
 74
0
 40
0
 40
0
 40
0
 40
0
 40
1
 40
1
 40
1
 40
1
 10
98.286939
 20
370.138858
 30
0.0
 10
98.286939
 20
371.657642
 30
0.0
 10
99.518156
 20
372.888859
 30
0.0
 10
101.036937
 20
372.888859
 30
0.0
  0
SPLINE
  5
13d
100
AcDbEntity
  8
Layer_1
 62
7
100
AcDbSpline
 70
8
 71
3
 72
8
 73
4
 74
0
 40
0
 40
0
 40
0
 40
0
 40
1
 40
1
 40
1
 40
1
 10
101.036937
 20
372.888859
 30
0.0
 10
102.555721
 20
372.888859
 30
0.0
 10
103.786938
 20
371.657642
 30
0.0
 10
103.786938
 20
370.138858
 30
0.0
  0
LWPOLYLINE
  5
13e
100
AcDbEntity
  8
Layer_1
 62
7
100
AcDbPolyline
 90
2
 70
0
 10
103.786938
 20
270.138858
 30
0.0
 10
103.786938
 20
270.138858
 30
0.0
  0
SPLINE
  5
13f
100
AcDbEntity
  8
Layer_1
 62
7
100
AcDbSpline
 70
8
 71
3
 72
8
 73
4
 74
0
 40
0
 40
0
 40
0
 40
0
 40
1
 40
1
 40
1
 40
1
 10
103.786938
 20
320.138865
 30
0.0
 10
103.786938
 20
318.620083
 30
0.0
 10
102.555721
 20
317.388866
 30
0.0
 10
101.036937
 20
317.388866
 30
0.0
  0
SPLINE
  5
140
100
AcDbEntity
  8
Layer_1
 62
7
100
AcDbSpline
 70
8
 71
3
 72
8
 73
4
 74
0
 40
0
 40
0
 40
0
 40
0
 40
1
 40
1
 40
1
 40
1
 10
101.036937
 20
317.388866
 30
0.0
 10
99.518156
 20
317.388866
 30
0.0
 10
98.286939
 20
318.620083
 30
0.0
 10
98.286939
 20
320.138865
 30
0.0
  0
SPLINE
  5
141
100
AcDbEntity
  8
Layer_1
 62
7
100
AcDbSpline
 70
8
 71
3
 72
8
 73
4
 74
0
 40
0
 40
0
 40
0
 40
0
 40
1
 40
1
 40
1
 40
1
 10
98.286939
 20
320.138865
 30
0.0
 10
98.286939
 20
321.657649
 30
0.0
 10
99.518156
 20
322.888866
 30
0.0
 10
101.036937
 20
322.888866
 30
0.0
  0
SPLINE
  5
142
100
AcDbEntity
  8
Layer_1
 62
7
100
AcDbSpline
 70
8
 71
3
 72
8
 73
4
 74
0
 40
0
 40
0
 40
0
 40
0
 40
1
 40
1
 40
1
 40
1
 10
101.036937
 20
322.888866
 30
0.0
 10
102.555721
 20
322.888866
 30
0.0
 10
103.786938
 20
321.657649
 30
0.0
 10
103.786938
 20
320.138865
 30
0.0
  0
LWPOLYLINE
  5
143
100
AcDbEntity
  8
Layer_1
 62
7
100
AcDbPolyline
 90
2
 70
0
 10
103.786938
 20
370.138858
 30
0.0
 10
103.786938
 20
370.138858
 30
0.0
  0
LWPOLYLINE
  5
144
100
AcDbEntity
  8
Layer_1
 62
7
100
AcDbPolyline
 90
2
 70
0
 10
103.786938
 20
320.138865
 30
0.0
 10
103.786938
 20
320.138865
 30
0.0
  0
LWPOLYLINE
  5
145
100
AcDbEntity
  8
Layer_1
 62
7
100
AcDbPolyline
 90
2
 70
0
 10
125.328725
 20
370.138858
 30
0.0
 10
125.328725
 20
270.138861
 30
0.0
  0
SPLINE
  5
146
100
AcDbEntity
  8
Layer_1
 62
7
100
AcDbSpline
 70
8
 71
3
 72
8
 73
4
 74
0
 40
0
 40
0
 40
0
 40
0
 40
1
 40
1
 40
1
 40
1
 10
145.328740
 20
270.138860
 30
0.0
 10
145.328740
 20
264.616011
 30
0.0
 10
140.851589
 20
260.138860
 30
0.0
 10
135.328745
 20
260.138860
 30
0.0
  0
SPLINE
  5
147
100
AcDbEntity
  8
Layer_1
 62
7
100
AcDbSpline
 70
8
 71
3
 72
8
 73
4
 74
0
 40
0
 40
0
 40
0
 40
0
 40
1
 40
1
 40
1
 40
1
 10
135.328745
 20
260.138860
 30
0.0
 10
129.805896
 20
260.138860
 30
0.0
 10
125.328744
 20
264.616011
 30
0.0
 10
125.328744
 20
270.138860
 30
0.0
  0
LWPOLYLINE
  5
148
100
AcDbEntity
  8
Layer_1
 62
7
100
AcDbPolyline
 90
2
 70
0
 10
145.328742
 20
370.138861
 30
0.0
 10
145.328742
 20
270.138861
 30
0.0
  0
SPLINE
  5
149
100
AcDbEntity
  8
Layer_1
 62
7
100
AcDbSpline
 70
8
 71
3
 72
8
 73
4
 74
0
 40
0
 40
0
 40
0
 40
0
 40
1
 40
1
 40
1
 40
1
 10
145.328740
 20
370.138862
 30
0.0
 10
145.328740
 20
375.661711
 30
0.0
 10
140.851589
 20
380.138862
 30
0.0
 10
135.328745
 20
380.138862
 30
0.0
  0
SPLINE
  5
14a
100
AcDbEntity
  8
Layer_1
 62
7
100
AcDbSpline
 70
8
 71
3
 72
8
 73
4
 74
0
 40
0
 40
0
 40
0
 40
0
 40
1
 40
1
 40
1
 40
1
 10
135.328745
 20
380.138862
 30
0.0
 10
129.805896
 20
380.138862
 30
0.0
 10
125.328744
 20
375.661711
 30
0.0
 10
125.328744
 20
370.138862
 30
0.0
  0
LWPOLYLINE
  5
14b
100
AcDbEntity
  8
Layer_1
 62
7
100
AcDbPolyline
 90
2
 70
0
 10
125.328744
 20
270.138860
 30
0.0
 10
125.328744
 20
270.138860
 30
0.0
  0
SPLINE
  5
14c
100
AcDbEntity
  8
Layer_1
 62
7
100
AcDbSpline
 70
8
 71
3
 72
8
 73
4
 74
0
 40
0
 40
0
 40
0
 40
0
 40
1
 40
1
 40
1
 40
1
 10
138.078725
 20
270.138858
 30
0.0
 10
138.078725
 20
268.620076
 30
0.0
 10
136.847508
 20
267.388859
 30
0.0
 10
135.328724
 20
267.388859
 30
0.0
  0
SPLINE
  5
14d
100
AcDbEntity
  8
Layer_1
 62
7
100
AcDbSpline
 70
8
 71
3
 72
8
 73
4
 74
0
 40
0
 40
0
 40
0
 40
0
 40
1
 40
1
 40
1
 40
1
 10
135.328724
 20
267.388859
 30
0.0
 10
133.809943
 20
267.388859
 30
0.0
 10
132.578725
 20
268.620076
 30
0.0
 10
132.578725
 20
270.138858
 30
0.0
  0
SPLINE
  5
14e
100
AcDbEntity
  8
Layer_1
 62
7
100
AcDbSpline
 70
8
 71
3
 72
8
 73
4
 74
0
 40
0
 40
0
 40
0
 40
0
 40
1
 40
1
 40
1
 40
1
 10
132.578725
 20
270.138858
 30
0.0
 10
132.578725
 20
271.657642
 30
0.0
 10
133.809943
 20
272.888859
 30
0.0
 10
135.328724
 20
272.888859
 30
0.0
  0
SPLINE
  5
14f
100
AcDbEntity
  8
Layer_1
 62
7
100
AcDbSpline
 70
8
 71
3
 72
8
 73
4
 74
0
 40
0
 40
0
 40
0
 40
0
 40
1
 40
1
 40
1
 40
1
 10
135.328724
 20
272.888859
 30
0.0
 10
136.847508
 20
272.888859
 30
0.0
 10
138.078725
 20
271.657642
 30
0.0
 10
138.078725
 20
270.138858
 30
0.0
  0
LWPOLYLINE
  5
150
100
AcDbEntity
  8
Layer_1
 62
7
100
AcDbPolyline
 90
2
 70
0
 10
125.328744
 20
370.138862
 30
0.0
 10
125.328744
 20
370.138862
 30
0.0
  0
SPLINE
  5
151
100
AcDbEntity
  8
Layer_1
 62
7
100
AcDbSpline
 70
8
 71
3
 72
8
 73
4
 74
0
 40
0
 40
0
 40
0
 40
0
 40
1
 40
1
 40
1
 40
1
 10
138.078725
 20
370.138858
 30
0.0
 10
138.078725
 20
368.620077
 30
0.0
 10
136.847508
 20
367.388859
 30
0.0
 10
135.328724
 20
367.388859
 30
0.0
  0
SPLINE
  5
152
100
AcDbEntity
  8
Layer_1
 62
7
100
AcDbSpline
 70
8
 71
3
 72
8
 73
4
 74
0
 40
0
 40
0
 40
0
 40
0
 40
1
 40
1
 40
1
 40
1
 10
135.328724
 20
367.388859
 30
0.0
 10
133.809943
 20
367.388859
 30
0.0
 10
132.578725
 20
368.620077
 30
0.0
 10
132.578725
 20
370.138858
 30
0.0
  0
SPLINE
  5
153
100
AcDbEntity
  8
Layer_1
 62
7
100
AcDbSpline
 70
8
 71
3
 72
8
 73
4
 74
0
 40
0
 40
0
 40
0
 40
0
 40
1
 40
1
 40
1
 40
1
 10
132.578725
 20
370.138858
 30
0.0
 10
132.578725
 20
371.657642
 30
0.0
 10
133.809943
 20
372.888859
 30
0.0
 10
135.328724
 20
372.888859
 30
0.0
  0
SPLINE
  5
154
100
AcDbEntity
  8
Layer_1
 62
7
100
AcDbSpline
 70
8
 71
3
 72
8
 73
4
 74
0
 40
0
 40
0
 40
0
 40
0
 40
1
 40
1
 40
1
 40
1
 10
135.328724
 20
372.888859
 30
0.0
 10
136.847508
 20
372.888859
 30
0.0
 10
138.078725
 20
371.657642
 30
0.0
 10
138.078725
 20
370.138858
 30
0.0
  0
LWPOLYLINE
  5
155
100
AcDbEntity
  8
Layer_1
 62
7
100
AcDbPolyline
 90
2
 70
0
 10
138.078725
 20
270.138858
 30
0.0
 10
138.078725
 20
270.138858
 30
0.0
  0
SPLINE
  5
156
100
AcDbEntity
  8
Layer_1
 62
7
100
AcDbSpline
 70
8
 71
3
 72
8
 73
4
 74
0
 40
0
 40
0
 40
0
 40
0
 40
1
 40
1
 40
1
 40
1
 10
138.078725
 20
320.138865
 30
0.0
 10
138.078725
 20
318.620083
 30
0.0
 10
136.847508
 20
317.388866
 30
0.0
 10
135.328724
 20
317.388866
 30
0.0
  0
SPLINE
  5
157
100
AcDbEntity
  8
Layer_1
 62
7
100
AcDbSpline
 70
8
 71
3
 72
8
 73
4
 74
0
 40
0
 40
0
 40
0
 40
0
 40
1
 40
1
 40
1
 40
1
 10
135.328724
 20
317.388866
 30
0.0
 10
133.809943
 20
317.388866
 30
0.0
 10
132.578725
 20
318.620083
 30
0.0
 10
132.578725
 20
320.138865
 30
0.0
  0
SPLINE
  5
158
100
AcDbEntity
  8
Layer_1
 62
7
100
AcDbSpline
 70
8
 71
3
 72
8
 73
4
 74
0
 40
0
 40
0
 40
0
 40
0
 40
1
 40
1
 40
1
 40
1
 10
132.578725
 20
320.138865
 30
0.0
 10
132.578725
 20
321.657649
 30
0.0
 10
133.809943
 20
322.888866
 30
0.0
 10
135.328724
 20
322.888866
 30
0.0
  0
SPLINE
  5
159
100
AcDbEntity
  8
Layer_1
 62
7
100
AcDbSpline
 70
8
 71
3
 72
8
 73
4
 74
0
 40
0
 40
0
 40
0
 40
0
 40
1
 40
1
 40
1
 40
1
 10
135.328724
 20
322.888866
 30
0.0
 10
136.847508
 20
322.888866
 30
0.0
 10
138.078725
 20
321.657649
 30
0.0
 10
138.078725
 20
320.138865
 30
0.0
  0
LWPOLYLINE
  5
15a
100
AcDbEntity
  8
Layer_1
 62
7
100
AcDbPolyline
 90
2
 70
0
 10
138.078725
 20
370.138858
 30
0.0
 10
138.078725
 20
370.138858
 30
0.0
  0
LWPOLYLINE
  5
15b
100
AcDbEntity
  8
Layer_1
 62
7
100
AcDbPolyline
 90
2
 70
0
 10
138.078725
 20
320.138865
 30
0.0
 10
138.078725
 20
320.138865
 30
0.0
  0
ENDSEC
  0
SECTION
  2
OBJECTS
  0
DICTIONARY
  5
C
330
0
100
AcDbDictionary
  3
ACAD_GROUP
350
D
  3
ACAD_MLINESTYLE
350
17
  0
DICTIONARY
  5
D
330
C
100
AcDbDictionary
  0
DICTIONARY
  5
1A
330
C
100
AcDbDictionary
  0
DICTIONARY
  5
17
330
C
100
AcDbDictionary
  3
STANDARD
350
18
  0
DICTIONARY
  5
19
330
C
100
AcDbDictionary
  0
ENDSEC
  0
EOF
